<svg width="280" height="280" viewBox="0 0 280 280" fill="none" xmlns="http://www.w3.org/2000/svg">
    <path d="M110.839 157.243H261.925V87.8209H249.461V68.6307H233.049V85.3381H220.88V64.9272H197.172V86.5791H170.871V76.2724H160.116V89.6722H144.538V112.016H132.389V95.5945L114.563 107.244V112.627L110.768 112.566L110.798 156.877L110.839 157.243Z" fill="white"/>
    <path d="M261.864 157.518C261.742 157.518 261.64 157.417 261.64 157.294L261.702 110.093V88.0445H249.461C249.339 88.0445 249.237 87.9424 249.237 87.8206V68.8543H233.273V85.3378C233.273 85.4596 233.171 85.5617 233.049 85.5617H220.89C220.768 85.5617 220.666 85.4596 220.666 85.3378V65.1508H197.407V86.5789C197.407 86.7014 197.304 86.8027 197.183 86.8027H170.901C170.779 86.8027 170.677 86.7014 170.677 86.5789V76.4959H160.36V89.672C160.36 89.7945 160.258 89.8958 160.136 89.8958H144.782V112.016C144.782 112.138 144.68 112.24 144.558 112.24H132.409C132.288 112.24 132.185 112.138 132.185 112.016V96.0011L114.807 107.366V112.627C114.807 112.749 114.705 112.851 114.583 112.851H110.992L111.032 155.92C111.032 156.043 110.93 156.144 110.809 156.144C110.686 156.144 110.585 156.043 110.585 155.92L110.544 112.627C110.544 112.566 110.564 112.515 110.605 112.464C110.645 112.423 110.706 112.403 110.768 112.403H114.36V107.244C114.36 107.173 114.4 107.102 114.461 107.061L132.288 95.4105C132.358 95.3704 132.44 95.3602 132.522 95.4003C132.592 95.4411 132.643 95.5126 132.643 95.5943V111.792H144.344V89.672C144.344 89.5502 144.446 89.4481 144.568 89.4481H159.892V76.2721C159.892 76.1496 159.994 76.0482 160.115 76.0482H170.881C171.003 76.0482 171.105 76.1496 171.105 76.2721V86.355H196.938V64.927C196.938 64.8045 197.04 64.7031 197.162 64.7031H220.88C221.002 64.7031 221.104 64.8045 221.104 64.927V85.1242H232.815V68.6406C232.815 68.5189 232.917 68.4168 233.039 68.4168H249.451C249.573 68.4168 249.675 68.5189 249.675 68.6406V87.5968H261.915C262.037 87.5968 262.139 87.6981 262.139 87.8206V110.093L262.078 157.294C262.088 157.417 261.987 157.518 261.864 157.518Z" fill="black"/>
    <path d="M270.95 157.518H0.238381C0.115881 157.518 0.0145264 157.417 0.0145264 157.294C0.0145264 157.172 0.115881 157.07 0.238381 157.07H270.95C271.073 157.07 271.174 157.172 271.174 157.294C271.174 157.417 271.073 157.518 270.95 157.518Z" fill="black"/>
    <path d="M56.4441 132.264C38.0479 132.264 23.0803 117.297 23.0803 98.9014C23.0803 80.5052 38.0479 65.5376 56.4441 65.5376C74.8402 65.5376 89.8071 80.5052 89.8071 98.9014C89.8071 117.297 74.8504 132.264 56.4441 132.264ZM56.4441 65.9751C38.2922 65.9751 23.528 80.7393 23.528 98.8911C23.528 117.043 38.2922 131.806 56.4441 131.806C74.596 131.806 89.3594 117.043 89.3594 98.8911C89.3594 80.7393 74.596 65.9751 56.4441 65.9751Z" fill="black"/>
    <path d="M56.444 121.173C44.1627 121.173 34.1709 111.182 34.1709 98.9011C34.1709 86.6197 44.1627 76.6279 56.444 76.6279C68.7254 76.6279 78.7164 86.6197 78.7164 98.9011C78.7266 111.171 68.7349 121.173 56.444 121.173ZM56.444 77.0654C44.4069 77.0654 34.6186 86.8538 34.6186 98.8908C34.6186 110.927 44.4069 120.716 56.444 120.716C68.4811 120.716 78.2687 110.927 78.2687 98.8908C78.2789 86.864 68.4811 77.0654 56.444 77.0654Z" fill="black"/>
    <path d="M109.577 99.1147H3.32139C3.19889 99.1147 3.09753 99.0126 3.09753 98.8908C3.09753 98.7683 3.19889 98.667 3.32139 98.667H109.567C109.689 98.667 109.791 98.7683 109.791 98.8908C109.801 99.0228 109.7 99.1147 109.577 99.1147Z" fill="black"/>
    <path d="M56.4441 152.248C56.3216 152.248 56.2202 152.146 56.2202 152.024V45.7678C56.2202 45.646 56.3216 45.5439 56.4441 45.5439C56.5658 45.5439 56.6679 45.646 56.6679 45.7678V152.024C56.6679 152.146 56.576 152.248 56.4441 152.248Z" fill="black"/>
    <path d="M102.638 125.356C102.597 125.356 102.567 125.345 102.526 125.325L10.1383 72.8433C10.026 72.782 9.9954 72.65 10.0566 72.5385C10.1179 72.4262 10.2499 72.3955 10.3622 72.4568L102.75 124.939C102.862 125 102.892 125.132 102.831 125.244C102.791 125.315 102.719 125.356 102.638 125.356Z" fill="black"/>
    <path d="M30.213 145.308C30.1722 145.308 30.1423 145.298 30.1015 145.278C29.9892 145.217 29.9585 145.085 30.0198 144.973L82.5016 52.5853C82.5628 52.473 82.6955 52.4424 82.8071 52.5037C82.9194 52.5649 82.9493 52.6969 82.8887 52.8092L30.4062 145.197C30.3661 145.268 30.2845 145.308 30.213 145.308Z" fill="black"/>
    <path d="M83.682 144.729C83.6106 144.729 83.5296 144.688 83.4888 144.616L29.023 53.3992C28.9617 53.2971 28.9924 53.1549 29.1039 53.0937C29.206 53.0332 29.3482 53.0631 29.4094 53.1753L83.8753 144.403C83.9365 144.505 83.9059 144.647 83.7943 144.708C83.7637 144.719 83.7229 144.729 83.682 144.729Z" fill="black"/>
    <path d="M10.8304 126.353C10.7589 126.353 10.6772 126.312 10.6371 126.241C10.5759 126.139 10.6065 125.996 10.7181 125.936L101.946 71.4692C102.048 71.4086 102.191 71.4385 102.251 71.5508C102.312 71.6529 102.282 71.7951 102.17 71.8564L10.9419 126.322C10.9113 126.343 10.8712 126.353 10.8304 126.353Z" fill="black"/>
    <path d="M7.1159 106.339H3.96226C1.91695 106.339 0.238403 104.66 0.238403 102.615C0.238403 100.57 1.91695 98.8911 3.96226 98.8911H7.1159C9.16122 98.8911 10.8405 100.57 10.8405 102.615C10.8303 104.67 9.16122 106.339 7.1159 106.339Z" fill="white"/>
    <path d="M7.11588 106.562H3.96224C1.78494 106.562 0.0145264 104.792 0.0145264 102.615C0.0145264 100.437 1.78494 98.667 3.96224 98.667H7.11588C9.2939 98.667 11.0643 100.437 11.0643 102.615C11.0643 104.792 9.28369 106.562 7.11588 106.562ZM3.96224 99.1147C2.02849 99.1147 0.461506 100.682 0.461506 102.615C0.461506 104.548 2.02849 106.115 3.96224 106.115H7.11588C9.04963 106.115 10.6166 104.548 10.6166 102.615C10.6166 100.682 9.04963 99.1147 7.11588 99.1147H3.96224Z" fill="black"/>
    <path d="M108.936 106.339H105.782C103.737 106.339 102.058 104.66 102.058 102.615C102.058 100.57 103.737 98.8911 105.782 98.8911H108.936C110.981 98.8911 112.66 100.57 112.66 102.615C112.66 104.67 110.981 106.339 108.936 106.339Z" fill="white"/>
    <path d="M108.936 106.562H105.782C103.604 106.562 101.834 104.792 101.834 102.615C101.834 100.437 103.604 98.667 105.782 98.667H108.936C111.113 98.667 112.884 100.437 112.884 102.615C112.884 104.792 111.113 106.562 108.936 106.562ZM105.782 99.1147C103.849 99.1147 102.282 100.682 102.282 102.615C102.282 104.548 103.849 106.115 105.782 106.115H108.936C110.869 106.115 112.436 104.548 112.436 102.615C112.436 100.682 110.869 99.1147 108.936 99.1147H105.782Z" fill="black"/>
    <path d="M103.635 79.111H100.481C98.4361 79.111 96.7568 77.4318 96.7568 75.3872C96.7568 73.3419 98.4361 71.6626 100.481 71.6626H103.635C105.68 71.6626 107.359 73.3419 107.359 75.3872C107.359 77.4318 105.68 79.111 103.635 79.111Z" fill="white"/>
    <path d="M103.635 79.3346H100.481C98.3034 79.3346 96.533 77.5642 96.533 75.3869C96.533 73.2089 98.3034 71.4385 100.481 71.4385H103.635C105.812 71.4385 107.583 73.2096 107.583 75.3869C107.583 77.5642 105.812 79.3346 103.635 79.3346ZM100.491 71.8862C98.5579 71.8862 96.9909 73.4532 96.9909 75.3869C96.9909 77.3199 98.5579 78.8869 100.491 78.8869H103.645C105.578 78.8869 107.145 77.3199 107.145 75.3869C107.145 73.4532 105.578 71.8862 103.645 71.8862H100.491Z" fill="black"/>
    <path d="M12.1633 79.8132H9.00889C6.96358 79.8132 5.28503 78.1339 5.28503 76.0893C5.28503 74.044 6.96358 72.3647 9.00889 72.3647H12.1633C14.2078 72.3647 15.8871 74.044 15.8871 76.0893C15.8871 78.1339 14.2078 79.8132 12.1633 79.8132Z" fill="white"/>
    <path d="M12.1632 80.0368H9.00887C6.83157 80.0368 5.06116 78.2664 5.06116 76.0891C5.06116 73.911 6.83157 72.1406 9.00887 72.1406H12.1632C14.3405 72.1406 16.1109 73.911 16.1109 76.0891C16.1109 78.2664 14.3405 80.0368 12.1632 80.0368ZM9.00887 72.5883C7.07584 72.5883 5.50887 74.1553 5.50887 76.0891C5.50887 78.0221 7.07584 79.5891 9.00887 79.5891H12.1632C14.0963 79.5891 15.6632 78.0221 15.6632 76.0891C15.6632 74.1553 14.0963 72.5883 12.1632 72.5883H9.00887Z" fill="black"/>
    <path d="M101.111 130.606H97.9577C95.9124 130.606 94.2332 128.927 94.2332 126.882C94.2332 124.837 95.9124 123.158 97.9577 123.158H101.111C103.157 123.158 104.836 124.837 104.836 126.882C104.836 128.927 103.157 130.606 101.111 130.606Z" fill="white"/>
    <path d="M101.111 130.83H97.9577C95.7797 130.83 94.0093 129.06 94.0093 126.882C94.0093 124.704 95.7797 122.934 97.9577 122.934H101.111C103.289 122.934 105.06 124.704 105.06 126.882C105.06 129.06 103.289 130.83 101.111 130.83ZM97.9679 123.382C96.0342 123.382 94.4672 124.949 94.4672 126.882C94.4672 128.816 96.0342 130.383 97.9679 130.383H101.122C103.055 130.383 104.622 128.816 104.622 126.882C104.622 124.949 103.055 123.382 101.122 123.382H97.9679Z" fill="black"/>
    <path d="M14.1677 130.606H11.0133C8.96797 130.606 7.28943 128.927 7.28943 126.882C7.28943 124.837 8.96797 123.158 11.0133 123.158H14.1677C16.2122 123.158 17.8915 124.837 17.8915 126.882C17.8915 128.927 16.2225 130.606 14.1677 130.606Z" fill="white"/>
    <path d="M14.1678 130.83H11.0134C8.83609 130.83 7.06567 129.06 7.06567 126.882C7.06567 124.704 8.83609 122.934 11.0134 122.934H14.1678C16.345 122.934 18.1155 124.704 18.1155 126.882C18.1155 129.06 16.345 130.83 14.1678 130.83ZM11.0236 123.382C9.09057 123.382 7.52359 124.949 7.52359 126.882C7.52359 128.816 9.09057 130.383 11.0236 130.383H14.178C16.111 130.383 17.678 128.816 17.678 126.882C17.678 124.949 16.111 123.382 14.178 123.382H11.0236Z" fill="black"/>
    <path d="M83.723 147.995H80.5686C78.5233 147.995 76.8447 146.316 76.8447 144.271C76.8447 142.225 78.5233 140.547 80.5686 140.547H83.723C85.7683 140.547 87.4468 142.225 87.4468 144.271C87.4468 146.316 85.7683 147.995 83.723 147.995Z" fill="white"/>
    <path d="M83.7229 148.219H80.5686C78.3913 148.219 76.6208 146.448 76.6208 144.271C76.6208 142.094 78.3913 140.323 80.5686 140.323H83.7229C85.9002 140.323 87.6706 142.094 87.6706 144.271C87.6706 146.448 85.9002 148.219 83.7229 148.219ZM80.5788 140.771C78.6457 140.771 77.0788 142.338 77.0788 144.271C77.0788 146.204 78.6457 147.771 80.5788 147.771H83.7331C85.6662 147.771 87.2331 146.204 87.2331 144.271C87.2331 142.338 85.6662 140.771 83.7331 140.771H80.5788Z" fill="black"/>
    <path d="M34.039 147.995H30.8846C28.8393 147.995 27.1608 146.316 27.1608 144.271C27.1608 142.225 28.8393 140.547 30.8846 140.547H34.039C36.0843 140.547 37.7629 142.225 37.7629 144.271C37.7629 146.316 36.0945 147.995 34.039 147.995Z" fill="white"/>
    <path d="M34.039 148.219H30.8846C28.7073 148.219 26.9369 146.448 26.9369 144.271C26.9369 142.094 28.7073 140.323 30.8846 140.323H34.039C36.2163 140.323 37.9867 142.094 37.9867 144.271C37.9867 146.448 36.2163 148.219 34.039 148.219ZM30.8948 140.771C28.9618 140.771 27.3948 142.338 27.3948 144.271C27.3948 146.204 28.9618 147.771 30.8948 147.771H34.0492C35.9822 147.771 37.5492 146.204 37.5492 144.271C37.5492 142.338 35.9822 140.771 34.0492 140.771H30.8948Z" fill="black"/>
    <path d="M82.9799 58.0695H79.8255C77.781 58.0695 76.1017 56.3903 76.1017 54.3457C76.1017 52.3004 77.781 50.6211 79.8255 50.6211H82.9799C85.0252 50.6211 86.7038 52.3004 86.7038 54.3457C86.7038 56.3903 85.0252 58.0695 82.9799 58.0695Z" fill="white"/>
    <path d="M82.9799 58.2931H79.8255C77.6482 58.2931 75.8778 56.5227 75.8778 54.3454C75.8778 52.1674 77.6482 50.397 79.8255 50.397H82.9799C85.1572 50.397 86.9276 52.1674 86.9276 54.3454C86.9276 56.5227 85.1572 58.2931 82.9799 58.2931ZM79.8255 50.8447C77.8925 50.8447 76.3255 52.4117 76.3255 54.3454C76.3255 56.2784 77.8925 57.8454 79.8255 57.8454H82.9799C84.9136 57.8454 86.4799 56.2784 86.4799 54.3454C86.4799 52.4117 84.9136 50.8447 82.9799 50.8447H79.8255Z" fill="black"/>
    <path d="M58.143 50.621H54.9894C52.944 50.621 51.2648 48.9425 51.2648 46.8972C51.2648 44.8519 52.944 43.1733 54.9894 43.1733H58.143C60.1883 43.1733 61.8669 44.8519 61.8669 46.8972C61.8574 48.9425 60.1883 50.621 58.143 50.621Z" fill="white"/>
    <mask id="mask0_189_205" style="mask-type:luminance" maskUnits="userSpaceOnUse" x="50" y="42" width="13" height="9">
        <path d="M50.96 42.9492H62.16V50.9598H50.96V42.9492Z" fill="white"/>
    </mask>
    <g mask="url(#mask0_189_205)">
        <path d="M58.143 50.8446H54.9893C52.8113 50.8446 51.0409 49.0742 51.0409 46.8969C51.0409 44.7196 52.8113 42.9492 54.9893 42.9492H58.143C60.3203 42.9492 62.0907 44.7196 62.0907 46.8969C62.0812 49.0742 60.3101 50.8446 58.143 50.8446ZM54.9893 43.3969C53.0556 43.3969 51.4886 44.9639 51.4886 46.8969C51.4886 48.8299 53.0556 50.3969 54.9893 50.3969H58.143C60.0767 50.3969 61.643 48.8299 61.643 46.8969C61.643 44.9639 60.0767 43.3969 58.143 43.3969H54.9893Z" fill="black"/>
    </g>
    <path d="M58.143 154.954H54.9894C52.944 154.954 51.2648 153.275 51.2648 151.23C51.2648 149.185 52.944 147.506 54.9894 147.506H58.143C60.1883 147.506 61.8669 149.185 61.8669 151.23C61.8574 153.275 60.1883 154.954 58.143 154.954Z" fill="white"/>
    <path d="M58.143 155.178H54.9893C52.8113 155.178 51.0409 153.408 51.0409 151.231C51.0409 149.053 52.8113 147.282 54.9893 147.282H58.143C60.3203 147.282 62.0907 149.053 62.0907 151.231C62.0907 153.408 60.3101 155.178 58.143 155.178ZM54.9893 147.73C53.0556 147.73 51.4886 149.297 51.4886 151.231C51.4886 153.164 53.0556 154.731 54.9893 154.731H58.143C60.0767 154.731 61.643 153.164 61.643 151.231C61.643 149.297 60.0767 147.73 58.143 147.73H54.9893Z" fill="black"/>
    <path d="M33.296 58.0695H30.1423C28.097 58.0695 26.4177 56.3903 26.4177 54.3457C26.4177 52.3004 28.097 50.6211 30.1423 50.6211H33.296C35.3413 50.6211 37.0205 52.3004 37.0205 54.3457C37.0205 56.3903 35.3413 58.0695 33.296 58.0695Z" fill="white"/>
    <path d="M33.2959 58.2931H30.1423C27.9643 58.2931 26.1938 56.5227 26.1938 54.3454C26.1938 52.1674 27.9643 50.397 30.1423 50.397H33.2959C35.474 50.397 37.2444 52.1674 37.2444 54.3454C37.2444 56.5227 35.474 58.2931 33.2959 58.2931ZM30.1525 50.8447C28.2187 50.8447 26.6518 52.4117 26.6518 54.3454C26.6518 56.2784 28.2187 57.8454 30.1525 57.8454H33.3061C35.2399 57.8454 36.8069 56.2784 36.8069 54.3454C36.8069 52.4117 35.2399 50.8447 33.3061 50.8447H30.1525Z" fill="black"/>
    <path d="M39.2584 159.787C39.1672 159.787 39.0754 159.777 38.9842 159.746C38.4548 159.594 38.1493 159.044 38.3025 158.516L55.5997 98.4125C55.7215 97.9853 56.1182 97.6899 56.5557 97.6899C57.0034 97.6899 57.3906 97.9853 57.5124 98.4125L74.2708 158.516C74.413 159.044 74.1075 159.594 73.5788 159.736C73.0494 159.889 72.5004 159.574 72.3575 159.044L56.5455 102.34L40.2151 159.075C40.0933 159.502 39.6959 159.787 39.2584 159.787Z" fill="white"/>
    <path d="M73.314 160.011C73.1106 160.011 72.9071 159.96 72.7139 159.859C72.4288 159.696 72.2254 159.441 72.1437 159.126L56.5454 103.164L40.4388 159.136C40.2864 159.656 39.8081 160.022 39.2685 160.022C39.1569 160.022 39.0446 160.001 38.9331 159.971C38.6174 159.879 38.3636 159.675 38.2003 159.391C38.0479 159.106 38.007 158.78 38.0989 158.465L55.3962 98.3618C55.5486 97.8324 56.0371 97.4766 56.576 97.4766C57.1156 97.4766 57.5939 97.8426 57.7463 98.372L74.504 158.475C74.5959 158.79 74.5551 159.116 74.3925 159.401C74.2299 159.685 73.9754 159.889 73.6596 159.971C73.5379 160.001 73.4256 160.011 73.314 160.011ZM56.5454 102.116C56.6475 102.116 56.7393 102.188 56.7597 102.279L72.571 159.004C72.622 159.198 72.754 159.37 72.9378 159.472C73.1208 159.574 73.3242 159.594 73.5175 159.543C73.7107 159.492 73.8835 159.36 73.9856 159.177C74.0869 158.993 74.1074 158.79 74.0563 158.597L57.3088 98.4835C57.2169 98.1583 56.9121 97.9243 56.5658 97.9243C56.2304 97.9243 55.9146 98.1481 55.8235 98.4835L38.5262 158.587C38.465 158.78 38.4956 158.993 38.5867 159.177C38.6888 159.36 38.8514 159.482 39.0446 159.543C39.1161 159.564 39.1876 159.574 39.2583 159.574C39.5944 159.574 39.9 159.34 40.0013 159.014L56.3317 102.279C56.3623 102.177 56.444 102.116 56.5454 102.116Z" fill="black"/>
    <path d="M24.4846 183.25H0.349953C0.228182 183.25 0.126099 183.149 0.126099 183.027C0.126099 182.905 0.228182 182.803 0.349953 182.803H24.4846C24.6071 182.803 24.7085 182.905 24.7085 183.027C24.7085 183.149 24.6071 183.25 24.4846 183.25Z" fill="black"/>
    <path d="M49.1386 187.727H9.31443C9.19193 187.727 9.09058 187.625 9.09058 187.504C9.09058 187.381 9.19193 187.28 9.31443 187.28H49.1386C49.2604 187.28 49.3625 187.381 49.3625 187.504C49.3625 187.636 49.2604 187.727 49.1386 187.727Z" fill="black"/>
    <path d="M250.55 214.803H222.549C222.426 214.803 222.325 214.701 222.325 214.579C222.325 214.457 222.426 214.355 222.549 214.355H250.55C250.672 214.355 250.774 214.457 250.774 214.579C250.774 214.701 250.672 214.803 250.55 214.803Z" fill="black"/>
    <path d="M279.151 220.002H232.948C232.825 220.002 232.724 219.901 232.724 219.778C232.724 219.656 232.825 219.554 232.948 219.554H279.151C279.274 219.554 279.375 219.656 279.375 219.778C279.375 219.901 279.274 220.002 279.151 220.002Z" fill="black"/>
    <path d="M278.205 91.7174L214.622 214.731C212.842 218.18 208.558 219.544 205.119 217.763L142.391 185.337C138.942 183.556 137.578 179.272 139.359 175.833L202.942 52.8185C204.722 49.3696 209.006 48.006 212.445 49.7866L275.173 82.2039C278.623 83.9846 279.985 88.2684 278.205 91.7174Z" fill="white"/>
    <path d="M208.335 218.771C207.205 218.771 206.065 218.507 205.007 217.957L142.29 185.54C140.57 184.655 139.298 183.139 138.708 181.277C138.117 179.415 138.281 177.451 139.166 175.731L202.748 52.7174C203.634 50.998 205.15 49.7256 207.012 49.1358C208.873 48.5459 210.837 48.7085 212.557 49.5937L275.275 82.011C276.994 82.8962 278.266 84.4121 278.857 86.2744C279.447 88.136 279.284 90.0996 278.399 91.8197L214.815 214.834C213.523 217.326 210.98 218.771 208.335 218.771ZM209.23 49.2276C206.757 49.2276 204.367 50.5708 203.145 52.9209L139.563 175.935C138.728 177.553 138.575 179.394 139.135 181.145C139.695 182.885 140.885 184.309 142.503 185.144L205.221 217.56C208.569 219.29 212.699 217.977 214.429 214.63L278.012 91.6155C278.847 89.9983 278.999 88.1564 278.439 86.4064C277.88 84.6666 276.689 83.2418 275.072 82.4076L212.354 49.9903C211.356 49.4719 210.288 49.2276 209.23 49.2276Z" fill="black"/>
    <path d="M272.202 95.747L214.48 207.416C212.699 210.865 208.416 212.228 204.977 210.448L148.608 181.318C145.159 179.537 143.795 175.253 145.576 171.814L203.298 60.1447C205.078 56.6957 209.362 55.3322 212.801 57.1128L269.17 86.2438C272.619 88.0142 273.983 92.2973 272.202 95.747Z" fill="#E2EAFF"/>
    <path d="M206.381 85.9891L219.68 60.267L216.586 58.6592L203.287 84.3813L193.143 79.1108L189.663 85.8462L199.808 91.1173L173.587 141.849L163.432 136.609L161.235 140.852L169.598 145.176C170.748 145.766 171.593 146.824 172.01 148.188L177.464 165.882L154.459 153.967L150.978 160.703L163.758 167.327L154.743 184.777L159.597 187.29L167.971 171.092C168.316 170.42 169.039 170.064 169.538 170.328L192.604 182.264C193.601 182.782 194.792 182.884 196.043 182.569L200.144 181.531L195.148 191.207C194.486 192.499 194.71 193.893 195.677 194.382L204.172 198.767L199.431 207.935L202.504 209.573L207.256 200.375L215.945 204.862L218.143 200.619L209.454 196.132L219.527 176.647L232.194 173.452L235.674 166.717L223.006 169.911L246.043 125.355L250.153 138.705L253.633 131.969L249.929 119.922C249.675 119.098 249.807 118.08 250.285 117.144L266.992 84.8188L263.909 83.2007L248.057 113.858L246.307 108.16C245.971 107.061 245.289 106.217 244.374 105.739L206.381 85.9891ZM202.901 92.7346L219.74 101.485L193.54 152.166L176.681 143.457L202.901 92.7346ZM199.757 175.772C198.353 176.128 197.01 176.006 195.891 175.426L185.624 170.104C184.607 169.576 183.853 168.639 183.477 167.418L177.983 149.5L206.442 164.203C207.612 164.803 207.887 166.503 207.083 168.06L203.603 174.785L199.757 175.772ZM206.34 194.524L200.144 191.33C199.625 191.065 199.503 190.312 199.859 189.62L204.63 180.391L214.989 177.777L206.34 194.524ZM216.078 171.641L208.121 173.645L211.692 166.737C212.893 164.417 212.465 161.903 210.725 161.018V161.028L196.643 153.753L222.833 103.083L240.467 112.24C241.647 112.851 242.512 113.939 242.95 115.343L244.567 120.594L219.822 168.467C218.988 170.064 217.563 171.264 216.078 171.641Z" fill="white"/>
    <path d="M270.426 60.7687C270.635 60.978 270.834 61.1974 271.022 61.4264C271.21 61.6554 271.386 61.8931 271.55 62.1395C271.715 62.3853 271.868 62.639 272.007 62.9008C272.147 63.1618 272.273 63.4294 272.387 63.7029C272.5 63.977 272.6 64.2556 272.686 64.5385C272.772 64.8221 272.843 65.1094 272.902 65.3996C272.959 65.6906 273.003 65.983 273.031 66.2783C273.061 66.5729 273.075 66.8682 273.075 67.1649C273.075 67.461 273.061 67.7563 273.031 68.0509C273.003 68.3462 272.959 68.6386 272.902 68.9295C272.844 69.2197 272.772 69.507 272.686 69.7907C272.6 70.0736 272.5 70.3521 272.387 70.6263C272.273 70.8997 272.147 71.1673 272.007 71.4284C271.868 71.6902 271.715 71.9439 271.551 72.1904C271.386 72.4361 271.21 72.6738 271.022 72.9028C270.834 73.1317 270.635 73.3512 270.426 73.5605C270.217 73.7705 269.997 73.9688 269.768 74.1569C269.539 74.345 269.302 74.5208 269.055 74.6856C268.809 74.8504 268.555 75.0028 268.294 75.142C268.033 75.282 267.765 75.4082 267.491 75.5219C267.218 75.6349 266.939 75.7348 266.656 75.8209C266.372 75.9069 266.085 75.9784 265.794 76.0367C265.504 76.0943 265.211 76.1373 264.916 76.1665C264.622 76.1957 264.326 76.2103 264.03 76.2103C263.734 76.2103 263.438 76.1957 263.143 76.1665C262.849 76.1373 262.555 76.0943 262.265 76.0367C261.975 75.9784 261.688 75.9069 261.404 75.8209C261.12 75.7348 260.842 75.6349 260.568 75.5219C260.294 75.4082 260.027 75.282 259.766 75.142C259.505 75.0028 259.251 74.8504 259.004 74.6856C258.758 74.5215 258.52 74.345 258.291 74.1569C258.062 73.9688 257.844 73.7705 257.634 73.5612C257.424 73.3512 257.225 73.1324 257.038 72.9035C256.85 72.6745 256.673 72.4368 256.508 72.1904C256.344 71.9439 256.192 71.6902 256.053 71.4291C255.913 71.1673 255.787 70.9005 255.673 70.6263C255.56 70.3529 255.46 70.0743 255.374 69.7907C255.288 69.507 255.216 69.2205 255.158 68.9295C255.1 68.6393 255.057 68.3462 255.028 68.0516C254.999 67.757 254.984 67.461 254.984 67.1649C254.984 66.8689 254.999 66.5729 255.028 66.2783C255.057 65.9837 255.1 65.6906 255.158 65.4004C255.216 65.1094 255.288 64.8229 255.374 64.5392C255.46 64.2556 255.559 63.977 255.673 63.7036C255.786 63.4294 255.913 63.1618 256.052 62.9008C256.192 62.6397 256.344 62.386 256.508 62.1395C256.673 61.8931 256.85 61.6554 257.037 61.4264C257.225 61.1974 257.424 60.978 257.634 60.7687C257.843 60.5594 258.062 60.3604 258.291 60.173C258.52 59.9848 258.758 59.8084 259.004 59.6436C259.251 59.4795 259.505 59.3271 259.766 59.1871C260.027 59.0479 260.294 58.921 260.568 58.808C260.842 58.6942 261.12 58.595 261.404 58.509C261.687 58.423 261.974 58.3508 262.265 58.2932C262.555 58.2356 262.848 58.1918 263.143 58.1626C263.438 58.1335 263.733 58.1196 264.03 58.1196C264.326 58.1196 264.621 58.1335 264.916 58.1626C265.211 58.1918 265.503 58.2356 265.794 58.2932C266.085 58.3508 266.372 58.423 266.656 58.509C266.939 58.595 267.218 58.6942 267.491 58.808C267.765 58.921 268.032 59.0479 268.294 59.1871C268.555 59.3271 268.809 59.4788 269.055 59.6436C269.302 59.8084 269.539 59.9841 269.768 60.1722C269.997 60.3604 270.216 60.5587 270.426 60.7687Z" fill="white"/>
    <path d="M264.306 51.1094C256.136 51.1094 249.522 57.7331 249.522 65.894C249.522 80.1382 264.306 95.1263 264.306 95.1263C264.306 95.1263 279.09 79.996 279.09 65.894C279.09 57.7331 272.466 51.1094 264.306 51.1094ZM264.306 73.128C260.501 73.128 257.418 70.0451 257.418 66.2396C257.418 62.4341 260.501 59.3511 264.306 59.3511C268.112 59.3511 271.195 62.4341 271.195 66.2396C271.195 70.0451 268.112 73.128 264.306 73.128Z" fill="#5479F7"/>
    <path d="M200.642 94.5867C200.642 94.7347 200.635 94.8828 200.62 95.0308C200.606 95.1781 200.584 95.3246 200.555 95.4697C200.526 95.6156 200.49 95.7592 200.447 95.9014C200.404 96.0429 200.355 96.1821 200.298 96.3192C200.241 96.4563 200.177 96.5905 200.107 96.721C200.037 96.8522 199.962 96.9791 199.879 97.1023C199.797 97.2256 199.709 97.3444 199.615 97.4589C199.52 97.5741 199.421 97.6835 199.316 97.7885C199.211 97.8935 199.101 97.9927 198.987 98.0867C198.872 98.1808 198.753 98.269 198.63 98.3514C198.507 98.4338 198.379 98.5104 198.249 98.5796C198.118 98.6496 197.984 98.7131 197.847 98.7699C197.71 98.8268 197.571 98.8764 197.429 98.9194C197.287 98.9624 197.143 98.9989 196.998 99.0273C196.852 99.0565 196.706 99.0784 196.558 99.093C196.411 99.1076 196.263 99.1148 196.115 99.1148C195.966 99.1148 195.819 99.1076 195.67 99.093C195.523 99.0784 195.377 99.0565 195.231 99.0273C195.086 98.9989 194.942 98.9624 194.8 98.9194C194.658 98.8764 194.518 98.8268 194.381 98.7699C194.245 98.7131 194.111 98.6496 193.98 98.5796C193.849 98.5104 193.722 98.4338 193.599 98.3514C193.476 98.269 193.357 98.1808 193.242 98.0867C193.127 97.9927 193.018 97.8935 192.913 97.7885C192.808 97.6835 192.709 97.5741 192.615 97.4589C192.52 97.3444 192.432 97.2256 192.35 97.1023C192.267 96.9791 192.191 96.8522 192.121 96.721C192.052 96.5905 191.988 96.4563 191.931 96.3192C191.874 96.1821 191.825 96.0429 191.782 95.9014C191.739 95.7592 191.702 95.6156 191.674 95.4697C191.645 95.3246 191.623 95.1781 191.608 95.0308C191.594 94.8828 191.586 94.7347 191.586 94.5867C191.586 94.4387 191.594 94.2907 191.608 94.1427C191.623 93.9954 191.645 93.8488 191.674 93.7037C191.702 93.5579 191.739 93.4142 191.782 93.2728C191.825 93.1306 191.874 92.9913 191.931 92.8542C191.988 92.7171 192.052 92.583 192.121 92.4524C192.191 92.3219 192.267 92.1943 192.35 92.0711C192.432 91.9479 192.52 91.829 192.615 91.7145C192.709 91.6001 192.808 91.4899 192.913 91.3849C193.018 91.2799 193.127 91.1808 193.242 91.0867C193.357 90.9927 193.476 90.9044 193.599 90.822C193.722 90.7396 193.849 90.6638 193.98 90.5938C194.111 90.5238 194.245 90.4604 194.381 90.4035C194.518 90.3466 194.658 90.297 194.8 90.254C194.942 90.211 195.086 90.1745 195.231 90.1461C195.377 90.1169 195.523 90.0951 195.67 90.0805C195.819 90.0659 195.966 90.0586 196.115 90.0586C196.263 90.0586 196.411 90.0659 196.558 90.0805C196.706 90.0951 196.852 90.1169 196.998 90.1461C197.143 90.1745 197.287 90.211 197.429 90.254C197.571 90.297 197.71 90.3466 197.847 90.4035C197.984 90.4604 198.118 90.5238 198.249 90.5938C198.379 90.6638 198.507 90.7396 198.63 90.822C198.753 90.9044 198.872 90.9927 198.987 91.0867C199.101 91.1808 199.211 91.2799 199.316 91.3849C199.421 91.4899 199.52 91.6001 199.615 91.7145C199.709 91.829 199.797 91.9479 199.879 92.0711C199.962 92.1943 200.037 92.3219 200.107 92.4524C200.177 92.583 200.241 92.7171 200.298 92.8542C200.355 92.9913 200.404 93.1306 200.447 93.2728C200.49 93.4142 200.526 93.5579 200.555 93.7037C200.584 93.8488 200.606 93.9954 200.62 94.1427C200.635 94.2907 200.642 94.4387 200.642 94.5867Z" fill="white"/>
    <path d="M196.257 86.5586C192.177 86.5586 188.86 89.8654 188.86 93.956C188.86 101.078 196.257 108.577 196.257 108.577C196.257 108.577 203.654 101.007 203.654 93.956C203.644 89.8654 200.337 86.5586 196.257 86.5586ZM196.257 97.5683C194.354 97.5683 192.808 96.0217 192.808 94.1186C192.808 92.2162 194.354 90.6696 196.257 90.6696C198.16 90.6696 199.706 92.2162 199.706 94.1186C199.696 96.0217 198.16 97.5683 196.257 97.5683Z" fill="#5479F7"/>
    <path d="M237.422 130.038C237.623 130.086 237.821 130.143 238.017 130.21C238.212 130.277 238.404 130.353 238.592 130.439C238.779 130.525 238.963 130.62 239.142 130.724C239.32 130.827 239.493 130.94 239.661 131.061C239.829 131.182 239.99 131.31 240.144 131.447C240.3 131.583 240.448 131.728 240.588 131.879C240.729 132.03 240.862 132.188 240.987 132.352C241.113 132.516 241.23 132.686 241.339 132.862C241.447 133.037 241.547 133.218 241.638 133.404C241.729 133.589 241.81 133.779 241.882 133.973C241.954 134.166 242.017 134.363 242.07 134.563C242.123 134.763 242.166 134.964 242.199 135.168C242.232 135.372 242.255 135.577 242.268 135.783C242.281 135.989 242.284 136.195 242.277 136.402C242.269 136.609 242.252 136.814 242.224 137.019C242.196 137.224 242.159 137.427 242.112 137.627C242.064 137.829 242.007 138.027 241.94 138.222C241.873 138.418 241.797 138.61 241.711 138.798C241.625 138.986 241.531 139.169 241.426 139.348C241.323 139.526 241.21 139.7 241.089 139.867C240.968 140.034 240.84 140.196 240.703 140.351C240.567 140.506 240.423 140.654 240.271 140.794C240.12 140.935 239.963 141.068 239.798 141.194C239.634 141.319 239.464 141.436 239.288 141.545C239.113 141.653 238.932 141.753 238.747 141.844C238.561 141.935 238.371 142.016 238.178 142.089C237.984 142.161 237.787 142.223 237.588 142.276C237.388 142.329 237.186 142.372 236.982 142.405C236.778 142.439 236.573 142.461 236.367 142.474C236.161 142.487 235.955 142.49 235.748 142.482C235.541 142.475 235.336 142.457 235.131 142.431C234.927 142.403 234.723 142.365 234.523 142.317C234.321 142.27 234.123 142.213 233.928 142.146C233.732 142.079 233.54 142.002 233.352 141.917C233.164 141.831 232.981 141.736 232.802 141.633C232.624 141.529 232.451 141.416 232.283 141.295C232.116 141.175 231.954 141.046 231.799 140.909C231.645 140.772 231.497 140.629 231.356 140.478C231.215 140.326 231.082 140.169 230.956 140.005C230.832 139.84 230.714 139.67 230.605 139.494C230.497 139.318 230.397 139.138 230.307 138.952C230.215 138.766 230.134 138.578 230.062 138.384C229.989 138.19 229.927 137.994 229.874 137.794C229.821 137.594 229.778 137.392 229.745 137.189C229.712 136.984 229.689 136.779 229.676 136.573C229.663 136.367 229.66 136.16 229.668 135.954C229.675 135.748 229.693 135.542 229.72 135.337C229.747 135.132 229.785 134.93 229.833 134.728C229.88 134.527 229.938 134.329 230.004 134.133C230.071 133.938 230.148 133.746 230.234 133.559C230.319 133.371 230.414 133.187 230.518 133.008C230.622 132.83 230.734 132.657 230.855 132.489C230.975 132.321 231.104 132.16 231.241 132.006C231.378 131.85 231.521 131.702 231.673 131.562C231.824 131.421 231.981 131.288 232.145 131.163C232.31 131.037 232.48 130.921 232.656 130.812C232.832 130.703 233.012 130.603 233.198 130.512C233.384 130.422 233.573 130.34 233.766 130.268C233.96 130.196 234.157 130.133 234.356 130.08C234.556 130.027 234.758 129.984 234.962 129.951C235.166 129.918 235.371 129.895 235.577 129.882C235.783 129.869 235.99 129.866 236.196 129.874C236.402 129.881 236.608 129.898 236.813 129.926C237.018 129.954 237.22 129.991 237.422 130.038Z" fill="white"/>
    <path d="M236.152 124.959C230.455 124.959 225.835 129.578 225.835 135.276C225.835 145.207 236.152 155.677 236.152 155.677C236.152 155.677 246.47 145.115 246.47 135.276C246.47 129.578 241.851 124.959 236.152 124.959ZM236.152 140.313C233.497 140.313 231.35 138.166 231.35 135.51C231.35 132.854 233.497 130.708 236.152 130.708C238.808 130.708 240.955 132.854 240.955 135.51C240.955 138.166 238.808 140.313 236.152 140.313Z" fill="#5479F7"/>
    <path d="M161.551 228.814L145.586 163.318L90.4181 164.02L82.8479 228.814H161.551Z" fill="white"/>
    <mask id="mask1_189_205" style="mask-type:luminance" maskUnits="userSpaceOnUse" x="82" y="162" width="80" height="68">
        <path d="M82.5067 162.96H161.84V229.149H82.5067V162.96Z" fill="white"/>
    </mask>
    <g mask="url(#mask1_189_205)">
        <path d="M161.551 229.037C161.449 229.037 161.357 228.966 161.337 228.864L145.413 163.532L90.6216 164.234L83.0718 228.844C83.0616 228.966 82.9493 229.058 82.8276 229.037C82.7051 229.028 82.6139 228.915 82.6343 228.794L90.2045 164C90.2148 163.888 90.3161 163.807 90.4284 163.807L145.596 163.104C145.708 163.104 145.79 163.176 145.82 163.277L161.795 228.783C161.825 228.905 161.754 229.028 161.632 229.058C161.591 229.037 161.571 229.037 161.551 229.037Z" fill="black"/>
    </g>
    <mask id="mask2_189_205" style="mask-type:luminance" maskUnits="userSpaceOnUse" x="121" y="206" width="8" height="24">
        <path d="M121.707 206.267H128.987V229.149H121.707V206.267Z" fill="white"/>
    </mask>
    <g mask="url(#mask2_189_205)">
        <path d="M122.092 229.149C122.082 229.149 122.082 229.149 122.072 229.149C121.95 229.139 121.858 229.037 121.869 228.905C121.92 228.203 123.11 211.638 124.056 209.746C125.023 207.812 128.482 206.409 128.635 206.358C128.747 206.317 128.879 206.368 128.93 206.479C128.981 206.592 128.92 206.724 128.807 206.775C128.777 206.785 125.358 208.169 124.463 209.95C123.74 211.404 122.744 223.014 122.316 228.946C122.306 229.057 122.204 229.149 122.092 229.149Z" fill="black"/>
    </g>
    <path d="M75.471 133.77L61.145 168.914L65.7439 170.349L81.0775 136.049L75.471 133.77Z" fill="white"/>
    <path d="M65.7438 170.572C65.7234 170.572 65.703 170.572 65.6724 170.562L61.0735 169.138C61.0123 169.118 60.962 169.077 60.9415 169.016C60.9109 168.955 60.9109 168.894 60.9415 168.833L75.2675 133.689C75.3185 133.577 75.4403 133.515 75.5628 133.567L81.1686 135.846C81.2299 135.866 81.2707 135.917 81.2911 135.968C81.3115 136.029 81.3115 136.09 81.2911 136.141L65.9473 170.44C65.9167 170.521 65.8357 170.572 65.7438 170.572ZM61.4498 168.771L65.6221 170.074L80.772 136.171L75.5934 134.065L61.4498 168.771Z" fill="black"/>
    <path d="M87.2841 224.276L50.9702 210.814C47.6831 209.593 45.9841 205.971 47.1442 202.664L58.5805 170.044C59.7712 166.655 63.5053 164.895 66.8733 166.146L103.187 179.608C106.474 180.829 108.173 184.451 107.013 187.758L95.5864 220.379C94.3964 223.767 90.6521 225.517 87.2841 224.276Z" fill="white"/>
    <path d="M89.5227 224.896C88.7389 224.896 87.966 224.754 87.2025 224.479L50.8886 211.018C47.5103 209.766 45.7297 205.981 46.9306 202.583L58.3669 169.962C58.9575 168.263 60.1883 166.91 61.8166 166.146C63.4441 165.384 65.2655 165.302 66.955 165.933L103.269 179.394C106.646 180.646 108.427 184.431 107.227 187.829L95.7899 220.45C95.2 222.149 93.9692 223.502 92.341 224.265C91.4455 224.693 90.4889 224.896 89.5227 224.896ZM64.6348 165.974C63.7394 165.974 62.844 166.167 61.9996 166.564C60.4837 167.276 59.344 168.537 58.784 170.125L47.3579 202.735C46.2489 205.9 47.907 209.431 51.0512 210.601L87.3651 224.062C88.9423 224.642 90.642 224.571 92.1579 223.859C93.6739 223.146 94.8136 221.885 95.3728 220.297L106.81 187.677C107.919 184.512 106.26 180.981 103.116 179.812L66.7917 166.36C66.0895 166.095 65.3676 165.974 64.6348 165.974Z" fill="black"/>
    <path d="M86.6228 217.011C86.6024 217.011 86.5718 217.011 86.5514 217.001C86.4398 216.96 86.3683 216.828 86.4194 216.716L97.8556 184.095C97.8965 183.983 98.0284 183.912 98.1407 183.963C98.2523 184.004 98.3237 184.136 98.2727 184.248L86.8365 216.868C86.7956 216.96 86.714 217.011 86.6228 217.011Z" fill="black"/>
    <path d="M88.4238 201.158C87.7829 201.158 87.1412 201.047 86.5309 200.813L56.9931 189.864C54.2259 188.837 52.7712 185.734 53.7476 182.955C53.7884 182.844 53.9204 182.772 54.0327 182.823C54.1442 182.864 54.2157 182.996 54.1647 183.109C53.2692 185.662 54.6022 188.511 57.1462 189.447L86.684 200.396C87.9557 200.864 89.3294 200.813 90.5501 200.232C91.7714 199.653 92.6967 198.635 93.1444 197.363C93.1853 197.251 93.318 197.19 93.4295 197.231C93.5418 197.272 93.6126 197.404 93.5623 197.516C93.0737 198.91 92.066 200.019 90.7331 200.65C90.001 200.986 89.2172 201.158 88.4238 201.158Z" fill="black"/>
    <path d="M80.9148 200.874L76.0411 199.063C75.6036 198.899 75.3695 198.411 75.5219 197.964L77.0583 193.578C77.2209 193.121 77.7196 192.887 78.1775 193.059L83.0513 194.871C83.4888 195.033 83.7229 195.522 83.5705 195.969L82.0341 200.355C81.8708 200.813 81.3626 201.047 80.9148 200.874Z" fill="white"/>
    <path d="M81.2197 201.158C81.0877 201.158 80.9652 201.138 80.8434 201.088L75.9697 199.276C75.4199 199.073 75.1253 198.452 75.3185 197.892L76.8549 193.507C76.9562 193.232 77.1502 193.008 77.4141 192.887C77.6788 192.764 77.9843 192.744 78.2592 192.856L83.133 194.667C83.6821 194.871 83.9774 195.491 83.7841 196.05L82.2478 200.436C82.1457 200.711 81.9525 200.934 81.6878 201.057C81.5252 201.117 81.3721 201.158 81.2197 201.158ZM80.9958 200.67C81.1584 200.731 81.3319 200.721 81.4946 200.65C81.6469 200.579 81.7694 200.446 81.83 200.283L83.3663 195.898C83.4786 195.572 83.3058 195.206 82.9901 195.084L78.1163 193.273C77.9537 193.212 77.7809 193.222 77.6176 193.293C77.4652 193.364 77.3434 193.497 77.2822 193.66L75.7458 198.045C75.6335 198.371 75.8071 198.737 76.1221 198.859L80.9958 200.67Z" fill="black"/>
    <path d="M64.6348 195.888L59.7611 194.076C59.3236 193.914 59.0895 193.425 59.2419 192.977L60.7783 188.592C60.9416 188.134 61.4396 187.9 61.8975 188.073L66.7713 189.884C67.2088 190.047 67.4428 190.535 67.2904 190.983L65.7541 195.368C65.5915 195.816 65.0927 196.05 64.6348 195.888Z" fill="white"/>
    <path d="M64.9403 196.162C64.8076 196.162 64.6858 196.142 64.5633 196.091L59.6896 194.28C59.1405 194.076 58.8452 193.456 59.0384 192.896L60.5748 188.511C60.6768 188.236 60.8701 188.012 61.1348 187.89C61.3994 187.768 61.694 187.748 61.9791 187.859L66.8529 189.671C67.4019 189.874 67.6973 190.495 67.504 191.055L65.9677 195.44C65.8656 195.715 65.6724 195.939 65.4077 196.06C65.2553 196.132 65.0927 196.162 64.9403 196.162ZM64.7164 195.674C64.879 195.735 65.0518 195.725 65.2144 195.653C65.3676 195.582 65.4893 195.45 65.5506 195.287L67.0869 190.902C67.1985 190.576 67.0257 190.21 66.7107 190.088L61.8369 188.276C61.6736 188.216 61.5008 188.226 61.3382 188.297C61.1858 188.368 61.0633 188.5 61.0021 188.664L59.4657 193.049C59.3541 193.374 59.5269 193.741 59.8427 193.863L64.7164 195.674Z" fill="black"/>
    <path d="M157.002 160.194C157.002 160.194 176.507 171.499 183.711 172.893C195.392 175.162 206.31 173.228 209.698 167.032C213.025 160.958 209.342 149.551 194.903 142.338C191.352 136.09 182.266 130.26 173.516 121.947C161.988 111.009 146.024 100.61 128.268 102.808L104.479 101.354C100.776 102.574 79.8561 107.458 74.8606 121.479C65.6825 147.262 68.6641 184.39 89.6036 186.069C100.654 186.954 108.102 182.233 108.102 182.233C120.302 183.861 151.314 187.555 153.278 184.482C154.591 182.437 156.188 164.773 156.371 162.83L157.002 160.194Z" fill="#5479F7"/>
    <path d="M106.443 151.231C106.433 151.231 106.412 151.231 106.403 151.231C106.28 151.21 106.199 151.098 106.219 150.976C109.882 129.965 107.003 118.345 103.961 112.291C100.664 105.759 96.4614 104.162 96.4213 104.141C96.309 104.1 96.2477 103.968 96.2886 103.856C96.3294 103.745 96.4614 103.683 96.5737 103.724C96.7465 103.785 100.959 105.382 104.337 112.047C107.43 118.152 110.351 129.874 106.667 151.057C106.646 151.149 106.545 151.231 106.443 151.231Z" fill="white"/>
    <path d="M110.92 148.992C110.91 148.992 110.89 148.992 110.879 148.992C110.758 148.972 110.676 148.859 110.696 148.738C114.36 127.727 111.48 116.107 108.437 110.052C105.141 103.52 100.939 101.923 100.898 101.902C100.786 101.862 100.725 101.73 100.766 101.617C100.807 101.506 100.939 101.445 101.051 101.485C101.224 101.547 105.436 103.143 108.814 109.808C111.907 115.913 114.828 127.635 111.144 148.818C111.124 148.91 111.032 148.992 110.92 148.992Z" fill="white"/>
    <path d="M103.9 101.302L104.428 97.6698L133.224 96.3267L133.895 103.256C134.089 104.864 133.508 106.461 132.328 107.57L127.088 112.515L103.9 101.302Z" fill="white"/>
    <path d="M133.895 103.48C133.783 103.48 133.681 103.398 133.672 103.276L133.02 96.998L104.622 97.8832L104.123 101.333C104.103 101.455 103.991 101.536 103.869 101.526C103.747 101.506 103.666 101.393 103.676 101.272L104.204 97.6389C104.225 97.5274 104.307 97.4457 104.418 97.4457L133.214 96.5503C133.335 96.5503 133.427 96.632 133.448 96.7537L134.119 103.235C134.129 103.358 134.038 103.469 133.915 103.48C133.905 103.48 133.895 103.48 133.895 103.48Z" fill="black"/>
    <path d="M122.754 110.795C122.703 110.795 122.652 110.775 122.611 110.744C122.52 110.663 122.509 110.52 122.591 110.429L127.342 104.874C127.393 104.812 127.474 104.782 127.556 104.802L132.928 105.799C133.05 105.819 133.132 105.942 133.112 106.064C133.091 106.186 132.969 106.267 132.847 106.247L127.607 105.27L122.937 110.724C122.886 110.765 122.824 110.795 122.754 110.795Z" fill="black"/>
    <path d="M90.6114 157.641C90.5195 157.641 90.4385 157.579 90.3977 157.487C90.3569 157.376 90.4181 157.243 90.5297 157.203C96.5227 155.035 107.878 150.151 116.17 146.59C118.145 145.746 119.915 144.983 121.349 144.372C121.462 144.322 121.594 144.372 121.645 144.494C121.696 144.606 121.645 144.739 121.522 144.79C120.088 145.4 118.317 146.163 116.344 147.008C108.051 150.568 96.6853 155.452 90.6828 157.63C90.6624 157.641 90.6318 157.641 90.6114 157.641Z" fill="black"/>
    <path d="M109.099 181.632C109.007 181.632 108.916 181.572 108.885 181.48C108.845 181.358 108.916 181.236 109.028 181.195C113.983 179.648 124.036 172.984 129.439 169.403L130.466 168.721C130.568 168.65 130.71 168.68 130.782 168.782C130.853 168.884 130.822 169.026 130.721 169.097L129.692 169.779C124.27 173.371 114.186 180.055 109.17 181.622C109.15 181.632 109.129 181.632 109.099 181.632Z" fill="black"/>
    <path d="M131.433 168.253C131.433 168.253 139.501 158.546 143.388 154.242C143.388 154.242 154.387 153.215 157.765 152.441C157.765 152.441 161.388 155.097 162.873 152.665C164.359 150.233 162.802 148.972 162.802 148.972C162.802 148.972 165.905 145.909 162.354 143.721C162.354 143.721 166.119 141.422 162.069 139.539C162.069 139.539 164.084 138.349 166.994 137.902C170.504 137.362 175.063 137.433 175.724 135.826C176.141 134.798 175.367 133.536 171.908 132.732C166.515 131.481 157.236 131.603 152.515 132.305C150.551 132.6 145.189 134.157 139.135 136.029C128.34 139.377 122.418 143.874 122.418 143.874C122.418 143.874 118.358 156.196 131.433 168.253Z" fill="white"/>
    <path d="M143.154 154.527C143.144 154.527 143.134 154.527 143.124 154.527C141.668 154.303 140.316 153.601 139.298 152.533C139.217 152.441 139.217 152.299 139.308 152.217C139.4 152.136 139.542 152.136 139.624 152.227C140.569 153.215 141.842 153.876 143.195 154.09C143.317 154.11 143.399 154.222 143.378 154.344C143.358 154.446 143.256 154.527 143.154 154.527Z" fill="black"/>
    <path d="M157.002 152.726C156.901 152.726 156.809 152.655 156.788 152.553C156.758 152.431 156.839 152.309 156.961 152.289L159.597 151.688C159.719 151.658 159.841 151.739 159.861 151.861C159.892 151.983 159.811 152.106 159.688 152.125L157.053 152.726C157.033 152.716 157.022 152.726 157.002 152.726Z" fill="black"/>
    <path d="M162.832 149.256C162.781 149.256 162.73 149.236 162.69 149.206C161.978 148.625 161.042 148.321 160.126 148.361C160.004 148.361 159.902 148.269 159.892 148.147C159.881 148.025 159.984 147.923 160.105 147.913C161.133 147.863 162.171 148.218 162.964 148.859C163.056 148.941 163.077 149.083 162.995 149.175C162.964 149.226 162.904 149.256 162.832 149.256Z" fill="black"/>
    <path d="M162.537 144.139C162.506 144.139 162.487 144.139 162.456 144.129C161.591 143.813 160.686 143.64 159.77 143.62C159.647 143.62 159.546 143.518 159.546 143.396C159.546 143.273 159.658 143.182 159.77 143.172C160.736 143.192 161.693 143.375 162.609 143.701C162.72 143.741 162.781 143.874 162.74 143.986C162.72 144.088 162.629 144.139 162.537 144.139Z" fill="black"/>
    <path d="M162.547 139.976C162.527 139.976 162.517 139.976 162.496 139.966L159.475 139.274C159.353 139.244 159.281 139.122 159.302 139.01C159.332 138.888 159.454 138.817 159.566 138.837L162.588 139.529C162.711 139.559 162.781 139.682 162.761 139.793C162.741 139.906 162.649 139.976 162.547 139.976Z" fill="black"/>
    <path d="M173.841 163.827H192.981C193.51 163.827 193.998 163.501 194.191 163.012L208.161 128.367C208.507 127.513 207.877 126.577 206.951 126.577H188.809C187.669 126.577 186.652 127.269 186.224 128.316L172.631 162.036C172.285 162.891 172.915 163.827 173.841 163.827Z" fill="black"/>
    <path d="M193.683 163.939C193.683 163.939 198.637 162.443 201.436 158.272C204.234 154.1 208.141 142.368 207.103 138.858C206.065 135.337 203.745 133.414 200.917 131.634C197.926 129.741 194.659 131.369 197.528 135.867C197.528 135.867 194.079 134.106 192.644 135.541C191.21 136.976 193.428 139.316 196.287 141.86C199.157 144.403 199.808 146.356 199.808 146.356C199.808 146.356 193.622 139.977 191.535 141.208C189.45 142.45 191.342 145.512 192.777 147.008C194.211 148.504 195.514 150.203 195.514 150.203C195.514 150.203 191.535 146.428 189.785 147.537C188.025 148.646 189.725 152.614 192.003 155.423C194.283 158.221 195.341 159.554 195.341 159.554L193.683 163.939Z" fill="white"/>
    <path d="M195.331 159.757C195.27 159.757 195.199 159.726 195.158 159.675C195.148 159.665 194.069 158.312 191.82 155.544C190.183 153.529 188.555 150.498 188.87 148.615C188.961 148.035 189.236 147.608 189.664 147.333C190.762 146.641 192.563 147.618 193.907 148.584C193.51 148.127 193.072 147.628 192.615 147.16C191.688 146.193 190.193 144.128 190.407 142.5C190.498 141.859 190.834 141.36 191.424 141.015C193.133 140.007 197.02 143.355 198.933 145.166C198.424 144.372 197.549 143.273 196.145 142.022C193.673 139.834 192.014 138.074 191.974 136.639C191.963 136.161 192.136 135.733 192.482 135.378C193.632 134.228 195.86 134.92 196.969 135.367C195.606 132.885 196.359 131.684 196.776 131.267C197.682 130.362 199.432 130.432 201.029 131.44C204.061 133.353 206.289 135.327 207.317 138.786C207.856 140.617 207.164 144.749 205.455 149.836C205.414 149.958 205.292 150.019 205.17 149.978C205.048 149.938 204.987 149.816 205.028 149.693C206.686 144.759 207.398 140.628 206.889 138.908C205.903 135.581 203.746 133.668 200.795 131.806C199.37 130.911 197.854 130.82 197.101 131.572C196.308 132.366 196.542 133.882 197.712 135.733C197.762 135.815 197.753 135.927 197.692 136.008C197.63 136.09 197.519 136.1 197.427 136.059C197.396 136.039 194.1 134.39 192.798 135.693C192.533 135.957 192.401 136.263 192.411 136.619C192.451 137.972 194.466 139.936 196.43 141.676C199.31 144.23 199.981 146.183 200.011 146.265C200.042 146.366 200.001 146.468 199.92 146.529C199.828 146.58 199.717 146.57 199.645 146.499C197.956 144.759 193.235 140.455 191.648 141.391C191.18 141.666 190.915 142.052 190.854 142.551C190.681 143.823 191.81 145.665 192.94 146.834C194.365 148.32 195.677 150.029 195.687 150.04C195.759 150.131 195.748 150.264 195.657 150.344C195.565 150.426 195.433 150.426 195.351 150.344C194.283 149.327 191.21 146.865 189.898 147.699C189.582 147.903 189.378 148.228 189.308 148.676C189.063 150.151 190.264 152.919 192.167 155.249C194.426 158.017 195.504 159.37 195.514 159.38C195.595 159.482 195.575 159.614 195.474 159.695C195.433 159.746 195.382 159.757 195.331 159.757Z" fill="black"/>
    <path d="M203.196 141.687C203.125 141.687 203.054 141.656 203.013 141.584C201.293 139.041 197.437 136.07 197.396 136.039C197.295 135.968 197.285 135.826 197.355 135.723C197.427 135.622 197.569 135.612 197.671 135.683C197.834 135.805 201.629 138.736 203.389 141.34C203.461 141.442 203.43 141.584 203.328 141.656C203.287 141.676 203.237 141.687 203.196 141.687Z" fill="black"/>
    <path d="M102.648 152.513C102.546 152.513 102.444 152.441 102.425 152.33L98.5578 132.122C98.5374 132 98.6191 131.888 98.7306 131.858C98.8531 131.837 98.9647 131.919 98.9953 132.03L102.862 152.238C102.882 152.36 102.801 152.472 102.689 152.503C102.678 152.503 102.668 152.513 102.648 152.513Z" fill="black"/>
    <path d="M117.86 85.2666L113.474 97.4459L127.515 105.016L130.517 96.2858C130.517 96.2858 122.052 85.8565 117.86 85.2666Z" fill="white"/>
    <path d="M127.515 105.24C127.474 105.24 127.444 105.229 127.414 105.209L113.372 97.6388C113.271 97.5885 113.23 97.466 113.271 97.3647L117.656 85.1847C117.697 85.0833 117.798 85.0221 117.9 85.0425C122.133 85.6426 130.344 95.716 130.69 96.1433C130.741 96.2046 130.751 96.2855 130.731 96.357L127.729 105.087C127.708 105.148 127.658 105.199 127.597 105.219C127.566 105.24 127.536 105.24 127.515 105.24ZM113.749 97.3443L127.383 104.7L130.252 96.3366C129.398 95.3092 121.899 86.3142 118.002 85.5208L113.749 97.3443Z" fill="black"/>
    <path d="M112.61 79.0803C111.592 76.2927 111.907 72.8941 113.943 70.7372C115.143 69.4546 116.791 68.7225 118.297 67.8169C120.953 66.2091 123.212 64.0318 125.592 62.0477C127.973 60.0534 130.578 58.2014 133.59 57.4285C137.161 56.5126 141.13 57.2855 144.091 59.473C147.061 61.6613 148.964 65.2225 149.147 68.9055C149.269 71.4693 148.496 74.2066 146.512 75.8348C144.284 77.6555 141.17 77.6964 138.351 78.2768C134.475 79.0701 130.965 80.9827 127.434 82.6722C125.695 83.5064 123.923 84.2997 122.082 84.8903C121.146 85.1849 120.189 85.4292 119.223 85.6027C118.022 85.8164 117.687 85.5415 116.771 84.7474C114.97 83.1906 113.423 81.3087 112.61 79.0803Z" fill="black"/>
    <path d="M124.992 79.2737C125.317 77.9 125.083 76.4657 124.86 75.0715C132.399 78.002 133.498 73.5147 137.874 73.1385C140.285 72.9351 142.34 74.9804 142.055 77.3815C141.872 78.9587 141.842 80.5658 141.852 82.1532C141.862 85.328 141.953 88.5735 141.017 91.6061C140.082 94.638 137.874 97.497 134.8 98.2605C133.02 98.698 131.127 98.4129 129.398 97.8222C126.06 96.6731 123.018 94.2107 121.949 90.8529C121.726 90.1405 120.485 87.6781 120.485 87.6781C120.485 87.6781 118.47 87.3733 116.628 84.6666C115.479 82.9771 115.489 81.1156 117.005 79.8031C117.656 79.2431 118.511 78.9689 119.365 79.0498C121.125 79.2227 121.309 80.6883 122.54 81.502C123.74 82.3464 124.758 80.2712 124.992 79.2737Z" fill="white"/>
    <path d="M132.959 98.7075C131.82 98.7075 130.598 98.4836 129.306 98.0366C125.572 96.754 122.733 94.0882 121.715 90.9243C121.522 90.3235 120.536 88.3394 120.312 87.8815C119.844 87.77 118.063 87.21 116.425 84.7986C115.143 82.9064 115.295 80.9829 116.842 79.6397C117.534 79.0396 118.45 78.7451 119.365 78.8362C120.556 78.9485 121.095 79.6303 121.614 80.2814C121.909 80.6577 122.214 81.0339 122.642 81.319C122.886 81.4816 123.12 81.5122 123.354 81.4204C124.036 81.1564 124.615 79.9453 124.789 79.2125C125.114 77.8599 124.86 76.3942 124.646 75.1021C124.636 75.0205 124.666 74.9395 124.728 74.8885C124.789 74.8375 124.87 74.8272 124.952 74.8579C129.744 76.7202 131.891 75.5192 133.966 74.3489C135.106 73.708 136.286 73.0466 137.864 72.9044C139.105 72.8024 140.306 73.2501 141.181 74.1455C142.025 75.0205 142.432 76.2112 142.29 77.4019C142.096 78.9886 142.076 80.6168 142.086 82.1532V82.886C142.096 85.8063 142.116 88.8382 141.241 91.6666C140.397 94.4039 138.281 97.6188 134.862 98.4741C134.241 98.6367 133.621 98.7075 132.959 98.7075ZM119.03 79.2737C118.328 79.2737 117.646 79.5282 117.117 79.9861C115.763 81.1666 115.631 82.8656 116.781 84.5543C118.552 87.1494 120.464 87.4746 120.485 87.4746C120.556 87.4849 120.617 87.5257 120.647 87.5971C120.698 87.6985 121.899 90.0792 122.133 90.8018C123.11 93.8337 125.837 96.388 129.449 97.629C131.413 98.3006 133.183 98.4537 134.719 98.0665C137.955 97.263 139.969 94.1801 140.783 91.5653C141.638 88.7974 141.628 85.8063 141.608 82.9166V82.1838C141.608 80.6372 141.628 78.9886 141.822 77.3815C141.943 76.3228 141.587 75.2647 140.834 74.4918C140.061 73.6978 138.983 73.2909 137.884 73.3828C136.398 73.5147 135.32 74.1251 134.17 74.766C132.064 75.9567 129.887 77.1781 125.145 75.4376C125.348 76.6793 125.521 78.0429 125.216 79.3452C125.032 80.1385 124.402 81.5122 123.517 81.8681C123.14 82.011 122.754 81.9702 122.387 81.7259C121.899 81.4007 121.573 80.9829 121.258 80.5862C120.76 79.9555 120.322 79.4064 119.325 79.3043C119.223 79.2737 119.131 79.2737 119.03 79.2737Z" fill="black"/>
    <path d="M120.871 86.3144H120.861C120.739 86.3042 120.647 86.2029 120.647 86.0804C120.708 84.87 119.752 83.6792 118.552 83.4758C118.429 83.4554 118.348 83.3438 118.369 83.2213C118.388 83.0995 118.5 83.0179 118.622 83.0383C120.037 83.2723 121.166 84.6767 121.095 86.1008C121.085 86.2233 120.983 86.3144 120.871 86.3144Z" fill="black"/>
</svg>
