<svg width="300" height="300" viewBox="0 0 300 300" fill="none" xmlns="http://www.w3.org/2000/svg">
    <path d="M299.656 159.397C298.673 179.03 291.727 200.27 281.434 219.266C275.869 229.544 269.325 239.167 262.215 247.523C224.815 291.476 156.602 314.091 94.95 288.145C83.4797 283.32 72.9726 277.119 63.5023 269.834C54.8445 263.173 47.0508 255.605 40.175 247.337C35.0164 241.137 30.3719 234.545 26.2625 227.651C7.55936 196.256 -0.0023613 158.635 5.65311 123.352C14.9031 65.6234 60.3781 8.91483 114.831 3.2992C120.737 2.68905 152.642 0.0124862 180.12 19.1344C202.835 34.9422 200.18 50.0914 224.81 74.6922C255.887 105.724 275.453 96.8398 289.774 118.104C294.055 124.455 296.849 131.661 298.368 139.416C299.612 145.764 300.005 152.482 299.656 159.397Z" fill="#CADDFF"/>
    <path d="M83.4961 279.523C37.3179 249.074 27.7547 228.903 28.6781 215.547C28.9531 211.559 30.4586 203.499 27.7375 192.982C24.2078 179.343 17 174.827 11.3508 165.266C0.29997 146.563 2.29606 120.542 11.5875 102.62C18.0781 90.1024 33.6789 70.8281 52.05 72.5742C59.8179 73.3141 70.1718 78.0094 71.6492 85.2711C73.7617 95.6617 54.6156 101.587 54.0851 117.738C53.7961 126.55 59.3742 127.315 58.9875 136.671C58.3797 151.409 44.2461 156.373 46.4578 165.126C48.6 173.602 62.5422 171.08 66.7515 181.016C71.5539 192.348 57.4593 203.418 63.1625 213.645C66.5586 219.734 64.0148 228.942 68.6945 235.538C74.389 243.567 77.3047 240.024 78.2351 256.827C78.7562 266.248 81.3343 273.824 83.4961 279.523Z" fill="#99B9FF"/>
    <path d="M45.6555 216.699C45.4492 216.699 45.2516 216.578 45.1641 216.376C37.0133 197.584 31.2891 178.867 28.6102 162.249C24.5469 137.043 27.4313 117.935 30.5664 106.345C33.9711 93.7563 38.2782 87.2376 38.4602 86.9665C38.625 86.7196 38.9571 86.654 39.2024 86.8188C39.4477 86.9829 39.5141 87.3157 39.35 87.561C39.3063 87.6267 34.9406 94.2431 31.5844 106.68C28.4867 118.161 25.6399 137.091 29.6672 162.078C32.3328 178.609 38.0313 197.238 46.1469 215.949C46.2641 216.221 46.1399 216.537 45.8688 216.655C45.8 216.684 45.7274 216.699 45.6555 216.699Z" fill="#CADDFF"/>
    <path d="M83.4961 279.524C79.5055 276.62 53.1203 257.118 48.0344 238.965C47.3266 236.439 46.2281 232.517 47.5008 227.999C50.0453 218.974 58.7453 219.311 60.9922 212.472C63.9547 203.451 50.4148 198.018 47.8344 179.193C47.2156 174.678 46.2523 167.646 50.0672 161.328C54.3273 154.272 60.1602 155.364 64.7875 149.06C70.5578 141.199 65.1039 134.573 67.6766 122.761C70.3859 110.32 81.4023 94.8869 96.182 93.7682C109.07 92.7924 119.932 103.071 124.88 111.709C132.194 124.476 130.245 140.037 124.388 150.424C115.968 165.358 99.9094 168.826 101.339 174.776C102.67 180.317 116.649 177.545 121.538 186.37C124.952 192.531 122.719 202.156 117.589 207.587C110.48 215.113 101 211.206 97.7039 217.162C94.2477 223.406 103.068 230.593 104.621 241.281C105.902 250.096 102.423 262.556 83.4961 279.524Z" fill="#99B9FF"/>
    <path d="M81.0633 276.969C80.8477 276.969 80.6445 276.837 80.5625 276.624C71.3578 252.555 68.8055 226.232 72.9766 198.384C76.518 174.734 84.2406 154.798 90.0945 142.241C90.2203 141.973 90.5383 141.856 90.8063 141.98C91.0742 142.106 91.1906 142.425 91.0656 142.691C78.6383 169.353 60.8789 222.156 81.5633 276.241C81.6688 276.518 81.5305 276.828 81.2539 276.933C81.1914 276.958 81.1266 276.969 81.0633 276.969Z" fill="#CADDFF"/>
    <path d="M97.8711 94.2384C97.3242 94.2384 96.775 94.2595 96.2227 94.3017C82.3484 95.3517 71.0789 109.653 68.2 122.876C67.1156 127.855 67.4844 131.939 67.8094 135.542C68.2539 140.467 68.6375 144.72 65.2195 149.377C62.9633 152.451 60.4273 153.823 57.9742 155.151C55.2617 156.619 52.6992 158.005 50.5258 161.604C46.8086 167.761 47.7445 174.597 48.3648 179.119C49.6789 188.702 53.8734 194.777 57.2445 199.656C60.4703 204.329 63.0187 208.018 61.5008 212.638C60.4094 215.961 57.9344 217.638 55.3148 219.413C52.3758 221.403 49.3367 223.462 48.0172 228.144C46.7836 232.517 47.8469 236.31 48.55 238.82C53.3375 255.907 77.7078 274.611 83.4609 278.835C98.7586 265.033 105.7 252.424 104.091 241.356C103.429 236.801 101.398 232.849 99.6055 229.363C97.2109 224.705 95.143 220.681 97.2352 216.902C98.9445 213.815 102.233 213.183 105.714 212.516C109.426 211.801 113.634 210.993 117.199 207.218C122.418 201.692 124.191 192.263 121.07 186.63C118.508 182.005 113.339 180.706 108.78 179.558C104.872 178.576 101.497 177.725 100.818 174.902C100.064 171.763 103.371 169.42 107.948 166.181C112.824 162.727 119.504 157.997 123.921 150.163C129.039 141.084 132.241 125.637 124.417 111.976C119.253 102.963 109.173 94.2384 97.8711 94.2384ZM83.5312 280.213L83.1805 279.956C76.0445 274.761 52.3797 256.463 47.5187 239.109C46.7828 236.482 45.6719 232.515 46.9859 227.853C48.4117 222.796 51.7602 220.527 54.7141 218.525C57.1781 216.856 59.5062 215.281 60.4828 212.303C61.8352 208.189 59.5398 204.865 56.3633 200.266C52.9273 195.292 48.6523 189.099 47.3039 179.266C46.6641 174.592 45.6961 167.532 49.6094 161.049C51.9328 157.202 54.7453 155.68 57.4641 154.21C59.9211 152.879 62.2422 151.624 64.3555 148.744C67.5344 144.413 67.1852 140.541 66.7422 135.638C66.4102 131.958 66.0336 127.787 67.1531 122.648C70.1164 109.042 81.7687 94.3212 96.1422 93.233C108.572 92.2931 119.766 101.701 125.347 111.445C128.795 117.466 130.442 124.568 130.108 131.984C129.812 138.561 127.947 145.205 124.855 150.688C120.318 158.732 113.527 163.542 108.566 167.053C104.334 170.051 101.275 172.218 101.859 174.652C102.387 176.845 105.47 177.62 109.042 178.519C113.576 179.66 119.22 181.079 122.008 186.111C125.391 192.22 123.584 202.02 117.978 207.953C114.175 211.98 109.787 212.822 105.916 213.566C102.409 214.239 99.6391 214.771 98.1727 217.42C96.3562 220.7 98.2109 224.307 100.558 228.873C102.388 232.435 104.463 236.47 105.151 241.203C106.825 252.725 99.6594 265.752 83.8531 279.923L83.5312 280.213Z" fill="#CADDFF"/>
    <path d="M239.812 180.95C252.641 186.965 270.027 201.732 281.433 219.266C275.87 229.544 269.324 239.167 262.213 247.524C224.812 291.476 156.602 314.091 94.95 288.145C83.4797 283.32 72.9727 277.119 63.5016 269.834L40.175 247.338C35.0164 241.138 30.3719 234.545 26.2625 227.651C58.7789 230.117 192.53 239.152 199.113 221.288C206.61 200.94 139.486 168.197 168.943 154.939C193.472 143.902 272.587 140.311 298.367 139.417C299.612 145.764 300.005 152.482 299.657 159.397C270.188 162.046 214.05 168.874 239.812 180.95Z" fill="#99B9FF"/>
    <path d="M277.886 214.688C277.721 214.688 277.559 214.611 277.455 214.469C266.988 200.28 252.125 187.313 239.584 181.434C234.571 179.084 232.333 176.805 232.736 174.461C233.367 170.809 240.726 167.622 255.231 164.72C267.819 162.202 283.521 160.407 294.475 159.342C294.766 159.315 295.033 159.53 295.059 159.823C295.089 160.118 294.875 160.379 294.579 160.408C256.878 164.069 234.722 169.258 233.791 174.645C233.491 176.394 235.65 178.408 240.037 180.465C252.727 186.413 267.753 199.512 278.316 213.834C278.492 214.071 278.441 214.408 278.204 214.582C278.109 214.653 277.996 214.688 277.886 214.688Z" fill="#5479F7"/>
    <path d="M170.704 154.729C170.492 154.729 170.29 154.602 170.205 154.391C170.097 154.117 170.23 153.805 170.505 153.697C195.408 143.813 264.704 140.173 293.338 139.066C293.632 139.051 293.884 139.283 293.896 139.579C293.907 139.874 293.677 140.123 293.381 140.134C264.802 141.241 195.648 144.87 170.902 154.693C170.837 154.719 170.769 154.729 170.704 154.729Z" fill="#5479F7"/>
    <path d="M185.663 228.808C185.418 228.808 185.196 228.638 185.141 228.387C185.077 228.098 185.259 227.814 185.549 227.749C193.216 226.051 197.612 223.814 198.611 221.101C201.528 213.184 192.472 203.084 182.948 193.417C182.74 193.207 182.743 192.867 182.953 192.659C183.165 192.452 183.504 192.454 183.711 192.666C193.477 202.576 202.75 212.966 199.616 221.471C198.466 224.593 193.94 226.988 185.78 228.794C185.741 228.803 185.702 228.808 185.663 228.808Z" fill="#5479F7"/>
    <path d="M129.539 232.661C118.066 232.661 105.28 232.404 91.2937 231.888C90.9976 231.877 90.7671 231.629 90.7781 231.334C90.789 231.038 91.0445 230.809 91.3328 230.818C115.139 231.695 135.461 231.825 151.736 231.208C152.032 231.193 152.279 231.426 152.292 231.721C152.302 232.017 152.072 232.267 151.776 232.278C145.041 232.533 137.616 232.661 129.539 232.661Z" fill="#5479F7"/>
    <path d="M48.2336 229.709C48.2219 229.709 48.2109 229.709 48.1992 229.706C38.7828 229.113 31.0508 228.552 26.2226 228.184C25.9273 228.163 25.7062 227.906 25.7289 227.611C25.7515 227.316 26.0086 227.094 26.3039 227.118C31.1281 227.483 38.8555 228.044 48.2664 228.638C48.5617 228.656 48.7859 228.911 48.768 229.205C48.7492 229.49 48.514 229.709 48.2336 229.709Z" fill="#5479F7"/>
    <path d="M172.434 258.565C172.434 258.565 171.606 266.765 174.09 270.006L174.841 271.379L162.304 269.903L162.999 268.566C164.238 266.185 164.861 263.596 164.814 261.008L172.434 258.565Z" fill="#CADDFF"/>
    <path d="M163.136 269.463L173.873 270.726L173.641 270.298C171.528 267.494 171.698 261.504 171.838 259.318L165.352 261.397C165.331 263.932 164.685 266.488 163.474 268.813L163.136 269.463ZM174.841 271.914C174.822 271.914 174.801 271.913 174.778 271.911L162.241 270.435C162.066 270.414 161.913 270.31 161.83 270.154C161.748 269.999 161.747 269.812 161.829 269.657L162.523 268.318C163.717 266.028 164.323 263.504 164.279 261.017C164.276 260.781 164.426 260.57 164.651 260.498L172.272 258.055C172.444 257.999 172.631 258.035 172.772 258.149C172.913 258.264 172.986 258.44 172.968 258.619C172.959 258.699 172.189 266.646 174.515 269.681C174.532 269.701 174.547 269.724 174.56 269.749L175.312 271.122C175.407 271.296 175.398 271.512 175.285 271.678C175.185 271.827 175.019 271.914 174.841 271.914Z" fill="black"/>
    <path d="M174.324 265.762L175.575 267.226C178.051 270.125 181.196 272.379 184.738 273.795L187.46 274.881C187.719 274.984 187.909 275.21 187.971 275.482L188.001 275.621C188.341 277.161 186.504 280.617 180.887 281.695C177.412 282.361 169.314 282.663 159.631 278.72C159.02 278.472 158.641 277.856 158.698 277.198C158.909 274.8 159.631 269.086 161.862 266.295C162.11 265.984 162.567 265.948 162.85 266.227L165.577 268.905C166.801 270.107 168.769 270.086 169.965 268.856L173.023 265.718C173.384 265.348 173.987 265.367 174.324 265.762Z" fill="white"/>
    <path d="M162.393 266.573C162.39 266.573 162.387 266.574 162.385 266.574C162.361 266.574 162.317 266.584 162.28 266.63C160.134 269.313 159.434 274.947 159.232 277.245C159.194 277.67 159.435 278.063 159.833 278.224C170.899 282.728 179.229 281.468 180.787 281.169C184.595 280.438 186.248 278.684 186.893 277.702C187.455 276.848 187.563 276.127 187.478 275.735L187.448 275.596C187.425 275.498 187.355 275.416 187.262 275.379L184.54 274.291C180.931 272.851 177.691 270.527 175.167 267.573L173.917 266.109C173.831 266.007 173.723 265.989 173.664 265.988C173.608 265.986 173.499 265.998 173.406 266.093L170.35 269.231C169.671 269.928 168.761 270.317 167.787 270.329C166.817 270.338 165.897 269.968 165.202 269.287L162.475 266.609C162.453 266.586 162.424 266.573 162.393 266.573ZM175.979 282.627C172.062 282.627 166.241 281.99 159.429 279.216C158.593 278.877 158.086 278.046 158.165 277.152C158.375 274.756 159.116 268.873 161.443 265.96C161.659 265.692 161.98 265.525 162.32 265.505C162.655 265.485 162.986 265.608 163.225 265.845L165.954 268.523C166.442 269.004 167.093 269.264 167.775 269.257C168.462 269.249 169.104 268.974 169.582 268.483L172.64 265.345C172.916 265.06 173.302 264.907 173.7 264.918C174.098 264.931 174.473 265.112 174.731 265.414L175.982 266.878C178.394 269.7 181.488 271.92 184.937 273.297L187.659 274.384C188.083 274.553 188.394 274.921 188.493 275.367L188.524 275.506C188.698 276.3 188.432 277.315 187.788 278.291C187.05 279.414 185.183 281.416 180.987 282.221C180.344 282.344 178.584 282.627 175.979 282.627Z" fill="black"/>
    <path d="M173.288 277.604C173.285 277.604 173.28 277.604 173.277 277.604C169.094 277.569 165.039 276.681 161.224 274.966L159.096 274.009C158.828 273.888 158.707 273.572 158.828 273.301C158.949 273.032 159.266 272.911 159.536 273.032L161.664 273.988C165.343 275.644 169.252 276.498 173.286 276.533H173.288C173.422 276.533 173.499 276.456 173.534 276.409C173.568 276.362 173.62 276.264 173.577 276.136L173.22 275.04C173.062 274.558 173.199 274.048 173.58 273.711C173.96 273.373 174.483 273.297 174.943 273.51L176.006 274.001C179.02 275.397 182.523 275.497 185.613 274.28L186.226 274.038C186.501 273.93 186.813 274.064 186.92 274.34C187.029 274.615 186.895 274.926 186.619 275.034L186.005 275.276C182.645 276.602 178.835 276.492 175.555 274.975L174.492 274.482C174.397 274.438 174.325 274.482 174.292 274.511C174.258 274.541 174.204 274.608 174.237 274.708L174.595 275.804C174.731 276.224 174.659 276.686 174.397 277.041C174.138 277.395 173.724 277.604 173.288 277.604Z" fill="black"/>
    <path d="M164.685 262.235C162.477 247 159.211 230.22 164.188 217.598C164.847 215.932 164.884 214.086 164.224 212.421L161.014 204.322L176.923 199.02L178.851 215.998C178.924 216.637 178.875 217.283 178.715 217.906C175.89 228.939 173.883 244.923 172.027 261.828L164.685 262.235Z" fill="white"/>
    <path d="M161.721 204.651L164.722 212.224C165.42 213.987 165.407 215.965 164.687 217.794C160.248 229.051 162.434 243.587 164.546 257.649C164.748 259 164.95 260.343 165.146 261.675L171.545 261.319C173.311 245.258 175.342 228.918 178.197 217.773C178.344 217.203 178.384 216.626 178.319 216.057L176.466 199.737L161.721 204.651ZM164.226 262.797L164.155 262.312C163.94 260.824 163.713 259.322 163.488 257.808C161.354 243.607 159.146 228.924 163.691 217.401C164.312 215.826 164.324 214.128 163.727 212.619L160.308 203.994L177.381 198.304L179.384 215.936C179.464 216.634 179.413 217.342 179.234 218.039C176.37 229.223 174.334 245.722 172.559 261.886L172.51 262.337L164.226 262.797Z" fill="black"/>
    <path d="M162.965 151.32C162.965 151.32 146.762 146.291 133.846 142.083C133.846 142.083 127.701 167.273 142.887 183.269C153.265 194.199 159.209 208.66 159.095 209.765C166.073 208.149 173.116 207.304 180.139 207.117C180.041 204.731 179.845 202.449 179.528 200.326C176.342 178.983 162.965 151.32 162.965 151.32Z" fill="black"/>
    <path d="M75.493 234.912C75.493 234.912 67.9633 237.578 66.1188 241.22L65.2071 242.493L61.1031 230.555L62.611 230.603C65.293 230.687 67.8961 230.125 70.2086 228.962L75.493 234.912Z" fill="#CADDFF"/>
    <path d="M61.8617 231.116L65.3758 241.339L65.6601 240.941C67.2711 237.824 72.5992 235.473 74.5773 234.687L70.0781 229.623C67.7875 230.697 65.2109 231.222 62.5937 231.139L61.8617 231.116ZM65.207 243.029C65.1812 243.029 65.1547 243.028 65.1289 243.022C64.9312 242.993 64.7656 242.856 64.7008 242.667L60.5969 230.729C60.539 230.564 60.568 230.379 60.6719 230.239C60.7765 230.096 60.9383 230.017 61.1203 230.021L62.6273 230.068C65.2078 230.149 67.7469 229.602 69.968 228.485C70.1851 228.375 70.4484 228.427 70.6094 228.607L75.893 234.556C76.0117 234.689 76.0562 234.873 76.0117 235.046C75.9672 235.217 75.8398 235.356 75.6719 235.416C75.5984 235.442 68.3226 238.053 66.5961 241.464C66.5836 241.487 66.5695 241.512 66.5531 241.533L65.6422 242.805C65.5406 242.946 65.3781 243.029 65.207 243.029Z" fill="black"/>
    <path d="M70.0453 239.592L69.2672 241.353C67.7273 244.842 67.0586 248.653 67.3187 252.459L67.5179 255.382C67.5367 255.66 67.4172 255.93 67.1976 256.103L67.0859 256.19C65.8453 257.163 61.9336 257.006 58.5289 252.412C56.4226 249.569 52.6414 242.402 51.9976 231.969C51.9562 231.31 52.3468 230.7 52.9656 230.468C55.2179 229.62 60.6812 227.793 64.1633 228.595C64.5508 228.684 64.7828 229.08 64.6547 229.456L63.4211 233.073C62.8687 234.697 63.7406 236.46 65.3664 237.006L69.5203 238.401C70.0109 238.566 70.2547 239.118 70.0453 239.592Z" fill="white"/>
    <path d="M62.1945 228.93C58.9664 228.93 54.9476 230.293 53.1539 230.968C52.7554 231.119 52.5054 231.508 52.5312 231.937C53.2679 243.86 58.0156 250.818 58.9594 252.094C61.2679 255.209 63.5656 255.938 64.7304 256.095C65.7437 256.23 66.4414 256.016 66.7554 255.768L66.8672 255.681C66.9476 255.618 66.9906 255.52 66.9844 255.418L66.7844 252.495C66.5195 248.619 67.2086 244.692 68.7781 241.139L69.5554 239.375C69.6094 239.254 69.5789 239.149 69.5554 239.097C69.5328 239.046 69.475 238.952 69.3492 238.909L65.1961 237.514C64.2734 237.205 63.5281 236.554 63.0969 235.681C62.6656 234.81 62.6008 233.821 62.914 232.9L64.1476 229.283C64.1586 229.249 64.1554 229.217 64.1383 229.186C64.1273 229.165 64.1 229.13 64.0429 229.117C63.4773 228.985 62.8515 228.93 62.1945 228.93ZM65.3422 257.208C65.0992 257.208 64.8461 257.19 64.5867 257.155C63.2554 256.975 60.6414 256.163 58.0984 252.73C57.1234 251.414 52.2179 244.227 51.4625 232.003C51.407 231.103 51.9351 230.285 52.7765 229.967C55.0258 229.118 60.6508 227.236 64.2828 228.073C64.6187 228.15 64.9078 228.365 65.0742 228.664C65.2383 228.959 65.2703 229.309 65.1617 229.628L63.9281 233.246C63.707 233.896 63.7531 234.592 64.0562 235.207C64.3609 235.821 64.8867 236.281 65.5367 236.499L69.6906 237.893C70.0672 238.02 70.375 238.301 70.5359 238.664C70.6961 239.028 70.6961 239.445 70.5351 239.809L69.7578 241.57C68.2578 244.967 67.5992 248.719 67.8523 252.421L68.0531 255.345C68.0836 255.8 67.8875 256.242 67.5289 256.523L67.4164 256.612C66.9203 257.001 66.1883 257.208 65.3422 257.208Z" fill="black"/>
    <path d="M67.3789 254.833C67.2492 254.833 67.1188 254.786 67.0156 254.691L66.5321 254.242C63.8805 251.788 62.3289 248.309 62.2758 244.695L62.2586 243.524C62.2571 243.417 62.1867 243.371 62.1446 243.356C62.1024 243.338 62.0203 243.318 61.9438 243.393L61.1117 244.189C60.7922 244.493 60.343 244.627 59.9102 244.546C59.4766 244.466 59.1047 244.18 58.9172 243.781C57.1367 239.997 56.1797 235.957 56.0719 231.777L56.0125 229.446C56.0047 229.15 56.2383 228.905 56.5336 228.897C56.8281 228.894 57.075 229.124 57.0828 229.419L57.143 231.749C57.2461 235.781 58.1696 239.676 59.8867 243.324C59.9438 243.448 60.0485 243.483 60.1055 243.495C60.1633 243.506 60.2735 243.509 60.3711 243.415L61.2039 242.618C61.5711 242.266 62.0891 242.17 62.5586 242.367C63.0266 242.563 63.3227 243 63.3297 243.507L63.3469 244.679C63.3953 248.002 64.8219 251.199 67.2602 253.457L67.7438 253.905C67.9602 254.106 67.9735 254.445 67.7727 254.662C67.6672 254.774 67.5235 254.833 67.3789 254.833Z" fill="black"/>
    <path d="M69.5789 229.202C81.5547 219.523 93.6758 208.851 107.073 206.686C108.841 206.401 110.448 205.492 111.543 204.075L117.567 189.979L131.708 203.847L119.604 216.442C118.822 217.257 117.846 217.859 116.763 218.187C105.624 221.568 88.2117 229.112 73.0375 236.005L69.5789 229.202Z" fill="white"/>
    <path d="M70.2523 229.346L73.2828 235.306C93.3398 226.204 107.516 220.435 116.608 217.675C117.595 217.376 118.498 216.82 119.218 216.072L130.955 203.859L117.752 190.91L112.008 204.348L111.966 204.403C110.806 205.902 109.098 206.901 107.158 207.215C95.0297 209.175 83.8015 218.319 72.9422 227.159C72.0445 227.891 71.1484 228.62 70.2523 229.346ZM72.7929 236.706L68.9047 229.058L69.2422 228.785C70.2484 227.973 71.257 227.152 72.2664 226.329C83.2344 217.399 94.5758 208.163 106.987 206.158C108.635 205.893 110.085 205.056 111.077 203.8L117.383 189.049L132.461 203.835L119.991 216.813C119.143 217.695 118.081 218.348 116.918 218.7C107.802 221.468 93.5203 227.289 73.2594 236.494L72.7929 236.706Z" fill="black"/>
    <path d="M143.068 148.616C143.068 148.616 134.516 141.951 134.108 140.456C134.108 140.456 125.506 148.965 121.802 165.908C120.241 173.047 115.837 182.832 113.76 192.154C117.603 197.62 125.946 203.483 131.708 206.294C141.176 195.695 150.215 178.587 150.215 178.587L143.068 148.616Z" fill="black"/>
    <path d="M141.184 194.024C141.079 194.024 140.973 193.994 140.881 193.929C140.638 193.762 140.576 193.429 140.742 193.186L142.745 190.282C147.423 183.496 155.253 172.139 157.885 168.009C158.045 167.761 158.377 167.688 158.626 167.847C158.875 168.006 158.949 168.338 158.789 168.587C156.145 172.73 148.308 184.097 143.626 190.89L141.625 193.792C141.521 193.944 141.355 194.024 141.184 194.024Z" fill="#CADDFF"/>
    <path d="M104.912 140.866C104.772 140.709 104.46 140.604 104.137 140.534C104.237 130.913 104.878 118.229 104.144 111.772C103.948 110.051 105.1 108.465 106.804 108.144C113.427 106.904 119.123 105.438 123.522 103.656L119.682 85.8975C110.505 89.56 102.367 94.9389 95.1961 101.922C94.0313 103.056 93.3438 104.596 93.2735 106.22C92.8977 114.846 95.4688 129.011 97.5383 140.277C97.3828 140.388 97.2453 140.528 97.1367 140.693C96.3563 141.872 94.9336 145.322 95.1742 147.575C95.5156 150.783 101.648 154.308 102.84 153.73C104.032 153.154 104.424 148.166 105.059 147.986C105.694 147.802 106.328 149.819 107.016 150.922C107.707 152.025 110.06 153.321 110.346 152.177C110.633 151.035 107.969 146.522 107.599 145.304C107.318 144.373 105.749 141.81 104.912 140.866Z" fill="white"/>
    <path d="M104.512 141.223C104.512 141.222 104.512 141.222 104.512 141.222V141.223ZM119.293 86.6327C110.559 90.2077 102.58 95.4788 95.5703 102.305C94.4992 103.348 93.8734 104.747 93.8086 106.244C93.4289 114.94 96.1086 129.527 98.0648 140.18L98.1265 140.515L97.8515 140.712C97.7422 140.791 97.6515 140.883 97.5836 140.988C96.8304 142.126 95.4875 145.461 95.7062 147.518C95.8828 149.17 97.9367 150.998 99.6429 152.062C101.264 153.073 102.374 153.332 102.611 153.247C103.059 153.03 103.524 151.066 103.774 150.014C104.176 148.321 104.36 147.627 104.911 147.47C105.776 147.223 106.277 148.259 106.855 149.459C107.059 149.879 107.267 150.311 107.471 150.638C108.024 151.522 109.537 152.234 109.826 152.07C109.967 151.487 108.75 149.013 108.095 147.686C107.61 146.699 107.227 145.92 107.087 145.459C106.835 144.626 105.323 142.139 104.516 141.226C104.5 141.215 104.391 141.138 104.022 141.057L103.597 140.964L103.601 140.528C103.629 137.87 103.696 135.046 103.768 132.055C103.95 124.393 104.14 116.47 103.612 111.834C103.384 109.837 104.744 107.987 106.705 107.62C113.498 106.347 118.803 104.941 122.903 103.327L119.293 86.6327ZM102.504 154.324C101.629 154.324 100.434 153.746 99.7133 153.345C97.525 152.133 94.8836 149.905 94.6414 147.631C94.3883 145.26 95.8179 141.715 96.689 140.397C96.7672 140.28 96.8562 140.173 96.9562 140.072C94.9953 129.396 92.3578 114.93 92.7383 106.195C92.8156 104.426 93.5562 102.772 94.8234 101.538C102.091 94.4593 110.387 89.0296 119.484 85.4007L120.071 85.1655L124.141 103.982L123.723 104.151C119.502 105.863 113.998 107.342 106.903 108.671C105.49 108.936 104.512 110.272 104.676 111.712C105.212 116.423 105.023 124.383 104.838 132.08C104.771 134.912 104.706 137.598 104.677 140.127C104.965 140.228 105.171 140.353 105.312 140.512C106.148 141.451 107.795 144.104 108.112 145.148C108.227 145.525 108.63 146.344 109.057 147.214C110.292 149.721 111.086 151.433 110.866 152.309C110.752 152.762 110.42 153.065 109.954 153.138C108.9 153.305 107.183 152.195 106.563 151.204C106.328 150.83 106.105 150.369 105.891 149.923C105.712 149.551 105.441 148.991 105.232 148.687C105.098 149.072 104.94 149.739 104.816 150.262C104.329 152.316 103.919 153.804 103.073 154.212C102.91 154.291 102.716 154.324 102.504 154.324Z" fill="black"/>
    <path d="M117.016 85.6976C119.176 92.0905 120.705 98.728 121.049 105.342C134.355 103.609 145.005 106.365 145.005 106.365L160.583 84.8069C138.796 76.5523 127.752 82.0226 117.016 85.6976Z" fill="#5479F7"/>
    <path d="M214.382 71.5483C213.067 71.7038 211.069 76.2897 210.408 76.2546C209.749 76.2202 210.652 74.0358 210.361 72.7686C210.07 71.5015 208.155 70.3882 208.155 71.5647C208.155 72.5679 207.181 76.6866 207.133 77.9593C207.095 78.9311 207.741 81.8663 208.225 83.0311C208.26 83.1163 208.334 83.2015 208.426 83.2866C205.63 86.4226 194.416 98.4015 191.102 102.346C190.713 102.807 190.028 102.851 189.58 102.449C185.567 98.8804 181.313 95.7186 176.798 92.9858L169.781 106.416C175.763 111.782 180.644 115.434 189.503 119.058C190.838 119.602 194.614 118.284 195.544 117.183C200.248 111.597 211.252 92.5647 214.859 86.4366C215.023 86.1554 215.258 85.9319 215.514 85.7358C215.516 85.7343 215.518 85.7343 215.519 85.7327C216.641 84.8726 219.112 82.0765 219.62 79.8671C220.343 76.7225 215.695 71.3905 214.382 71.5483Z" fill="white"/>
    <path d="M170.449 106.295C176.348 111.559 181.236 115.099 189.708 118.562C190.808 119.011 194.35 117.772 195.137 116.838C199.377 111.8 208.73 95.8329 213.226 88.1595C213.672 87.4001 214.065 86.7274 214.396 86.1641C214.577 85.8555 214.83 85.5829 215.192 85.3094L215.199 85.3024C216.286 84.4649 218.637 81.7579 219.098 79.7469C219.47 78.1282 218.125 75.729 216.861 74.1673C215.662 72.6891 214.696 72.079 214.443 72.079C214.443 72.079 214.443 72.079 214.441 72.079C213.942 72.1446 212.866 73.8415 212.284 74.7548C211.354 76.2251 210.957 76.8196 210.382 76.7884C210.163 76.7782 209.971 76.679 209.836 76.5141C209.529 76.1352 209.619 75.5438 209.745 74.7219C209.843 74.0899 209.952 73.3719 209.841 72.8884C209.698 72.2727 209.03 71.7305 208.691 71.6212C208.677 72.1954 208.452 73.3805 208.192 74.7469C207.946 76.0415 207.691 77.3813 207.668 77.979C207.635 78.8493 208.253 81.6985 208.721 82.8219C208.719 82.8204 208.727 82.836 208.792 82.893L209.175 83.2509L208.827 83.6423C207.84 84.7501 205.806 86.954 203.451 89.5094C199.086 94.2462 193.653 100.143 191.51 102.69C191.233 103.022 190.84 103.222 190.408 103.255C189.975 103.284 189.552 103.142 189.222 102.849C185.366 99.4173 181.26 96.354 177.009 93.7399L170.449 106.295ZM190.302 119.711C189.913 119.711 189.57 119.66 189.302 119.551C180.537 115.97 175.555 112.311 169.423 106.815L169.115 106.538L176.588 92.2321L177.077 92.5266C181.555 95.2384 185.882 98.4415 189.934 102.05C190.048 102.147 190.188 102.197 190.331 102.185C190.472 102.175 190.6 102.111 190.692 102.002C192.847 99.4345 198.29 93.529 202.664 88.7829C204.806 86.4602 206.678 84.4274 207.738 83.2509C207.736 83.2446 207.733 83.2399 207.73 83.2344C207.247 82.0735 206.556 79.029 206.599 77.9376C206.625 77.2602 206.875 75.9407 207.14 74.5454C207.366 73.3602 207.622 72.0126 207.622 71.5641C207.622 70.8759 208.067 70.5813 208.451 70.5384C209.355 70.436 210.629 71.5384 210.884 72.6469C211.042 73.3321 210.916 74.1571 210.805 74.8852C210.792 74.9634 210.78 75.0469 210.766 75.1298C210.969 74.8337 211.193 74.4798 211.382 74.1813C212.514 72.3977 213.386 71.1251 214.318 71.0149C215.242 70.9055 216.527 72.1673 217.212 72.9298C218.884 74.7915 220.654 77.7571 220.141 79.986C219.608 82.3102 217.099 85.1946 215.844 86.1571L215.821 86.1743C215.579 86.3649 215.423 86.5313 215.319 86.7063C214.989 87.2696 214.596 87.9407 214.148 88.7016C209.639 96.3993 200.254 112.419 195.953 117.527C195.066 118.584 192.159 119.711 190.302 119.711Z" fill="black"/>
    <path d="M166.574 107.017L178.604 115.638L188.227 99.8009C181.975 92.2821 177.7 83.2642 166.475 81.7603L166.574 107.017Z" fill="#5479F7"/>
    <path d="M216.384 80.6275L216.309 80.6229C214.129 80.4854 212.37 78.8861 212.029 76.7307L211.639 74.2549L212.696 74.0869L213.087 76.5627C213.345 78.1947 214.661 79.4127 216.302 79.5486L219.368 78.8604L219.601 79.9041L216.384 80.6275Z" fill="black"/>
    <path d="M172.614 85.8561C172.116 83.9249 170.546 82.4608 168.586 82.0882C154.436 79.4046 147.816 81.5968 147.242 81.8585C126.395 91.3991 127.394 108.391 126.498 123.098C125.574 138.237 122.948 147.896 122.948 147.896C134 166.564 167.072 153.403 167.072 153.403C162.305 133.186 171.882 104.786 171.882 104.786C176.313 105.142 174.305 92.4272 172.614 85.8561Z" fill="#5479F7"/>
    <path d="M169.38 114.569C169.312 114.569 169.242 114.556 169.175 114.527C168.902 114.415 168.772 114.101 168.887 113.828C170.358 110.297 171.72 102.979 171.861 97.8499C171.869 97.5593 172.108 97.3296 172.396 97.3296C172.402 97.3296 172.407 97.3296 172.412 97.3296C172.706 97.3374 172.94 97.5851 172.933 97.8812C172.787 103.117 171.387 110.608 169.874 114.24C169.788 114.445 169.591 114.569 169.38 114.569Z" fill="#CADDFF"/>
    <path d="M148.778 96.2693L163.478 96.6928C165.317 96.7459 166.674 98.4248 166.341 100.233L162.245 122.449C161.97 123.94 160.627 124.99 159.114 124.897L145.192 124.054C143.432 123.947 142.144 122.354 142.409 120.61L145.727 98.8146C145.955 97.3186 147.264 96.2256 148.778 96.2693Z" fill="#99B9FF"/>
    <path d="M151.173 70.9899C149.732 71.7172 148.645 71.8219 147.861 71.7766C145.028 71.6149 143.21 69.3313 142.848 68.8758C140.969 66.5149 140.065 62.6391 141.655 60.3625C142.801 58.7243 144.245 59.3422 145.563 57.5102C147.063 55.4305 145.527 53.7329 146.909 51.9118C148.501 49.8157 152.006 49.9758 152.638 50.0055C154.8 50.104 155.057 51.1774 157.103 51.1211C159.191 51.0657 159.469 50.0149 161.383 50.0055C162.906 49.9961 165.126 50.6438 166.119 52.4047C167.366 54.6141 166.091 57.525 164.61 59.061C162.832 60.9055 161.578 59.9165 159.088 61.418C154.773 64.0211 155.805 68.6579 151.173 70.9899Z" fill="black"/>
    <path d="M159.215 80.811L158.045 73.5423C158.304 73.5134 160.455 73.1376 160.702 73.0149C162.694 72.022 162.142 67.022 162.142 67.022L163.248 65.6985L159.944 58.3032C156.434 61.2274 155.181 58.3556 151.709 59.7938C148.236 61.2337 150.121 65.1001 150.121 65.1001C150.121 65.1001 147.281 63.8517 147.888 66.5954C148.345 68.6688 149.858 68.7993 150.852 68.7157L149 81.1798C149 81.1798 143.039 82.8743 141.887 83.1782C143.386 83.1071 153.757 87.6173 165.519 82.6899L159.215 80.811Z" fill="white"/>
    <path d="M144.141 83.1102C147.741 84.0157 155.372 85.7907 163.867 82.7571L159.059 81.3266C158.864 81.2665 158.717 81.1001 158.684 80.8969L157.516 73.629C157.495 73.4837 157.53 73.3352 157.618 73.2188C157.707 73.1016 157.841 73.0274 157.986 73.011C158.261 72.9805 160.208 72.6329 160.482 72.529C161.816 71.8626 161.741 68.2821 161.606 67.0813C161.591 66.936 161.635 66.7915 161.73 66.679L162.623 65.6126L159.732 59.1446C157.848 60.4938 156.52 60.2712 155.233 60.0571C154.223 59.8868 153.27 59.7298 151.914 60.2907C151.111 60.6227 150.577 61.1282 150.325 61.7907C149.796 63.1727 150.594 64.8516 150.601 64.868C150.698 65.0712 150.659 65.311 150.505 65.4727C150.348 65.6337 150.108 65.6829 149.904 65.5923C149.465 65.4001 148.723 65.2446 148.473 65.4493C148.318 65.5759 148.295 65.9626 148.409 66.4821C148.695 67.7735 149.436 68.2985 150.805 68.1821C150.969 68.168 151.127 68.2313 151.242 68.3493C151.352 68.468 151.405 68.6337 151.38 68.7946L149.529 81.2595C149.498 81.4673 149.349 81.6399 149.144 81.6954C148.978 81.7446 146.222 82.5274 144.141 83.1102ZM153.872 85.5298C149.337 85.5298 145.657 84.5985 143.558 84.0688C142.819 83.8821 142.127 83.7048 141.913 83.7149C141.641 83.7274 141.401 83.5321 141.357 83.261C141.316 82.9907 141.486 82.7313 141.748 82.6626C142.727 82.404 147.249 81.1212 148.52 80.7618L150.227 69.2618C148.324 69.1657 147.617 67.8563 147.364 66.7118C147.148 65.7352 147.293 65.0329 147.793 64.6212C148.213 64.2774 148.782 64.2454 149.275 64.3141C149.07 63.5423 148.93 62.4477 149.322 61.4157C149.683 60.4634 150.417 59.7516 151.502 59.3024C153.145 58.6212 154.347 58.8243 155.412 59.0016C156.741 59.2219 157.792 59.4001 159.599 57.893C159.73 57.786 159.901 57.7446 160.063 57.7821C160.227 57.8212 160.362 57.9329 160.433 58.0844L163.737 65.4798C163.82 65.6665 163.79 65.886 163.659 66.0438L162.695 67.1938C162.794 68.3165 163.009 72.4665 160.941 73.4962C160.672 73.6305 159.405 73.8587 158.659 73.9852L159.688 80.3954L165.672 82.1774C165.889 82.243 166.041 82.4368 166.054 82.661C166.066 82.8876 165.934 83.0977 165.726 83.1845C161.485 84.961 157.419 85.5298 153.872 85.5298Z" fill="black"/>
    <path d="M157.234 74.1358C154.136 74.1358 152.715 71.7819 152.652 71.6725C152.502 71.4178 152.587 71.0905 152.843 70.9405C153.095 70.7912 153.424 70.8756 153.573 71.1287C153.63 71.2241 154.984 73.4225 157.973 73.0116C158.269 72.9725 158.537 73.1787 158.576 73.4709C158.616 73.7639 158.411 74.0334 158.119 74.0741C157.809 74.1147 157.516 74.1358 157.234 74.1358Z" fill="black"/>
    <path d="M215.561 293.522C215.323 293.522 215.106 293.36 215.045 293.119C214.97 292.833 215.143 292.541 215.43 292.468C223.126 290.493 230.61 287.56 237.669 283.75C254.629 274.6 268.384 260.826 277.448 243.916C277.588 243.656 277.913 243.559 278.173 243.698C278.434 243.837 278.532 244.162 278.391 244.423C269.228 261.517 255.321 275.442 238.179 284.693C231.042 288.544 223.477 291.508 215.696 293.504C215.65 293.516 215.607 293.522 215.561 293.522Z" fill="black"/>
    <path d="M277.92 244.705C277.833 244.705 277.748 244.685 277.666 244.642C277.406 244.502 277.309 244.178 277.448 243.918C277.871 243.127 278.283 242.332 278.675 241.55C278.809 241.285 279.129 241.179 279.392 241.311C279.658 241.444 279.765 241.766 279.634 242.031C279.237 242.82 278.82 243.625 278.392 244.422C278.297 244.603 278.11 244.705 277.92 244.705Z" fill="black"/>
    <path d="M237.571 293.551C237.373 293.551 237.18 293.439 237.087 293.247C236.959 292.98 237.07 292.66 237.339 292.533C260.242 281.548 278.842 263.085 289.716 240.544C289.844 240.276 290.163 240.165 290.43 240.293C290.698 240.422 290.809 240.742 290.68 241.009C285.287 252.192 278.088 262.345 269.291 271.188C260.186 280.338 249.592 287.844 237.801 293.499C237.728 293.534 237.648 293.551 237.571 293.551Z" fill="black"/>
    <path d="M279.434 237.371L281.791 238.241L281.773 235.423L279.434 237.371ZM282.333 239.547C282.269 239.547 282.205 239.535 282.147 239.512L278.194 238.055C278.015 237.988 277.884 237.832 277.852 237.644C277.819 237.455 277.888 237.262 278.035 237.141L281.956 233.876C282.116 233.743 282.339 233.714 282.525 233.801C282.713 233.888 282.834 234.076 282.836 234.283L282.866 239.007C282.869 239.183 282.783 239.348 282.639 239.449C282.547 239.512 282.441 239.547 282.333 239.547Z" fill="black"/>
    <path d="M103.881 18.4326C103.631 18.4326 103.407 18.2561 103.357 17.9998C103.299 17.7108 103.488 17.4287 103.779 17.3709L105.811 16.9733C106.102 16.9155 106.383 17.1053 106.44 17.3936C106.497 17.6842 106.308 17.967 106.018 18.0233L103.985 18.4225C103.95 18.4287 103.916 18.4326 103.881 18.4326Z" fill="black"/>
    <path d="M110.996 17.0321C110.744 17.0321 110.521 16.8555 110.47 16.5993C110.414 16.3094 110.602 16.0274 110.893 15.9719L112.927 15.5727C113.217 15.5141 113.497 15.7024 113.555 15.9922C113.612 16.2844 113.422 16.5664 113.132 16.6219L111.099 17.0211C111.065 17.0274 111.03 17.0321 110.996 17.0321Z" fill="black"/>
    <path d="M109.351 22.1063C109.1 22.1063 108.876 21.9282 108.826 21.672L108.427 19.6391C108.371 19.3501 108.56 19.0688 108.851 19.0118C109.141 18.954 109.422 19.1446 109.479 19.4337L109.877 21.4665C109.934 21.7579 109.744 22.0384 109.454 22.0962C109.42 22.1024 109.385 22.1063 109.351 22.1063Z" fill="black"/>
    <path d="M107.957 14.9915C107.706 14.9915 107.482 14.8165 107.432 14.561L107.034 12.5266C106.977 12.2376 107.166 11.9555 107.456 11.8985C107.747 11.8423 108.028 12.0329 108.085 12.322L108.484 14.354C108.539 14.6446 108.351 14.9251 108.06 14.9837C108.026 14.9899 107.991 14.9915 107.957 14.9915Z" fill="black"/>
    <path d="M55.9805 57.5805C55.8672 57.5805 55.7523 57.5422 55.6547 57.4695C55.4203 57.2883 55.3766 56.9523 55.557 56.7172C67.2727 41.482 79.4344 33.25 87.5742 29.0281C87.8367 28.8898 88.1602 28.9937 88.2961 29.2562C88.432 29.5187 88.3297 29.8406 88.0672 29.9781C80.0234 34.1508 68.0016 42.2914 56.4055 57.3711C56.3 57.5062 56.1414 57.5805 55.9805 57.5805Z" fill="black"/>
    <path d="M57.2554 46.4633C57.1289 46.4633 57.0023 46.4188 56.9 46.3282C56.6789 46.1321 56.6593 45.7914 56.857 45.5727C70.5133 30.2696 83.964 22.8555 92.8429 19.3321C93.1179 19.2235 93.4289 19.3578 93.5383 19.6328C93.6468 19.9071 93.5133 20.218 93.2375 20.3266C84.4672 23.8102 71.1726 31.1375 57.6554 46.2852C57.55 46.4039 57.4039 46.4633 57.2554 46.4633Z" fill="black"/>
    <path d="M227.759 36.3601C227.513 36.3601 227.292 36.189 227.237 35.9382L226.76 33.7554C226.698 33.4671 226.881 33.1804 227.172 33.1179C227.459 33.0546 227.745 33.2398 227.809 33.528L228.283 35.7101C228.346 35.9983 228.164 36.2835 227.875 36.346C227.836 36.3562 227.798 36.3601 227.759 36.3601Z" fill="black"/>
    <path d="M229.426 43.9985C229.18 43.9985 228.958 43.8282 228.902 43.5774L228.427 41.3946C228.364 41.1055 228.546 40.8204 228.836 40.7571C229.125 40.6938 229.41 40.8782 229.476 41.1649L229.948 43.3493C230.012 43.6383 229.83 43.9219 229.541 43.9852C229.502 43.9954 229.464 43.9985 229.426 43.9985Z" fill="black"/>
    <path d="M223.441 40.1553C223.195 40.1553 222.973 39.9857 222.919 39.7342C222.855 39.4451 223.039 39.16 223.328 39.0982L225.512 38.6232C225.805 38.56 226.084 38.7451 226.148 39.0326C226.212 39.3225 226.027 39.6076 225.737 39.6693L223.555 40.1436C223.516 40.1514 223.478 40.1553 223.441 40.1553Z" fill="black"/>
    <path d="M231.083 38.4969C230.834 38.4969 230.613 38.3258 230.559 38.0758C230.497 37.7875 230.68 37.5016 230.97 37.4383L233.152 36.9649C233.443 36.9008 233.726 37.0852 233.791 37.3735C233.852 37.6625 233.668 37.9477 233.379 38.0102L231.195 38.4844C231.159 38.493 231.12 38.4969 231.083 38.4969Z" fill="black"/>
    <path d="M252.345 61.0022C251.662 61.0022 250.987 61.2897 250.515 61.8507C249.665 62.8585 249.795 64.3686 250.802 65.221C251.812 66.071 253.326 65.9429 254.173 64.935C255.023 63.9272 254.896 62.4147 253.888 61.5647C253.437 61.1866 252.888 61.0022 252.345 61.0022ZM252.345 66.853C251.557 66.853 250.763 66.5866 250.112 66.0389C248.653 64.8069 248.467 62.6194 249.697 61.16C250.927 59.7007 253.119 59.5147 254.577 60.7468C256.037 61.9764 256.224 64.1655 254.994 65.6257C254.311 66.4358 253.331 66.853 252.345 66.853Z" fill="black"/>
</svg>
