<svg width="221" height="207" viewBox="0 0 221 207" fill="none" xmlns="http://www.w3.org/2000/svg">
    <path d="M206.904 103.675C203.877 116.775 197.203 128.089 190.178 137.034C181.435 148.171 172.152 155.631 168.686 158.282C134.085 184.766 85.8407 186.26 54.0081 171.508C45.9329 167.767 34.2867 158.901 28.8325 146.62C22.1599 131.597 31.5265 124.122 37.3277 94.7327C44.0308 60.7788 33.9149 55.9704 42.2398 41.0076C55.4814 17.2161 93.2246 7.51942 122.174 10.1484C157.12 13.3224 198.707 36.1954 207.143 75.3302C209.326 85.4528 208.923 94.9597 206.904 103.675Z" fill="#CADDFF"/>
    <path d="M87.8291 97.5556L95.3932 116.979L50.6597 113.323L51.7675 95.2959L87.8291 97.5556Z" fill="#5479F7"/>
    <path d="M101.128 54.3608L110.112 94.1911C110.112 94.1911 102.738 99.1542 102.311 97.0422C101.509 93.072 93.8306 81.7204 91.0727 74.6754C89.0532 69.5182 88.3643 64.5615 88.5617 61.1379C89.0279 53.039 101.128 54.3608 101.128 54.3608Z" fill="white"/>
    <path d="M99.31 54.5936C97.1357 54.5936 93.4599 54.8998 91.1129 56.7536C89.7449 57.8345 88.9973 59.3153 88.8919 61.1546C88.6698 65.0045 89.6016 70.0189 91.3828 74.5686C92.6938 77.9178 95.0892 82.1845 97.4051 86.311C99.8758 90.7113 102.208 94.8664 102.636 96.9844C102.667 97.1386 102.743 97.186 102.82 97.2151C103.838 97.5968 107.529 95.5263 109.745 94.0562L100.854 54.6481C100.563 54.6254 100.015 54.5936 99.31 54.5936ZM103.082 97.8701C102.891 97.8701 102.72 97.8453 102.574 97.7909C102.258 97.6717 102.054 97.4324 101.987 97.1003C101.577 95.0734 99.2669 90.9577 96.8197 86.5988C94.4935 82.4551 92.0878 78.1695 90.7624 74.7821C88.9512 70.1569 88.0051 65.0498 88.2313 61.1217C88.3475 59.1029 89.174 57.4738 90.6876 56.2793C94.3957 53.3522 100.892 54.0233 101.166 54.0529C101.307 54.0686 101.422 54.1661 101.451 54.2971L110.436 94.1263C110.462 94.2476 110.412 94.3705 110.306 94.4417C109.395 95.0551 105.102 97.8701 103.082 97.8701Z" fill="black"/>
    <path d="M90.9328 58.269C91.0865 58.4011 91.3155 58.4517 91.5296 58.3488L101.599 54.4648C101.599 54.4648 101.479 35.8532 93.5601 32.594C93.3517 32.5077 90.9092 31.456 89.8152 31.3094C71.9458 28.9041 71.0002 29.5068 65.942 30.1089C59.979 30.8183 56.9454 38.356 55.7806 40.8535C51.9183 48.747 47.1575 61.4646 47.4096 77.3351C47.5023 83.1893 48.2608 88.4366 49.2697 92.942C51.3232 98.4588 52.5473 103.037 54.6261 103.684C62.4117 106.108 87.1931 98.6 89.0065 97.4933C88.046 88.5012 90.523 64.4914 90.9328 58.269Z" fill="#99B9FF"/>
    <path d="M49.5892 92.8585C50.2763 94.7075 50.7949 96.5241 51.253 98.1267C52.1289 101.193 52.8207 103.615 54.0345 103.993C58.7733 105.469 71.3651 103.032 88.583 97.3052L88.6492 97.2826C87.6322 88.3945 89.0952 73.4927 89.9723 64.5561C90.2307 61.9222 90.435 59.842 90.5254 58.4685C90.5329 58.3499 90.6129 58.2458 90.7314 58.2011C90.8494 58.1558 90.9847 58.1795 91.0785 58.2598C91.1101 58.2863 91.1941 58.3439 91.3023 58.2916L101.263 54.2627C101.201 52.2558 100.465 36.1992 92.755 32.5077C92.2238 32.2533 91.2603 32.1665 90.4103 32.0894C89.9706 32.0495 89.5556 32.0118 89.1931 31.9547C71.1493 29.0728 68.9819 29.669 64.2327 30.9752C59.1503 32.3724 57.6942 36.5324 56.7308 39.2843C56.5017 39.9398 56.3026 40.5069 56.0839 40.9775C50.3494 52.6951 47.5432 64.9237 47.74 77.3303C47.8223 82.5166 48.4445 87.7417 49.5892 92.8585ZM57.666 105.045C56.1605 105.045 54.8575 104.903 53.8262 104.582C52.2734 104.098 51.5776 101.661 50.6142 98.2868C50.1572 96.6885 49.6404 94.8778 48.9578 93.0439C48.9526 93.031 48.9492 93.0186 48.9463 93.0057C47.7895 87.8425 47.1616 82.5721 47.0787 77.3394C46.8802 64.8407 49.7071 52.5215 55.4802 40.7241C55.6839 40.2859 55.8779 39.7323 56.1023 39.0913C57.1089 36.216 58.63 31.8695 64.0463 30.3811C68.8962 29.047 71.1102 28.4389 89.3047 31.3439C89.6431 31.3984 90.0466 31.4345 90.4736 31.4733C91.4272 31.559 92.4125 31.6479 93.056 31.9557C101.597 36.0456 101.921 53.7107 101.93 54.4611C101.932 54.585 101.853 54.6999 101.73 54.7484L91.5832 58.8523C91.4514 58.9159 91.3029 58.9412 91.1556 58.9315C91.0543 60.3007 90.8644 62.2311 90.6313 64.6122C89.7479 73.608 88.2699 88.664 89.3346 97.4578C89.3525 97.6012 89.2621 97.7365 89.1165 97.785L88.804 97.889C80.1816 100.756 65.9052 105.045 57.666 105.045Z" fill="black"/>
    <path d="M64.0612 118.058C65.538 115.332 65.1109 112.061 64.1325 110.675C59.6849 104.369 56.8631 93.6274 54.4304 82.4041C55.9245 79.4005 57.2263 62.0939 58.1598 55.3766L44.8687 54.6597C40.5776 58.742 39.2936 77.4194 39.9054 81.761C41.2942 91.6081 55.4353 113.09 55.4353 113.09C55.4353 113.09 55.9216 123.562 62.9424 124.319C62.9424 124.319 62.5844 120.783 64.0612 118.058Z" fill="white"/>
    <path d="M45.0029 54.9776C40.9696 59.0917 39.582 77.104 40.2335 81.7205C41.5969 91.3896 55.5758 112.713 55.7168 112.927C55.7461 112.972 55.7628 113.024 55.7651 113.077C55.7703 113.176 56.2998 122.892 62.5862 123.958C62.5373 122.946 62.5378 120.185 63.7666 117.917C65.206 115.26 64.7444 112.103 63.8569 110.845C59.2902 104.372 56.4719 93.3799 54.1059 82.4665C54.0921 82.4008 54.1007 82.3334 54.1306 82.2736C55.1441 80.2348 56.1058 71.0939 56.8782 63.7487C57.2039 60.6507 57.513 57.7144 57.7869 55.6671L45.0029 54.9776ZM62.9424 124.629C62.9298 124.629 62.9171 124.628 62.9044 124.628C55.9389 123.876 55.1723 114.252 55.109 113.184C54.0817 111.619 40.9345 91.4236 39.5774 81.8019C38.9916 77.6462 40.1179 58.7392 44.6334 54.4434C44.7001 54.3798 44.7934 54.3458 44.8883 54.3517L58.1788 55.0682C58.2709 55.073 58.3561 55.1134 58.4148 55.1797C58.4735 55.246 58.5 55.3323 58.4885 55.4175C58.2042 57.4627 57.8796 60.5456 57.5366 63.8096C56.7303 71.4745 55.8181 80.1497 54.7758 82.4391C57.1233 93.2602 59.9175 104.138 64.4089 110.504C65.5282 112.091 65.8264 115.484 64.3565 118.197C62.9396 120.813 63.2682 124.256 63.2716 124.291C63.2808 124.383 63.2452 124.476 63.1738 124.54C63.1116 124.598 63.0282 124.629 62.9424 124.629Z" fill="black"/>
    <path d="M61.9082 123.426C61.8064 123.426 61.7062 123.383 61.6418 123.299C61.5744 123.212 59.9992 121.104 61.1808 115.807C61.2182 115.64 61.3926 115.531 61.5721 115.567C61.7505 115.602 61.8656 115.766 61.8282 115.934C60.7152 120.923 62.1638 122.917 62.1782 122.937C62.2835 123.075 62.2495 123.269 62.1016 123.369C62.0429 123.408 61.9756 123.426 61.9082 123.426Z" fill="black"/>
    <path d="M59.5359 122.073C59.4404 122.073 59.3448 122.035 59.2798 121.959C59.2142 121.884 57.6873 120.062 58.6134 115.409C58.6467 115.24 58.8182 115.129 58.999 115.161C59.1785 115.192 59.2971 115.354 59.2637 115.522C58.3929 119.896 59.7782 121.552 59.792 121.567C59.9077 121.701 59.8864 121.896 59.7448 122.004C59.6832 122.05 59.6096 122.073 59.5359 122.073Z" fill="black"/>
    <path d="M41.9002 57.5429C41.8018 57.5424 41.7275 57.461 41.7437 57.3688C42.0205 55.8185 44.0388 48.4371 46.326 43.9984C52.2751 32.4539 65.6071 30.3208 65.6071 30.3208C61.7361 39.1167 59.1831 48.2646 59.148 56.7085C59.1457 57.227 58.7031 57.648 58.1529 57.6443L41.9002 57.5429Z" fill="#99B9FF"/>
    <path d="M58.1529 57.9538H58.1506L41.8979 57.853C41.754 57.8519 41.6182 57.7921 41.5256 57.6891C41.4329 57.5861 41.3938 57.4508 41.4174 57.3177C41.6579 55.9722 43.4288 48.2156 46.0376 43.8465C52.6699 32.7429 65.2767 30.0443 65.4028 30.019C65.5806 29.9807 65.7573 30.0875 65.797 30.2551C65.8356 30.4222 65.7228 30.5866 65.5443 30.6233C65.4212 30.6497 53.0981 33.2949 46.6149 44.15C44.1885 48.2118 42.4418 55.5355 42.1051 57.2347L58.1547 57.3349C58.3377 57.3355 58.4844 57.4751 58.4833 57.646C58.4821 57.8163 58.3342 57.9538 58.1529 57.9538Z" fill="black"/>
    <path d="M57.6574 58.0752H57.6488L57.2246 58.0725C57.0416 58.0715 56.8943 57.9318 56.896 57.761C56.8972 57.5906 57.0451 57.4532 57.2264 57.4532H57.2287L57.6528 57.4559C57.8324 57.4521 57.9912 57.3939 58.1144 57.279C58.2433 57.1599 58.3141 57.0003 58.3152 56.8284C58.3245 54.5169 58.4758 52.1666 58.7653 49.8421C58.7866 49.6718 58.9518 49.5505 59.1319 49.5699C59.3132 49.5893 59.4433 49.744 59.422 49.9133C59.1359 52.2151 58.9857 54.5417 58.9765 56.8305C58.9748 57.1675 58.8338 57.4839 58.58 57.7195C58.3319 57.9486 58.005 58.0752 57.6574 58.0752Z" fill="black"/>
    <path d="M75.4835 29.6102C75.4835 29.6102 73.4364 29.683 71.7622 29.5698C69.341 29.407 67.1396 30.8301 68.8006 33.1546C72.0972 37.7673 77.4086 38.7657 80.3133 38.4951C85.1552 38.046 85.5856 34.0349 85.5856 34.0349C86.8489 34.7653 87.2322 34.9529 88.2164 34.6823C90.4954 34.0553 92.0718 30.7374 92.0718 30.7374L93.0479 30.9536C93.1917 30.9854 93.3437 30.9573 93.4657 30.8781C93.5865 30.7983 93.6671 30.6738 93.6878 30.5353C93.956 28.6728 94.0383 27.2734 94.7796 25.7435C95.5088 24.2352 95.9329 24.2951 96.8716 20.5443L88.522 13.9165L83.2375 19.8236C83.2375 19.8236 82.647 18.0225 80.898 18.4425C79.6256 18.7476 78.6593 22.3642 79.7194 23.204L75.4835 29.6102Z" fill="white"/>
    <path d="M71.3852 29.8663C70.1922 29.8663 69.158 30.2792 68.7488 30.9395C68.404 31.4948 68.5174 32.201 69.0751 32.9821C72.3797 37.6061 77.6745 38.4298 80.2811 38.1872C84.8012 37.7673 85.2524 34.0413 85.2559 34.0036C85.2674 33.8974 85.3364 33.8036 85.4389 33.7572C85.5408 33.7093 85.6622 33.7146 85.7595 33.7707C87.0342 34.5092 87.2995 34.6111 88.1231 34.3847C90.2272 33.8063 91.7547 30.6441 91.7696 30.6118C91.8347 30.4765 91.9923 30.4026 92.1472 30.4361L93.1238 30.6522C93.1756 30.6625 93.2314 30.6533 93.2758 30.6242C93.3218 30.5945 93.3529 30.5466 93.3598 30.4932C93.4041 30.1903 93.4427 29.8997 93.4795 29.6183C93.6717 28.1801 93.8375 26.9386 94.478 25.6152C94.6754 25.2077 94.8498 24.915 95.0173 24.6314C95.4633 23.8789 95.8495 23.2256 96.5033 20.6575L88.5622 14.3542L83.4908 20.023C83.4131 20.1098 83.291 20.1502 83.1719 20.1276C83.0528 20.1049 82.9567 20.023 82.921 19.9141C82.9008 19.8537 82.3984 18.401 80.9803 18.7416C80.528 18.8505 79.9956 19.7141 79.7412 20.7507C79.492 21.769 79.5709 22.6811 79.9329 22.9674C80.0583 23.0671 80.0865 23.2369 80.0008 23.3668L75.765 29.7725C75.7068 29.8598 75.6061 29.9148 75.4962 29.9191C75.4755 29.9196 73.4111 29.9919 71.7386 29.8781C71.6195 29.8711 71.5015 29.8663 71.3852 29.8663ZM79.4305 38.8444C76.4855 38.8444 71.6529 37.7026 68.5255 33.3265C67.6305 32.0737 67.8418 31.1676 68.1767 30.628C68.7597 29.6884 70.1772 29.1515 71.7858 29.2609C73.1423 29.3515 74.767 29.3197 75.2959 29.3051L79.3079 23.239C78.8336 22.6261 78.8757 21.5151 79.0972 20.6127C79.3441 19.6036 79.9421 18.3519 80.8157 18.1422C82.1084 17.8312 82.9273 18.5648 83.3273 19.2414L88.2687 13.7181C88.3251 13.6545 88.4057 13.6152 88.4938 13.6087C88.5812 13.6011 88.6687 13.6276 88.7355 13.6809L97.0857 20.3071C97.1807 20.3831 97.2215 20.5011 97.1939 20.6143C96.4912 23.4212 96.0567 24.1549 95.5957 24.9317C95.434 25.2039 95.2671 25.4864 95.08 25.8707C94.482 27.109 94.329 28.2502 94.1362 29.6954C94.0988 29.9784 94.059 30.2717 94.0153 30.5762C93.9831 30.801 93.8513 31.0032 93.6544 31.1325C93.4565 31.2614 93.2078 31.3061 92.9719 31.2549L92.2559 31.097C91.8393 31.8878 90.3694 34.4127 88.309 34.9798C87.3185 35.2526 86.838 35.1027 85.8182 34.5308C85.5229 35.6499 84.3874 38.4287 80.3461 38.8039C80.0687 38.8303 79.7614 38.8444 79.4305 38.8444Z" fill="black"/>
    <path d="M80.3135 18.5086C80.3135 18.5086 83.1974 18.562 82.8573 19.7657C82.383 21.4444 81.9888 21.7489 82.2438 22.4594C82.3802 22.8384 82.8302 23.1386 83.2308 23.1834C84.0699 23.2788 84.4946 21.9802 86.1493 20.6541C86.8485 20.0946 87.5604 19.6973 87.961 19.5231C91.0303 18.1917 93.8917 22.1834 97.5164 21.4794C99.9284 21.012 102.07 18.5825 101.81 16.7739C101.701 16.0182 101.138 15.1292 95.589 12.7714C89.9719 10.3839 87.1639 9.19093 85.3274 9.84589C81.0225 11.3828 80.3572 18.0175 80.3135 18.5086Z" fill="black"/>
    <path d="M85.5851 34.3444C85.5092 34.3444 85.4326 34.3207 85.3699 34.27L82.4382 31.9165C81.4419 31.0928 81.0264 29.833 81.3493 28.6228L81.507 28.0325C81.5513 27.866 81.7309 27.7657 81.9081 27.8072C82.0854 27.8482 82.193 28.0164 82.1487 28.1824L81.991 28.7727C81.728 29.757 82.0658 30.7823 82.8721 31.4486L85.8004 33.7994C85.9391 33.9105 85.9552 34.1062 85.8366 34.2361C85.771 34.3072 85.6784 34.3444 85.5851 34.3444Z" fill="black"/>
    <path d="M206.828 103.11C203.8 116.233 197.125 127.567 190.101 136.527L63.7263 120.727L118.674 90.8984L206.828 103.11Z" fill="#99B9FF"/>
    <path d="M110.041 93.856C110.309 95.6801 115.092 100.788 111.428 103.821C110.545 104.552 106.928 106.695 105.129 106.604C99.05 106.296 101.73 102.023 102.458 98.2817C102.458 98.2817 102.512 97.7415 102.312 97.031L110.041 93.856Z" fill="white"/>
    <path d="M105.236 106.917C105.193 106.917 105.151 106.915 105.11 106.913C103.292 106.821 102.098 106.375 101.459 105.55C100.466 104.269 101.009 102.377 101.582 100.373C101.784 99.6678 101.993 98.9384 102.13 98.2414C102.135 98.166 102.159 97.6997 101.992 97.1105C101.945 96.945 102.051 96.7757 102.226 96.7315C102.405 96.6873 102.584 96.7865 102.632 96.9515C102.845 97.7072 102.79 98.2867 102.787 98.311C102.786 98.3196 102.785 98.3277 102.783 98.3368C102.643 99.064 102.428 99.8106 102.222 100.534C101.689 102.391 101.188 104.144 101.994 105.187C102.508 105.851 103.54 106.214 105.147 106.295C106.819 106.376 110.382 104.274 111.209 103.589C113.69 101.535 111.961 98.3902 110.699 96.0933C110.193 95.1726 109.793 94.4448 109.713 93.8993C109.688 93.73 109.814 93.5726 109.995 93.5494C110.174 93.5279 110.343 93.6448 110.368 93.8141C110.433 94.2556 110.829 94.9763 111.287 95.8097C112.571 98.1482 114.513 101.68 111.647 104.053C110.734 104.809 107.175 106.917 105.236 106.917Z" fill="black"/>
    <path d="M162.542 128.067L89.4256 118.909C88.8518 118.839 88.5278 118.379 88.5353 117.921C88.5405 117.605 88.5669 115.376 88.5669 115.376L127.101 94.3418C129.044 93.2825 131.56 92.8733 133.78 93.145L206.237 102.062C206.674 102.116 207.048 102.386 207.22 102.771L207.336 103.031C207.336 103.031 207.274 104.891 207.299 105.325C207.319 105.665 207.159 106.014 206.786 106.217L168.959 126.852C167.014 127.911 164.761 128.338 162.542 128.067Z" fill="#5479F7"/>
    <path d="M162.541 125.587L89.4204 116.575C88.4495 116.456 88.1946 115.228 89.044 114.765L126.668 94.2633C128.612 93.204 130.865 92.7776 133.086 93.0488L206.207 102.061C207.177 102.179 207.433 103.408 206.584 103.871L168.959 124.373C167.014 125.432 164.761 125.858 162.541 125.587Z" fill="white"/>
    <path d="M162.584 125.279C164.719 125.54 166.923 125.123 168.792 124.104L206.417 103.603C206.74 103.427 206.801 103.121 206.751 102.892C206.703 102.667 206.524 102.412 206.164 102.368L133.042 93.3555C130.908 93.0946 128.703 93.5118 126.835 94.5306L89.2102 115.033C88.8879 115.209 88.8258 115.515 88.8753 115.745C88.923 115.968 89.1032 116.224 89.4629 116.268L162.584 125.279ZM163.833 125.975C163.387 125.975 162.942 125.948 162.498 125.893L89.3771 116.882C88.7958 116.811 88.3435 116.412 88.2267 115.866C88.1081 115.315 88.3636 114.777 88.8776 114.498L126.502 93.9959C128.496 92.9081 130.85 92.4633 133.129 92.7415L206.25 101.754C206.831 101.824 207.283 102.223 207.4 102.769C207.519 103.321 207.263 103.858 206.749 104.138L169.125 124.64C167.518 125.515 165.679 125.975 163.833 125.975Z" fill="#5479F7"/>
    <path d="M176.858 114.207L113.451 106.335C112.575 106.228 112.345 105.119 113.112 104.7L128.021 96.659C129.776 95.7022 131.812 95.3173 133.817 95.562L197.222 103.434C198.099 103.541 198.33 104.651 197.562 105.068L182.654 113.11C180.897 114.066 178.863 114.452 176.858 114.207Z" fill="#99B9FF"/>
    <path d="M139.649 118.826L122.002 116.651C121.767 116.622 121.706 116.326 121.911 116.214L130.438 111.765C130.908 111.51 131.451 111.406 131.986 111.473L149.634 113.648C149.868 113.676 149.93 113.972 149.725 114.084L141.198 118.533C140.729 118.788 140.185 118.891 139.649 118.826Z" fill="#99B9FF"/>
    <path d="M187.322 105.157C187.308 105.157 187.293 105.157 187.279 105.155L169.684 102.972C169.504 102.948 169.377 102.793 169.401 102.623C169.425 102.454 169.588 102.335 169.771 102.357L187.365 104.541C187.546 104.564 187.674 104.719 187.65 104.889C187.628 105.044 187.485 105.157 187.322 105.157Z" fill="black"/>
    <path d="M154.398 101.071C154.383 101.071 154.368 101.07 154.354 101.067L134.386 98.5899C134.206 98.5673 134.079 98.4115 134.103 98.2417C134.127 98.0724 134.291 97.9528 134.475 97.9754L154.441 100.454C154.622 100.476 154.748 100.632 154.725 100.802C154.702 100.957 154.561 101.071 154.398 101.071Z" fill="black"/>
    <path d="M178.277 107.69C178.262 107.69 178.249 107.689 178.234 107.687L167.77 106.384C167.589 106.362 167.462 106.205 167.486 106.036C167.51 105.865 167.677 105.747 167.858 105.769L178.321 107.073C178.502 107.096 178.629 107.252 178.605 107.422C178.583 107.577 178.44 107.69 178.277 107.69Z" fill="black"/>
    <path d="M147.264 103.826C147.249 103.826 147.234 103.825 147.22 103.823L127.8 101.403C127.619 101.381 127.492 101.225 127.516 101.055C127.54 100.886 127.707 100.768 127.888 100.789L147.307 103.209C147.488 103.232 147.615 103.387 147.591 103.558C147.569 103.712 147.427 103.826 147.264 103.826Z" fill="black"/>
    <path d="M142.006 107.077C141.992 107.077 141.978 107.076 141.964 107.074L134.264 106.181C134.082 106.16 133.954 106.006 133.976 105.836C133.999 105.666 134.164 105.544 134.345 105.567L142.045 106.46C142.226 106.481 142.355 106.636 142.333 106.805C142.312 106.962 142.169 107.077 142.006 107.077Z" fill="black"/>
    <path d="M133.132 91.7605C131.335 91.5427 129.988 90.0829 129.988 88.3547L129.753 41.1694L130.636 39.3496C130.636 39.3496 132.236 38.3313 133.076 37.8758C133.582 37.6019 134.183 37.4736 134.811 37.5502L206.163 46.2318C207.959 46.4506 209.306 47.9093 209.306 49.6376V96.4137C209.222 99.2825 205.518 100.602 205.518 100.602L133.132 91.7605Z" fill="#99B9FF"/>
    <path d="M201.814 98.489L135.17 90.3799C133.493 90.1761 132.235 88.8139 132.235 87.2V43.5106C132.235 42.0098 133.616 40.8492 135.177 41.0395L201.82 49.1476C203.498 49.3519 204.755 50.7146 204.755 52.3286V96.0163C204.755 97.5182 203.375 98.6788 201.814 98.489Z" fill="white"/>
    <path d="M198.094 86.5887L129.747 78.2731C128.026 78.064 126.736 76.6667 126.736 75.0113V27.6444C126.736 26.1048 128.153 24.9151 129.754 25.1092L198.1 33.4247C199.821 33.6344 201.111 35.0311 201.111 36.6877V84.054C201.111 85.5941 199.694 86.7844 198.094 86.5887Z" fill="#99B9FF"/>
    <path d="M126.736 33.7563V27.6444C126.736 26.1048 128.153 24.9151 129.754 25.1092L198.1 33.4247C199.821 33.6344 201.111 35.0311 201.111 36.6877V42.7996L126.736 33.7563Z" fill="white"/>
    <path d="M198.431 86.9189C198.304 86.9189 198.178 86.9114 198.05 86.8963L148.9 80.9154C148.719 80.8938 148.59 80.7386 148.614 80.5682C148.639 80.399 148.804 80.2782 148.985 80.3014L198.136 86.2817C198.794 86.361 199.459 86.1707 199.963 85.7567C200.483 85.3303 200.781 84.7088 200.781 84.0538V36.6874C200.781 35.191 199.609 33.9204 198.057 33.7318L129.711 25.4162C129.052 25.3364 128.387 25.5272 127.884 25.9412C127.364 26.3687 127.067 26.9892 127.067 27.6441V75.011C127.067 76.5064 128.237 77.777 129.79 77.9662L142.895 79.5607C143.076 79.5823 143.204 79.7381 143.18 79.9079C143.157 80.0771 142.99 80.1979 142.809 80.1742L129.704 78.5802C127.823 78.3516 126.405 76.8174 126.405 75.011V27.6441C126.405 26.8113 126.785 26.0205 127.447 25.476C128.093 24.9445 128.949 24.6982 129.795 24.8022L198.143 33.1178C200.023 33.3469 201.442 34.8805 201.442 36.6874V84.0538C201.442 84.8877 201.061 85.6769 200.4 86.2214C199.85 86.6736 199.15 86.9189 198.431 86.9189Z" fill="black"/>
    <path d="M134.186 29.4134C134.186 30.2549 133.472 30.9368 132.589 30.9368C131.708 30.9368 130.994 30.2549 130.994 29.4134C130.994 28.5725 131.708 27.8911 132.589 27.8911C133.472 27.8911 134.186 28.5725 134.186 29.4134Z" fill="#99B9FF"/>
    <path d="M139.967 30.0702C139.967 30.9117 139.253 31.5936 138.371 31.5936C137.489 31.5936 136.774 30.9117 136.774 30.0702C136.774 29.2293 137.489 28.5474 138.371 28.5474C139.253 28.5474 139.967 29.2293 139.967 30.0702Z" fill="#99B9FF"/>
    <path d="M145.954 30.7929C145.954 31.6339 145.24 32.3158 144.358 32.3158C143.477 32.3158 142.762 31.6339 142.762 30.7929C142.762 29.9514 143.477 29.2695 144.358 29.2695C145.24 29.2695 145.954 29.9514 145.954 30.7929Z" fill="#99B9FF"/>
    <path d="M131.066 36.6651C131.611 36.7324 132.13 37.3146 132.137 37.8273L132.322 56.3371C132.325 56.5969 132.12 56.7667 131.843 56.7322L131.605 56.7117L118.534 55.0794C118.202 55.0385 117.904 54.7253 117.9 54.4126L117.71 35.5266C117.707 35.2651 117.881 35.0279 118.158 35.0624L131.066 36.6651Z" fill="white"/>
    <path d="M118.105 35.3678L118.09 35.3737C118.065 35.3953 118.04 35.4519 118.04 35.5225L118.231 54.4091C118.233 54.5676 118.408 54.7509 118.577 54.7724L131.649 56.4031L131.874 56.423C131.924 56.4284 131.955 56.4247 131.97 56.4117C131.985 56.3993 131.993 56.3729 131.992 56.3395L131.806 37.8297C131.802 37.4594 131.399 37.0184 131.021 36.972L118.115 35.3689L118.105 35.3678ZM131.913 57.0462C131.877 57.0462 131.838 57.043 131.799 57.0386L131.574 57.0192L118.49 55.3864C117.997 55.3244 117.574 54.8802 117.569 54.4161L117.38 35.5279C117.376 35.2815 117.476 35.0562 117.653 34.9096C117.803 34.7845 117.999 34.7301 118.202 34.7549L131.108 36.357C131.811 36.4454 132.459 37.144 132.468 37.8232L132.653 56.3341C132.656 56.5492 132.569 56.7422 132.408 56.8758C132.275 56.9874 132.102 57.0462 131.913 57.0462Z" fill="#5479F7"/>
    <path d="M129.115 50.3611C129.091 50.3611 129.066 50.3606 129.041 50.3574L120.228 49.2631C119.927 49.2253 119.714 48.9655 119.753 48.683C119.794 48.4 120.069 48.2017 120.373 48.2389L129.187 49.3342C129.489 49.3714 129.701 49.6307 129.661 49.9132C129.623 50.1736 129.387 50.3611 129.115 50.3611Z" fill="#99B9FF"/>
    <path d="M124.458 51.634C124.434 51.634 124.409 51.6323 124.385 51.6291L120.152 51.1035C119.85 51.0658 119.639 50.807 119.678 50.5246C119.719 50.2416 119.993 50.0421 120.297 50.0804L124.529 50.6065C124.832 50.6442 125.043 50.9035 125.004 51.186C124.966 51.4448 124.73 51.634 124.458 51.634Z" fill="#99B9FF"/>
    <path d="M129.026 54.1752C129.001 54.1752 128.977 54.1736 128.952 54.1709L120.139 53.076C119.837 53.0388 119.625 52.779 119.665 52.4965C119.705 52.2141 119.981 52.0157 120.283 52.0534L129.097 53.1472C129.399 53.1844 129.611 53.4448 129.572 53.7261C129.535 53.9865 129.298 54.1752 129.026 54.1752Z" fill="#99B9FF"/>
    <path d="M120.543 41.9294C120.386 39.6174 122.25 38.1295 124.707 38.6066C127.161 39.0826 129.28 41.3445 129.436 43.6555C129.593 45.9675 127.729 47.4553 125.273 46.9793C122.817 46.5017 120.699 44.2409 120.543 41.9294Z" fill="white"/>
    <path d="M126.178 47.3785C125.862 47.3785 125.538 47.3467 125.206 47.282C122.617 46.7796 120.378 44.3873 120.212 41.9486C120.176 41.4165 120.239 40.9119 120.399 40.4494C120.456 40.2866 120.642 40.1982 120.816 40.2505C120.989 40.3039 121.085 40.4775 121.029 40.6408C120.894 41.0278 120.841 41.4553 120.873 41.9092C121.02 44.0876 123.024 46.2255 125.34 46.6756C126.436 46.888 127.429 46.6885 128.138 46.1123C128.83 45.549 129.174 44.6838 129.106 43.6752C128.958 41.4968 126.955 39.3584 124.639 38.9099C123.422 38.6727 122.321 38.9525 121.618 39.6759C121.496 39.8031 121.286 39.8123 121.152 39.6964C121.016 39.5815 121.007 39.3859 121.129 39.2592C121.993 38.3692 123.32 38.021 124.773 38.3034C127.362 38.8053 129.6 41.1982 129.767 43.6369C129.847 44.8417 129.424 45.888 128.571 46.5802C127.925 47.1063 127.097 47.3785 126.178 47.3785Z" fill="black"/>
    <path d="M122.145 45.2448C122.989 46.1073 124.091 46.7499 125.273 46.9795C126.454 47.2086 127.497 46.9822 128.246 46.4291C127.306 45.9817 126.261 45.6297 125.167 45.4173C124.073 45.2049 123.048 45.1559 122.145 45.2448Z" fill="#99B9FF"/>
    <path d="M125.241 46.1303C124.854 46.0548 124.52 45.698 124.494 45.333L124.267 41.9639L125.671 42.2361L125.899 45.6058C125.923 45.9702 125.629 46.2052 125.241 46.1303Z" fill="white"/>
    <path d="M127.769 43.8563C127.61 42.7933 128.057 42.2348 126.877 40.8387C125.657 39.3945 124.736 40.0258 124.736 40.0258C124.736 40.0258 123.878 39.2312 122.9 40.354C122.037 41.3448 123.316 42.6316 122.959 43.2838C122.602 43.9361 121.254 44.0671 121.254 44.0671C121.254 44.0671 121.751 44.9835 122.322 45.4547L128.128 46.5824C128.128 46.5824 129.245 45.5856 129.221 45.2363C129.221 45.2363 127.928 44.9204 127.769 43.8563Z" fill="black"/>
    <path d="M122.145 45.2448C122.989 46.1073 124.091 46.7499 125.273 46.9795C126.454 47.2086 127.497 46.9822 128.246 46.4291C127.306 45.9817 126.261 45.6297 125.167 45.4173C124.073 45.2049 123.048 45.1559 122.145 45.2448Z" fill="#99B9FF"/>
    <path d="M122.912 45.512C123.641 46.1034 124.483 46.5093 125.34 46.6758C126.162 46.8349 126.932 46.7599 127.565 46.4672C126.775 46.1357 125.949 45.885 125.1 45.7206C124.339 45.5729 123.607 45.5023 122.912 45.512ZM126.169 47.3777C125.857 47.3777 125.534 47.3459 125.206 47.2823C124 47.0483 122.826 46.3993 121.902 45.4538L121.458 45.002L122.111 44.9368C123.08 44.8403 124.131 44.9002 125.234 45.1142C126.332 45.3276 127.396 45.6764 128.396 46.1529L128.856 46.3729L128.45 46.6721C127.822 47.1373 127.033 47.3777 126.169 47.3777Z" fill="black"/>
    <path d="M124.962 41.0165L124.915 41.0073L123.578 42.0817L123.627 42.8234C123.661 43.3177 123.974 43.8051 124.413 44.1215L124.494 45.3328C124.52 45.6977 124.854 46.0546 125.241 46.13C125.629 46.205 125.923 45.9699 125.899 45.6055L125.818 44.4158C126.248 44.2746 126.52 43.8892 126.486 43.3781L126.432 42.5857C126.384 41.8671 125.725 41.1642 124.962 41.0165Z" fill="white"/>
    <path d="M125.381 46.4531C125.313 46.4531 125.244 46.4466 125.174 46.4337C124.642 46.3296 124.199 45.8553 124.165 45.3529L124.085 44.1772C124.074 44.0063 124.212 43.8597 124.395 43.8483C124.581 43.837 124.733 43.968 124.745 44.1384L124.824 45.3135C124.84 45.5399 125.066 45.7793 125.309 45.8262C125.394 45.8429 125.466 45.8326 125.511 45.796C125.553 45.7615 125.573 45.7006 125.569 45.6251L125.49 44.4704C125.479 44.299 125.617 44.1524 125.8 44.141C125.987 44.1319 126.139 44.2602 126.15 44.4311L126.228 45.5857C126.247 45.8553 126.143 46.1022 125.945 46.2639C125.792 46.3879 125.594 46.4531 125.381 46.4531Z" fill="black"/>
    <path d="M123.919 42.242L123.957 42.8037C123.986 43.235 124.289 43.6856 124.727 43.9514C124.847 44.0231 124.899 44.1541 124.871 44.2759C124.944 44.173 125.079 44.1169 125.215 44.1433C125.496 44.1983 125.748 44.1503 125.922 44.0096C126.089 43.8727 126.173 43.6555 126.155 43.3983L126.102 42.6059C126.066 42.0738 125.6 41.5353 125.043 41.3574L123.919 42.242ZM125.432 44.7837C125.317 44.7837 125.199 44.7729 125.08 44.7498C124.901 44.7147 124.787 44.5508 124.824 44.3837V44.3805C124.724 44.5239 124.521 44.5643 124.369 44.4716C123.75 44.0969 123.34 43.4733 123.298 42.8426L123.249 42.1251C123.241 42.0264 123.286 41.931 123.366 41.8674L124.75 40.7801C124.828 40.7186 124.931 40.6938 125.031 40.7138L125.102 40.73C125.979 40.9343 126.707 41.7412 126.762 42.5666L126.815 43.359C126.847 43.8139 126.683 44.2102 126.355 44.477C126.107 44.6781 125.782 44.7837 125.432 44.7837Z" fill="black"/>
    <path d="M145.183 59.8C145.657 59.8587 146.111 60.366 146.116 60.8123L146.278 76.9335C146.28 77.16 146.101 77.3071 145.859 77.2769L145.653 77.2591L134.268 75.8382C133.979 75.8021 133.721 75.5293 133.717 75.2565L133.551 58.8086C133.548 58.5817 133.7 58.3742 133.942 58.4049L145.183 59.8Z" fill="white"/>
    <path d="M133.898 58.7121C133.904 58.7121 133.881 58.7483 133.882 58.8054L134.048 75.2538C134.049 75.3724 134.185 75.5147 134.313 75.5309L145.697 76.9519L145.891 76.9691C145.927 76.9729 145.941 76.9696 145.944 76.968C145.944 76.9669 145.948 76.9567 145.948 76.9362L145.786 60.8156C145.782 60.5158 145.444 60.1455 145.14 60.1078L133.898 58.7121ZM145.923 77.5901C145.888 77.5901 145.853 77.5885 145.816 77.5836L145.623 77.5669L134.226 76.1443C133.775 76.0888 133.391 75.6834 133.387 75.2603L133.221 58.8108C133.218 58.5849 133.31 58.3779 133.474 58.2421C133.614 58.1251 133.795 58.0744 133.985 58.0971L145.226 59.4927C145.858 59.5714 146.44 60.1989 146.447 60.8086L146.609 76.9308C146.611 77.1297 146.53 77.3087 146.381 77.4322C146.257 77.5362 146.097 77.5901 145.923 77.5901Z" fill="#5479F7"/>
    <path d="M135.989 64.8054C135.695 62.7823 137.164 61.3554 139.269 61.6168C141.373 61.8788 143.318 63.7294 143.612 65.7514C143.905 67.7735 142.436 69.2014 140.332 68.9405C138.227 68.6785 136.282 66.8274 135.989 64.8054Z" fill="white"/>
    <path d="M137.503 67.608C138.28 68.3147 139.261 68.8112 140.279 68.9379C141.297 69.0651 142.167 68.7972 142.763 68.2613C141.935 67.926 141.023 67.6829 140.08 67.5654C139.136 67.4484 138.264 67.4705 137.503 67.608Z" fill="#5479F7"/>
    <path d="M138.28 67.8216C138.914 68.2614 139.621 68.5439 140.323 68.6307C140.988 68.7142 141.6 68.6129 142.096 68.3455C141.429 68.118 140.738 67.9601 140.036 67.8717C139.423 67.7962 138.834 67.7784 138.28 67.8216ZM140.772 69.2781C140.597 69.2781 140.418 69.2684 140.236 69.2447C139.184 69.1148 138.132 68.6118 137.273 67.8296C137.185 67.7493 137.152 67.6296 137.187 67.5191C137.221 67.4086 137.319 67.3256 137.44 67.3041C138.264 67.1542 139.166 67.1396 140.123 67.2582C141.075 67.3768 142.008 67.6183 142.895 67.9768C142.996 68.0183 143.069 68.104 143.089 68.2059C143.109 68.3078 143.073 68.4129 142.993 68.4846C142.414 69.0043 141.64 69.2781 140.772 69.2781Z" fill="black"/>
    <path d="M140.665 63.2856C140.477 63.1573 140.267 63.0759 140.061 63.0506L138.852 62.8997C138.581 62.8662 138.336 62.9315 138.164 63.0846L138.106 63.1347C137.832 63.3762 137.785 63.7956 137.987 64.2015L138.538 65.3103L141.086 65.6117L141.278 64.498C141.351 64.077 141.102 63.5832 140.665 63.2856Z" fill="black"/>
    <path d="M140.101 63.6694L140.083 63.6597L138.418 64.5739L138.519 65.2623C138.576 65.6558 138.818 66.0299 139.15 66.2941L139.302 67.3425C139.362 67.7571 139.762 68.1371 140.193 68.1905C140.625 68.2439 140.927 67.9517 140.866 67.5371L140.718 66.5156C141.004 66.3291 141.16 65.9933 141.1 65.5825L140.994 64.8526C140.925 64.3669 140.562 63.9114 140.101 63.6694Z" fill="white"/>
    <path d="M138.624 63.6938L138.846 65.2199C138.903 65.6123 139.2 66.0021 139.602 66.2145C139.693 66.2624 139.75 66.3449 139.765 66.4339C139.835 66.374 139.93 66.3422 140.033 66.3541C140.267 66.3843 140.471 66.3298 140.606 66.2026C140.749 66.0689 140.808 65.863 140.774 65.6242L140.667 64.8943C140.592 64.3725 140.07 63.8733 139.53 63.8075L138.624 63.6938ZM140.158 66.9821C140.088 66.9821 140.019 66.9772 139.946 66.9692C139.798 66.9503 139.686 66.8425 139.663 66.7126C139.56 66.8004 139.405 66.822 139.277 66.7535C138.693 66.4457 138.276 65.8899 138.191 65.3034L137.911 63.3758C137.897 63.2803 137.932 63.1844 138.005 63.1159C138.077 63.0475 138.181 63.0146 138.283 63.027L139.617 63.1925C140.456 63.2971 141.206 64.0086 141.322 64.8113L141.429 65.5412C141.491 65.9697 141.361 66.3697 141.075 66.6398C140.836 66.8635 140.516 66.9821 140.158 66.9821Z" fill="black"/>
    <path d="M140.768 69.2756H140.76C139.496 69.274 138.18 68.7053 137.153 67.7166C135.333 65.969 135.011 63.4419 136.434 62.084C137.798 60.7843 140.292 61.008 142.113 62.5923C142.247 62.7087 142.255 62.9044 142.131 63.03C142.007 63.1551 141.797 63.1632 141.664 63.0462C140.106 61.691 138.016 61.4603 136.905 62.5184C135.733 63.6375 136.055 65.7755 137.626 67.2848C138.531 68.1549 139.673 68.6541 140.761 68.6562H140.768C141.498 68.6562 142.124 68.4271 142.58 67.9926C143.183 67.4174 143.413 66.5312 143.213 65.562C143.177 65.3943 143.295 65.2315 143.473 65.1987C143.651 65.1663 143.826 65.2758 143.861 65.4439C144.105 66.6164 143.81 67.7037 143.052 68.426C142.469 68.9818 141.68 69.2756 140.768 69.2756Z" fill="black"/>
    <path d="M140.291 68.5053C140.244 68.5053 140.197 68.5037 140.149 68.4972C139.571 68.425 139.054 67.9366 138.974 67.3846L138.822 66.3361C138.797 66.1663 138.924 66.0106 139.105 65.9874C139.285 65.9637 139.453 66.0833 139.478 66.2526L139.629 67.3016C139.67 67.5765 139.953 67.8482 140.236 67.8833C140.307 67.893 140.407 67.8892 140.474 67.8267C140.531 67.7733 140.554 67.6849 140.539 67.5781L140.394 66.5836C140.369 66.4132 140.496 66.258 140.677 66.2348C140.856 66.2105 141.024 66.3302 141.05 66.4995L141.193 67.4951C141.237 67.7927 141.145 68.0725 140.943 68.2633C140.775 68.4212 140.543 68.5053 140.291 68.5053Z" fill="black"/>
    <path d="M191.365 74.6546C191.82 74.7106 192.252 75.1952 192.257 75.6222L192.412 91.0378C192.415 91.255 192.244 91.3952 192.013 91.3671L191.815 91.3493L180.929 89.9904C180.652 89.9559 180.404 89.6949 180.401 89.4346L180.242 73.7058C180.24 73.4886 180.385 73.2902 180.616 73.3198L191.365 74.6546Z" fill="white"/>
    <path d="M180.589 73.6283C180.58 73.6434 180.572 73.6682 180.572 73.7021L180.731 89.432C180.732 89.5376 180.858 89.6697 180.972 89.6837L191.858 91.0427L192.043 91.0583C192.064 91.061 192.077 91.061 192.081 91.0599C192.081 91.0583 192.081 91.0519 192.081 91.0416L191.927 75.625C191.923 75.3441 191.606 74.9975 191.322 74.9614L180.589 73.6283ZM192.072 91.6804C192.038 91.6804 192.003 91.6777 191.969 91.6739L191.784 91.6572L180.886 90.2977C180.448 90.2433 180.075 89.8503 180.07 89.439L179.911 73.7091C179.909 73.4887 179.998 73.2854 180.158 73.1539C180.295 73.0396 180.472 72.99 180.659 73.0127L191.409 74.3469C192.02 74.4234 192.581 75.0293 192.588 75.6185L192.743 91.0352C192.745 91.2298 192.666 91.4044 192.52 91.5252C192.398 91.6276 192.241 91.6804 192.072 91.6804Z" fill="#5479F7"/>
    <path d="M182.906 78.9148C182.768 77.1753 184.152 76.0405 185.995 76.3791C187.84 76.7187 189.445 78.4043 189.583 80.1444C189.72 81.884 188.337 83.0192 186.493 82.6791C184.649 82.3395 183.043 80.6544 182.906 78.9148Z" fill="white"/>
    <path d="M185.355 76.6289C184.794 76.6289 184.297 76.7928 183.917 77.107C183.42 77.521 183.177 78.1544 183.236 78.8913C183.363 80.4988 184.852 82.0621 186.557 82.3753C187.351 82.5214 188.066 82.3715 188.571 81.9516C189.07 81.5387 189.312 80.9042 189.254 80.1673C189.127 78.5604 187.636 76.9971 185.932 76.6833C185.734 76.6472 185.541 76.6289 185.355 76.6289ZM187.138 83.0497C186.908 83.0497 186.671 83.0276 186.429 82.9834C184.452 82.6195 182.723 80.8045 182.575 78.9377C182.502 78.003 182.822 77.189 183.478 76.644C184.142 76.0931 185.059 75.8909 186.059 76.0764C188.037 76.4402 189.765 78.2547 189.913 80.1209C189.988 81.0562 189.666 81.8707 189.01 82.4152C188.507 82.833 187.858 83.0497 187.138 83.0497Z" fill="black"/>
    <path d="M185.479 78.6128C185.45 78.2462 185.741 78.0074 186.129 78.0791C186.518 78.1508 186.855 78.5055 186.885 78.8715C186.914 79.2381 186.623 79.4764 186.234 79.4058C185.847 79.3335 185.508 78.9788 185.479 78.6128Z" fill="white"/>
    <path d="M185.809 78.5896C185.827 78.8182 186.055 79.0564 186.298 79.1017C186.383 79.1174 186.455 79.106 186.499 79.0688C186.541 79.0338 186.562 78.9713 186.555 78.8947C186.537 78.6662 186.309 78.4279 186.066 78.3832C185.98 78.367 185.909 78.3788 185.866 78.4155C185.822 78.45 185.802 78.5131 185.809 78.5896ZM186.367 79.727C186.303 79.727 186.237 79.7216 186.17 79.7098C185.638 79.6117 185.189 79.14 185.149 78.6354C185.128 78.3648 185.229 78.1163 185.427 77.9519C185.626 77.7869 185.905 77.7223 186.193 77.7756C186.727 77.8732 187.175 78.3443 187.215 78.8489C187.236 79.119 187.135 79.3691 186.938 79.533C186.785 79.6602 186.583 79.727 186.367 79.727Z" fill="black"/>
    <path d="M186.296 80.1814C185.483 80.0315 184.873 80.5307 184.933 81.2983L184.996 82.0864C185.456 82.3743 185.964 82.5823 186.493 82.6794C187.022 82.7764 187.511 82.7527 187.94 82.6276L187.877 81.84C187.817 81.0735 187.108 80.3312 186.296 80.1814Z" fill="#5479F7"/>
    <path d="M185.314 81.9088C185.714 82.1406 186.132 82.2975 186.557 82.3751C186.921 82.4425 187.266 82.4468 187.589 82.3913L187.547 81.8625C187.498 81.2382 186.896 80.607 186.232 80.4841C185.939 80.4307 185.68 80.483 185.502 80.6307C185.327 80.7768 185.242 81.0054 185.264 81.2749L185.314 81.9088ZM187.131 83.0495C186.904 83.0495 186.669 83.0274 186.429 82.9832C185.87 82.8808 185.327 82.6651 184.812 82.3433C184.727 82.291 184.674 82.2042 184.667 82.1088L184.603 81.3207C184.567 80.8539 184.731 80.4437 185.063 80.1677C185.4 79.8879 185.86 79.7844 186.359 79.8766C187.323 80.0539 188.134 80.9062 188.207 81.8172L188.27 82.6053C188.28 82.7487 188.184 82.8808 188.038 82.9234C187.749 83.008 187.447 83.0495 187.131 83.0495Z" fill="black"/>
    <path d="M190.308 85.5949C190.284 85.5949 190.259 85.5938 190.235 85.5911L182.439 84.6225C182.137 84.5853 181.925 84.326 181.964 84.0435C182.005 83.761 182.283 83.5616 182.583 83.5993L190.38 84.5675C190.682 84.6052 190.893 84.864 190.853 85.1464C190.816 85.4068 190.58 85.5949 190.308 85.5949Z" fill="#99B9FF"/>
    <path d="M188.325 87.1405C188.3 87.1405 188.276 87.14 188.252 87.1362L182.416 86.4117C182.115 86.3745 181.903 86.1152 181.942 85.8322C181.983 85.5498 182.258 85.3519 182.562 85.388L188.396 86.1131C188.698 86.1508 188.911 86.4101 188.87 86.6926C188.834 86.9529 188.598 87.1405 188.325 87.1405Z" fill="#99B9FF"/>
    <path d="M190.233 89.2038C190.209 89.2038 190.184 89.2017 190.159 89.199L182.364 88.2308C182.061 88.1931 181.85 87.9338 181.889 87.6513C181.93 87.3689 182.203 87.1694 182.509 87.2066L190.305 88.1753C190.607 88.2125 190.819 88.4718 190.778 88.7553C190.741 89.0146 190.505 89.2038 190.233 89.2038Z" fill="#99B9FF"/>
    <path d="M201.464 50.2579C202.01 50.3253 202.53 50.908 202.536 51.4201L202.722 69.9299C202.725 70.1897 202.519 70.359 202.241 70.3245L202.004 70.304L188.933 68.6723C188.6 68.6308 188.303 68.3176 188.298 68.0049L188.108 49.1188C188.106 48.8579 188.28 48.6202 188.557 48.6547L201.464 50.2579Z" fill="white"/>
    <path d="M188.503 48.9607L188.489 48.9661C188.464 48.9877 188.439 49.0448 188.439 49.1149L188.629 68.0021C188.632 68.16 188.806 68.3433 188.977 68.3648L202.048 69.9955L202.273 70.0165C202.322 70.0214 202.353 70.0171 202.368 70.0041C202.383 69.9933 202.391 69.9664 202.391 69.9319L202.205 51.4221C202.201 51.0593 201.791 50.6103 201.421 50.5645L188.514 48.9618L188.503 48.9607ZM202.313 70.6386C202.276 70.6386 202.238 70.6359 202.198 70.6316L201.973 70.6117L188.889 68.9788C188.396 68.9174 187.974 68.4727 187.968 68.0085L187.778 49.1214C187.775 48.875 187.875 48.6492 188.052 48.5025C188.203 48.3775 188.397 48.3225 188.6 48.3478L201.508 49.951C202.212 50.0378 202.859 50.7364 202.867 51.4162L203.052 69.9265C203.055 70.1427 202.968 70.3357 202.807 70.4683C202.673 70.5798 202.501 70.6386 202.313 70.6386Z" fill="#5479F7"/>
    <path d="M199.469 63.5931C199.446 63.5931 199.422 63.591 199.397 63.5888L190.712 62.5102C190.41 62.473 190.198 62.2126 190.238 61.9301C190.278 61.6477 190.552 61.4493 190.857 61.487L199.541 62.5646C199.843 62.6023 200.056 62.8622 200.016 63.1446C199.979 63.4039 199.743 63.5931 199.469 63.5931Z" fill="#99B9FF"/>
    <path d="M197.261 65.3152C197.236 65.3152 197.213 65.3141 197.187 65.3103L190.687 64.5039C190.386 64.4661 190.173 64.2063 190.213 63.9238C190.253 63.6408 190.528 63.4425 190.832 63.4802L197.332 64.2877C197.634 64.3249 197.847 64.5842 197.807 64.8672C197.77 65.127 197.533 65.3152 197.261 65.3152Z" fill="#99B9FF"/>
    <path d="M199.387 67.6128C199.363 67.6128 199.337 67.6106 199.314 67.6079L190.627 66.5293C190.326 66.4915 190.114 66.2322 190.154 65.9498C190.194 65.6673 190.469 65.4684 190.773 65.5067L199.459 66.5843C199.76 66.622 199.972 66.8818 199.932 67.1643C199.895 67.4236 199.658 67.6128 199.387 67.6128Z" fill="#99B9FF"/>
    <path d="M192.995 52.0347C191.335 52.7091 190.66 54.5867 191.488 56.6028C191.865 57.5186 192.497 58.3272 193.262 58.9525C193.284 58.9692 193.305 58.9849 193.326 59.001L193.726 59.2975C194.822 60.0393 196.119 60.4215 197.316 60.2538C199.575 59.9396 200.642 57.5537 199.671 55.4621C198.912 53.8304 198.172 53.1436 196.851 52.4072C194.834 51.2817 192.995 52.0347 192.995 52.0347Z" fill="white"/>
    <path d="M195.708 58.3929C194.579 58.1972 193.518 58.1557 192.572 58.2468C192.785 58.4797 193.014 58.6969 193.258 58.8958C193.278 58.9125 193.3 58.9287 193.32 58.9443L193.72 59.2414C194.816 59.9831 196.053 60.3545 197.25 60.1874C197.944 60.0909 198.524 59.7993 198.969 59.3804C197.945 58.9314 196.88 58.595 195.708 58.3929Z" fill="#5479F7"/>
    <path d="M193.3 58.5131C193.357 58.5638 193.415 58.6134 193.475 58.6619C193.491 58.6765 193.509 58.6889 193.525 58.7024L193.926 58.9988C194.995 59.7223 196.131 60.0301 197.202 59.8813C197.623 59.8225 198.013 59.6791 198.351 59.4624C197.462 59.1083 196.573 58.8571 195.649 58.6975H195.648C194.833 58.5563 194.046 58.4954 193.3 58.5131ZM196.669 60.5373C195.62 60.5373 194.545 60.1821 193.526 59.4921L193.116 59.1881C193.09 59.1681 193.064 59.1498 193.04 59.1293C192.784 58.9207 192.542 58.6916 192.32 58.4479C192.24 58.3601 192.219 58.2382 192.265 58.1315C192.312 58.0248 192.416 57.9498 192.539 57.9385C193.548 57.8415 194.634 57.8921 195.769 58.0884C196.915 58.2862 198.007 58.6172 199.109 59.1002C199.207 59.1433 199.275 59.2274 199.295 59.3266C199.314 59.4258 199.28 59.5277 199.203 59.5988C198.689 60.0824 198.031 60.3923 197.3 60.4942C197.091 60.5233 196.881 60.5373 196.669 60.5373Z" fill="black"/>
    <path d="M198.366 56.1846C197.786 54.6251 196.7 52.5249 195.039 52.4818C193.446 52.4408 192.85 53.9933 192.627 55.2358C192.491 55.9921 193.203 56.8676 194.066 57.0163L197.228 57.563C198.11 57.7155 198.68 57.0298 198.366 56.1846Z" fill="black"/>
    <path d="M196.805 54.2242L196.802 54.2129L193.93 53.7104L193.928 53.7169C193.904 53.8463 193.897 53.9854 193.911 54.1331L193.984 54.9287C194.033 55.4608 194.341 55.9756 194.77 56.3174L194.96 58.3944C194.998 58.8084 195.383 59.2035 195.819 59.2795C196.256 59.3544 196.579 59.0811 196.541 58.6677L196.353 56.6214C196.757 56.4284 197 55.9934 196.948 55.4403L196.867 54.5433C196.857 54.4355 196.836 54.3288 196.805 54.2242Z" fill="white"/>
    <path d="M195.958 59.6016C195.893 59.6016 195.826 59.5951 195.758 59.5838C195.176 59.4841 194.68 58.9731 194.63 58.4211L194.445 56.406C194.429 56.2357 194.565 56.0853 194.746 56.0713C194.924 56.0546 195.089 56.1829 195.104 56.3527L195.289 58.3682C195.314 58.6415 195.59 58.9251 195.88 58.9747C195.985 58.9946 196.078 58.9763 196.136 58.9272C196.194 58.8787 196.221 58.7952 196.211 58.6938L196.025 56.6707C196.01 56.5009 196.145 56.3511 196.327 56.336C196.506 56.3198 196.669 56.4476 196.685 56.6184L196.871 58.6415C196.898 58.9353 196.791 59.207 196.581 59.3854C196.415 59.5272 196.195 59.6016 195.958 59.6016Z" fill="black"/>
    <path d="M195.602 56.0471C195.552 56.0471 195.502 56.0433 195.452 56.0357C195.186 55.9985 194.952 55.8616 194.81 55.6595C194.709 55.5172 194.752 55.3247 194.904 55.2315C195.056 55.1366 195.261 55.1759 195.362 55.3182C195.401 55.3732 195.472 55.4126 195.552 55.4239C195.617 55.4341 195.719 55.4277 195.824 55.3484C195.966 55.2406 196.173 55.2589 196.29 55.3921C196.404 55.5242 196.383 55.7193 196.242 55.8271C196.054 55.9716 195.831 56.0471 195.602 56.0471Z" fill="black"/>
    <path d="M195.853 57.0393C195.753 57.0393 195.651 57.0312 195.546 57.0123C195.366 56.9816 195.248 56.8204 195.281 56.6522C195.314 56.4835 195.487 56.3714 195.666 56.4043C195.939 56.4512 196.177 56.3978 196.352 56.249C196.552 56.0797 196.649 55.794 196.619 55.4674L196.537 54.5693C196.475 53.8992 195.881 53.2389 195.238 53.1273C194.952 53.0777 194.703 53.1343 194.52 53.2901C194.311 53.468 194.209 53.7656 194.239 54.1062L194.312 54.9024C194.36 55.407 194.692 55.9196 195.161 56.2075C195.314 56.3013 195.356 56.4932 195.256 56.6366C195.156 56.7794 194.951 56.8199 194.798 56.725C194.157 56.3309 193.718 55.6528 193.654 54.9547L193.581 54.1596C193.533 53.6243 193.712 53.1408 194.076 52.8319C194.413 52.5446 194.868 52.4341 195.359 52.5182C196.301 52.6815 197.108 53.5591 197.195 54.517L197.278 55.414C197.326 55.9353 197.15 56.407 196.796 56.7072C196.54 56.9261 196.212 57.0393 195.853 57.0393Z" fill="black"/>
    <path d="M196.699 60.5285C194.489 60.5285 192.114 58.9324 191.174 56.7157C190.615 55.3983 190.648 54.0582 191.265 53.0393C191.773 52.2011 192.636 51.6502 193.697 51.4868C196.076 51.1251 198.848 52.8118 199.881 55.2506C200.229 56.0689 200.351 56.9066 200.236 57.6731C200.211 57.8413 200.046 57.9599 199.863 57.9362C199.682 57.9124 199.556 57.7556 199.581 57.5858C199.68 56.927 199.571 56.1982 199.267 55.4786C198.34 53.2959 195.89 51.7774 193.804 52.0981C192.932 52.2318 192.253 52.6631 191.841 53.3455C191.323 54.1999 191.304 55.3449 191.788 56.4877C192.714 58.6704 195.163 60.1889 197.25 59.8682C198.113 59.7361 198.813 59.2908 199.219 58.6132C199.309 58.4644 199.511 58.4111 199.67 58.4952C199.83 58.5798 199.885 58.7685 199.796 58.9173C199.29 59.7614 198.424 60.3161 197.357 60.4789C197.141 60.5129 196.921 60.5285 196.699 60.5285Z" fill="black"/>
    <path d="M151.071 52.5146C151.05 52.3615 151.104 52.2256 151.22 52.1491L161.96 45.1181C162.419 44.8092 163.127 44.8938 163.695 45.3219L176.387 55.1899C176.528 55.2983 176.625 55.4519 176.647 55.6045L176.78 72.2717C176.783 72.544 176.565 72.7208 176.271 72.6852L152.107 69.7662C151.631 69.709 151.205 69.2654 151.203 68.8239L151.071 52.5146Z" fill="white"/>
    <path d="M162.612 45.2413C162.439 45.2413 162.28 45.2834 162.152 45.3696L151.409 52.4033C151.403 52.4071 151.393 52.4314 151.399 52.4734C151.401 52.4863 151.402 52.4998 151.402 52.5128L151.533 68.821C151.535 69.111 151.834 69.4205 152.15 69.4587L176.314 72.3783C176.36 72.3842 176.399 72.3777 176.42 72.3594C176.446 72.3379 176.45 72.2969 176.449 72.2732L176.316 55.6307C176.301 55.5601 176.249 55.4841 176.178 55.4302L163.484 45.5605C163.207 45.3518 162.892 45.2413 162.612 45.2413ZM176.345 72.9998C176.307 72.9998 176.268 72.9977 176.229 72.9928L152.065 70.0727C151.423 69.9951 150.876 69.4242 150.872 68.8253L150.74 52.5343C150.71 52.2739 150.817 52.0368 151.029 51.8961L161.77 44.8635C162.353 44.4726 163.212 44.5594 163.903 45.0812L176.598 54.952C176.802 55.1073 176.94 55.3321 176.974 55.5628C176.977 55.5762 176.977 55.5892 176.977 55.6021L177.11 72.2689C177.112 72.4904 177.023 72.6872 176.859 72.8236C176.72 72.9389 176.541 72.9998 176.345 72.9998Z" fill="black"/>
    <path d="M175.29 69.3756L152.76 66.6787L152.622 47.8314C152.593 47.6293 152.741 47.4864 152.953 47.5123L174.841 50.1564C175.053 50.1817 175.249 50.3661 175.278 50.5682L175.29 69.3756Z" fill="#CADDFF"/>
    <path d="M153.089 66.4059L174.959 69.0242L174.947 50.5963C174.93 50.5365 174.859 50.4713 174.8 50.4632L152.953 47.8239V47.8293L153.089 66.4059ZM175.29 69.6856C175.276 69.6856 175.262 69.6845 175.248 69.6824L152.718 66.986C152.553 66.966 152.43 66.8361 152.429 66.6809L152.292 47.8498C152.271 47.6649 152.334 47.4897 152.465 47.3663C152.6 47.239 152.794 47.1814 152.996 47.2056L174.884 49.8497C175.246 49.8928 175.556 50.185 175.606 50.5273C175.608 50.5403 175.609 50.5543 175.609 50.5683L175.621 69.3756C175.621 69.4646 175.58 69.5498 175.509 69.6085C175.448 69.6581 175.37 69.6856 175.29 69.6856Z" fill="black"/>
    <path d="M171.007 53.3407L156.238 51.5639C155.899 51.5224 155.585 51.227 155.538 50.9036C155.491 50.5796 155.729 50.3505 156.069 50.3915L170.838 52.1682C171.177 52.2092 171.491 52.5051 171.538 52.8291C171.585 53.1525 171.347 53.3816 171.007 53.3407Z" fill="white"/>
    <path d="M165.696 55.3664L156.127 54.2144C155.788 54.1734 155.474 53.8775 155.427 53.554C155.38 53.23 155.617 53.0009 155.958 53.0425L165.527 54.1934C165.867 54.2343 166.182 54.5297 166.228 54.8537C166.275 55.1777 166.037 55.4073 165.696 55.3664Z" fill="white"/>
    <path d="M176.634 56.5306C176.632 56.1295 176.115 55.7915 175.791 55.9807L164.635 62.5444C164.602 62.5605 164.567 62.5762 164.533 62.5891C163.986 62.7923 163.45 62.8306 162.929 62.5304C162.789 62.45 162.662 62.346 162.548 62.2323L151.176 52.3173C151.161 52.3011 151.14 52.293 151.121 52.2946C151.103 52.2957 151.089 52.307 151.085 52.3237L151.104 69.1128C151.104 69.3942 151.375 69.6783 151.679 69.7134L176.287 72.6604C176.538 72.6901 176.725 72.5397 176.724 72.3063L176.634 56.5306Z" fill="white"/>
    <path d="M151.416 52.9496L151.435 69.1128C151.435 69.239 151.582 69.3899 151.721 69.4066L176.329 72.3531C176.363 72.358 176.381 72.3515 176.383 72.3477C176.387 72.345 176.393 72.3316 176.393 72.3073L176.303 56.5327C176.303 56.4368 176.222 56.3268 176.11 56.2691C176.051 56.2389 175.992 56.2276 175.966 56.2438L164.811 62.8063L164.791 62.8171C164.748 62.8392 164.701 62.8597 164.654 62.8775C163.936 63.1432 163.314 63.1163 162.756 62.7939C162.605 62.7071 162.456 62.5923 162.314 62.4516L151.416 52.9496ZM176.35 72.9736C176.316 72.9736 176.281 72.9714 176.245 72.9682L151.637 70.0217C151.169 69.9656 150.773 69.5489 150.773 69.1128L150.755 52.3248C150.755 52.3011 150.758 52.2779 150.762 52.2547C150.8 52.1059 150.933 51.9981 151.096 51.9863C151.21 51.9766 151.324 52.0181 151.408 52.0957L162.773 62.0053L162.789 62.0204C162.893 62.1244 162.999 62.2063 163.102 62.2662C163.483 62.4856 163.886 62.4969 164.411 62.3012C164.431 62.2937 164.451 62.285 164.47 62.2759L175.614 55.7182C175.849 55.5807 176.154 55.584 176.429 55.7263C176.753 55.8934 176.962 56.2087 176.965 56.5289L177.055 72.3046C177.056 72.5067 176.973 72.6863 176.822 72.8113C176.694 72.9181 176.529 72.9736 176.35 72.9736Z" fill="black"/>
    <path d="M174.383 70.6577C174.292 70.6577 174.201 70.6221 174.136 70.5531L167.195 63.2402C167.074 63.1124 167.085 62.9167 167.222 62.8035C167.359 62.6893 167.568 62.7017 167.689 62.8289L174.629 70.1423C174.752 70.2696 174.738 70.4658 174.602 70.579C174.539 70.6318 174.46 70.6577 174.383 70.6577Z" fill="#5479F7"/>
    <path d="M153.553 68.1511C153.471 68.1511 153.39 68.1231 153.326 68.0659C153.194 67.9479 153.188 67.7527 153.314 67.6277L159.265 61.7497C159.391 61.6257 159.6 61.6209 159.732 61.7379C159.864 61.8554 159.871 62.0521 159.745 62.1756L153.794 68.0546C153.728 68.1182 153.642 68.1511 153.553 68.1511Z" fill="#5479F7"/>
    <path d="M140.904 51.0157C139.743 51.1968 138.545 50.4233 138.229 49.2864C137.911 48.1495 138.593 47.08 139.753 46.8973C140.913 46.7162 142.112 47.4897 142.429 48.6266C142.747 49.764 142.064 50.833 140.904 51.0157ZM144.624 48.5603L144.475 48.0282C144.453 47.9495 144.379 47.8902 144.297 47.8859L143.63 47.8455C143.56 47.8406 143.495 47.7975 143.463 47.735C143.409 47.6266 143.348 47.5215 143.283 47.4196C143.245 47.3603 143.241 47.2886 143.279 47.2363L143.632 46.735C143.675 46.673 143.665 46.5852 143.606 46.5232L143.206 46.1049C143.147 46.0434 143.056 46.0245 142.986 46.0601L142.423 46.3447C142.364 46.3738 142.289 46.3652 142.23 46.3232C142.129 46.2509 142.026 46.1836 141.919 46.121C141.857 46.0844 141.817 46.0197 141.82 45.9534L141.843 45.3211C141.845 45.2424 141.791 45.1663 141.711 45.1383L141.165 44.9469C141.085 44.9189 141.003 44.9448 140.963 45.0111L140.657 45.5426C140.625 45.5976 140.56 45.6251 140.49 45.6159C140.37 45.5976 140.25 45.5868 140.13 45.5809C140.06 45.5771 139.993 45.5372 139.961 45.4747L139.648 44.8812C139.609 44.8084 139.525 44.7642 139.445 44.7771L138.901 44.8623C138.821 44.8747 138.767 44.9405 138.771 45.0186L138.801 45.6569C138.805 45.7232 138.766 45.7803 138.703 45.8046C138.596 45.8461 138.493 45.8925 138.393 45.9442C138.334 45.9749 138.26 45.9695 138.2 45.928L137.634 45.5334C137.564 45.4849 137.473 45.4855 137.415 45.5351L137.019 45.8758C136.961 45.9253 136.951 46.0116 136.996 46.0817L137.355 46.6552C137.393 46.7151 137.392 46.7852 137.354 46.8374C137.289 46.9275 137.231 47.0202 137.176 47.1167C137.144 47.1727 137.08 47.2035 137.012 47.1943L136.344 47.1032C136.261 47.0924 136.187 47.1361 136.166 47.2099L136.024 47.7145C136.002 47.7883 136.04 47.8714 136.113 47.9156L136.705 48.2687C136.768 48.3058 136.804 48.3711 136.801 48.4379C136.795 48.5511 136.796 48.6649 136.803 48.7813C136.807 48.8476 136.772 48.9069 136.71 48.9317L136.12 49.1694C136.047 49.1985 136.012 49.2751 136.033 49.3527L136.183 49.8853C136.204 49.9635 136.278 50.0228 136.36 50.0271L137.028 50.068C137.098 50.0724 137.162 50.1155 137.194 50.178C137.248 50.2869 137.309 50.3915 137.374 50.4934C137.412 50.5527 137.415 50.6244 137.378 50.6766L137.025 51.1785C136.982 51.241 136.992 51.3284 137.05 51.3898L137.451 51.8081C137.51 51.8696 137.601 51.8885 137.671 51.8529L138.234 51.5693C138.293 51.5391 138.368 51.5478 138.427 51.5904C138.527 51.662 138.631 51.7294 138.738 51.7925C138.8 51.8286 138.84 51.8933 138.838 51.9596L138.815 52.5919C138.812 52.6706 138.867 52.7466 138.946 52.7747L139.492 52.966C139.571 52.9957 139.655 52.9687 139.694 52.9024L140.001 52.3715C140.032 52.3154 140.098 52.2879 140.168 52.2976C140.287 52.3154 140.407 52.3262 140.527 52.3326C140.597 52.3359 140.664 52.3768 140.697 52.4388L141.011 53.0323C141.049 53.1046 141.133 53.1488 141.212 53.1358L141.756 53.0507C141.836 53.0388 141.89 52.9731 141.885 52.8943L141.855 52.2561C141.853 52.1898 141.892 52.1327 141.953 52.1084C142.06 52.0674 142.165 52.0205 142.265 51.9688C142.323 51.938 142.398 51.9434 142.457 51.9849L143.023 52.3795C143.093 52.4281 143.184 52.4275 143.241 52.3779L143.638 52.0372C143.696 51.9876 143.705 51.9025 143.661 51.8313L143.302 51.2588C143.264 51.199 143.265 51.1278 143.302 51.0755C143.367 50.9855 143.427 50.8928 143.48 50.7969C143.512 50.7403 143.576 50.7095 143.646 50.7187L144.314 50.8098C144.396 50.8206 144.469 50.7769 144.491 50.7031L144.634 50.1985C144.654 50.1246 144.617 50.0416 144.544 49.9974L143.952 49.6443C143.891 49.6071 143.854 49.5419 143.857 49.4756C143.862 49.3619 143.861 49.2481 143.854 49.1328C143.85 49.0654 143.885 49.0066 143.947 48.9813L144.537 48.7436C144.609 48.715 144.646 48.6379 144.624 48.5603Z" fill="#5479F7"/>
    <path d="M181.51 48.1003C180.194 48.3073 178.834 47.4287 178.474 46.1387C178.113 44.8482 178.888 43.6347 180.205 43.4277C181.521 43.2213 182.881 44.0999 183.241 45.3899C183.601 46.6804 182.827 47.8939 181.51 48.1003ZM185.733 45.3145L185.564 44.7096C185.539 44.6212 185.455 44.5544 185.361 44.549L184.605 44.5032C184.525 44.4983 184.452 44.4487 184.415 44.3776C184.353 44.2552 184.283 44.1366 184.21 44.0202C184.167 43.9528 184.164 43.8714 184.206 43.8126L184.606 43.2428C184.656 43.1711 184.644 43.0725 184.578 43.0035L184.123 42.5275C184.056 42.4585 183.953 42.4369 183.874 42.4774L183.235 42.7992C183.169 42.8331 183.084 42.8224 183.017 42.7749C182.902 42.6935 182.784 42.6175 182.662 42.5464C182.591 42.5054 182.547 42.431 182.549 42.3566L182.575 41.638C182.579 41.5491 182.516 41.4629 182.426 41.431L181.808 41.2133C181.717 41.1815 181.622 41.2111 181.579 41.286L181.23 41.8898C181.194 41.9523 181.119 41.983 181.04 41.9717C180.905 41.9523 180.768 41.9394 180.631 41.9329C180.552 41.9291 180.478 41.8828 180.44 41.8122L180.084 41.1394C180.04 41.0559 179.944 41.0068 179.854 41.0203L179.238 41.1179C179.147 41.1319 179.086 41.2057 179.09 41.2957L179.125 42.0186C179.128 42.0946 179.084 42.1588 179.013 42.1874C178.891 42.2337 178.773 42.2871 178.661 42.3453C178.594 42.3803 178.509 42.3744 178.441 42.327L177.8 41.8795C177.72 41.824 177.617 41.8251 177.551 41.8812L177.102 42.2677C177.035 42.3237 177.024 42.4208 177.075 42.5016L177.483 43.1523C177.526 43.2202 177.524 43.3011 177.482 43.3598C177.408 43.4617 177.341 43.5663 177.28 43.6757C177.244 43.7393 177.171 43.7754 177.092 43.7641L176.335 43.6606C176.241 43.6477 176.158 43.6983 176.134 43.7824L175.972 44.3544C175.949 44.4374 175.99 44.5328 176.074 44.5824L176.746 44.9835C176.816 45.025 176.857 45.0999 176.852 45.1759C176.848 45.3042 176.848 45.433 176.857 45.564C176.86 45.6406 176.821 45.7085 176.75 45.736L176.082 46.0061C175.999 46.0395 175.958 46.1252 175.983 46.2141L176.151 46.819C176.176 46.9068 176.26 46.9742 176.354 46.9802L177.11 47.0254C177.191 47.0303 177.263 47.0799 177.3 47.151C177.362 47.2734 177.431 47.3925 177.505 47.5084C177.548 47.5758 177.551 47.6572 177.509 47.716L177.108 48.2858C177.058 48.3558 177.07 48.4561 177.137 48.5256L177.592 49.0006C177.659 49.0701 177.762 49.0917 177.841 49.0512L178.479 48.7294C178.547 48.6949 178.631 48.7062 178.698 48.7531C178.813 48.8351 178.931 48.9111 179.053 48.9822C179.124 49.0237 179.168 49.0971 179.166 49.172L179.139 49.8906C179.136 49.9795 179.198 50.0647 179.289 50.0976L179.907 50.3153C179.998 50.3471 180.093 50.3175 180.136 50.2426L180.484 49.6388C180.521 49.5763 180.596 49.5445 180.674 49.5569C180.81 49.5763 180.947 49.5892 181.084 49.5957C181.162 49.6 181.237 49.6458 181.275 49.717L181.631 50.3892C181.675 50.4727 181.771 50.5223 181.861 50.5072L182.477 50.4108C182.568 50.3973 182.629 50.3229 182.625 50.2334L182.59 49.51C182.587 49.4334 182.631 49.3687 182.702 49.3412C182.824 49.2949 182.941 49.2415 183.055 49.1822C183.12 49.1477 183.206 49.1542 183.273 49.2011L183.915 49.6491C183.994 49.7046 184.098 49.7035 184.164 49.6474L184.613 49.2609C184.679 49.2049 184.69 49.1073 184.64 49.027L184.231 48.3769C184.189 48.3084 184.19 48.2281 184.233 48.1688C184.307 48.0669 184.374 47.9623 184.435 47.8529C184.471 47.7893 184.542 47.7537 184.622 47.7645L185.38 47.868C185.474 47.8809 185.557 47.8303 185.581 47.7462L185.742 47.1742C185.767 47.0901 185.725 46.9958 185.642 46.9462L184.969 46.5446C184.899 46.5036 184.858 46.4276 184.861 46.3527C184.867 46.2249 184.866 46.0956 184.858 45.9635C184.854 45.888 184.894 45.8206 184.964 45.7926L185.633 45.5231C185.716 45.4891 185.757 45.4034 185.733 45.3145Z" fill="white"/>
    <path d="M151.528 41.4905C150.046 42.1164 148.182 41.4108 147.363 39.9159C146.544 38.4211 147.081 36.7026 148.563 36.0762C150.045 35.4514 151.91 36.156 152.728 37.6508C153.547 39.1462 153.01 40.8652 151.528 41.4905ZM155.609 36.8233L155.265 36.1942C155.197 36.0708 155.053 35.9986 154.918 36.0217L154.087 36.1662C153.976 36.1851 153.856 36.1414 153.78 36.0514C153.678 35.9296 153.573 35.8137 153.462 35.7021C153.379 35.618 153.35 35.4999 153.387 35.4007L153.659 34.6466C153.703 34.5248 153.649 34.3808 153.529 34.2994L152.92 33.8865C152.8 33.8057 152.646 33.8094 152.548 33.8957L151.948 34.4288C151.87 34.4989 151.749 34.5167 151.64 34.4698C151.495 34.4078 151.348 34.3528 151.199 34.3032C151.087 34.2671 151.002 34.1717 150.979 34.0617L150.805 33.2359C150.775 33.1022 150.657 32.9955 150.516 32.9782L149.805 32.8914C149.665 32.8747 149.542 32.9523 149.509 33.0785L149.303 33.8558C149.275 33.9598 149.187 34.0337 149.074 34.0434C148.925 34.0563 148.776 34.0763 148.628 34.1032C148.518 34.1226 148.399 34.0768 148.321 33.9868L147.746 33.3108C147.653 33.2019 147.5 33.1609 147.377 33.2122L146.755 33.4752C146.632 33.527 146.573 33.6574 146.612 33.7895L146.854 34.6062C146.886 34.7151 146.853 34.8256 146.766 34.8892C146.65 34.9733 146.54 35.0628 146.435 35.1576C146.355 35.2277 146.234 35.2428 146.125 35.1964L145.305 34.8525C145.171 34.7965 145.025 34.8331 144.953 34.9393L144.586 35.4816C144.514 35.5883 144.535 35.7371 144.635 35.839L145.262 36.4751C145.345 36.5592 145.376 36.6767 145.339 36.777C145.29 36.9101 145.247 37.046 145.212 37.1834C145.185 37.2875 145.094 37.3581 144.982 37.3683L144.133 37.447C143.996 37.4605 143.896 37.5635 143.894 37.6961L143.88 38.3721C143.878 38.5057 143.972 38.6319 144.109 38.6777L144.949 38.9613C145.06 38.9995 145.148 39.0922 145.17 39.2017C145.2 39.3467 145.237 39.4922 145.282 39.6378C145.315 39.7461 145.279 39.8556 145.193 39.9202L144.545 40.4006C144.441 40.4776 144.415 40.621 144.483 40.7445L144.826 41.3736C144.894 41.497 145.038 41.5682 145.173 41.545L146.004 41.4016C146.115 41.3816 146.235 41.4269 146.311 41.5164C146.412 41.6382 146.519 41.7541 146.629 41.8657C146.713 41.9487 146.741 42.0668 146.705 42.1671L146.432 42.9201C146.388 43.0425 146.442 43.1864 146.562 43.2684L147.172 43.6807C147.291 43.7621 147.445 43.7584 147.542 43.6721L148.141 43.139C148.221 43.0678 148.343 43.0511 148.452 43.0969C148.596 43.1589 148.743 43.215 148.891 43.2635C149.003 43.3013 149.089 43.3961 149.112 43.505L149.287 44.3319C149.315 44.4645 149.435 44.5724 149.574 44.5896L150.286 44.6753C150.426 44.6931 150.549 44.6155 150.583 44.4893L150.789 43.7115C150.817 43.6074 150.904 43.5336 151.017 43.5244C151.166 43.5115 151.315 43.4905 151.463 43.4646C151.573 43.4441 151.693 43.4905 151.769 43.5805L152.344 44.2559C152.438 44.3659 152.591 44.4069 152.714 44.3557L153.337 44.0921C153.46 44.0403 153.518 43.9099 153.479 43.7778L153.238 42.9611C153.205 42.8527 153.239 42.7412 153.326 42.6786C153.441 42.5945 153.551 42.5045 153.656 42.4102C153.735 42.339 153.856 42.325 153.966 42.3708L154.786 42.7153C154.919 42.7714 155.065 42.7347 155.139 42.628L155.505 42.0862C155.578 41.9795 155.557 41.8307 155.456 41.7277L154.829 41.0916C154.747 41.0075 154.715 40.89 154.752 40.7903C154.801 40.6577 154.843 40.5218 154.88 40.3844C154.907 40.2803 154.996 40.2086 155.109 40.1984L155.958 40.1202C156.095 40.1073 156.194 40.0043 156.197 39.8707L156.211 39.1947C156.213 39.0621 156.118 38.9348 155.982 38.889L155.142 38.6055C155.03 38.5683 154.943 38.4756 154.92 38.3661C154.891 38.22 154.853 38.075 154.809 37.93C154.777 37.8211 154.812 37.7122 154.898 37.6476L155.546 37.1673C155.65 37.0896 155.677 36.9468 155.609 36.8233Z" fill="#5479F7"/>
    <path d="M175.29 38.4122C175.29 40.1291 173.826 41.37 172.022 41.1829C170.216 40.9953 168.753 39.4526 168.753 37.7356C168.753 36.0187 170.216 34.7789 172.022 34.9659C173.826 35.1524 175.29 36.6963 175.29 38.4122Z" fill="#5479F7"/>
    <path d="M173.39 37.9606L171.64 36.6518C171.425 36.4906 171.135 36.6076 171.135 36.854V39.1094C171.135 39.3568 171.425 39.5331 171.64 39.4167L173.39 38.4695C173.579 38.3676 173.579 38.1019 173.39 37.9606Z" fill="white"/>
    <path d="M104.011 119.332C104.011 119.332 114.614 117.584 122.021 117.198C129.427 116.812 141.423 93.1572 141.671 90.3018C148.915 75.3961 150.136 71.4691 151.436 71.8421C152.825 72.241 148.894 80.4256 151.605 82.3382C151.836 82.5005 152.173 82.6627 152.565 83.0837C153.565 84.1581 153.957 85.8858 153.535 87.3402C153.074 88.9272 152.614 89.5277 150.036 91.533C149.195 92.1879 148.605 93.0887 148.381 94.1032C147.005 100.384 141.802 121.961 134.302 127.238C125.497 133.431 102.033 138.576 102.033 138.576L104.011 119.332Z" fill="white"/>
    <path d="M104.316 119.597L102.407 138.173C105.697 137.422 126.123 132.604 134.103 126.989C141.486 121.797 146.651 100.457 148.058 94.0408C148.292 92.9746 148.919 91.9994 149.825 91.2949C152.426 89.2707 152.791 88.7224 153.216 87.2584C153.608 85.9107 153.238 84.2773 152.316 83.2871C152.045 82.9954 151.808 82.8445 151.599 82.7119C151.529 82.6672 151.464 82.6267 151.406 82.5852C149.633 81.3335 150.374 77.9277 150.97 75.1909C151.216 74.0589 151.589 72.3479 151.333 72.1355C150.705 71.956 149.46 74.6146 146.978 79.9115C145.707 82.624 144.126 85.9969 141.995 90.3833C141.788 92.0754 138.583 98.8142 134.816 104.831C131.269 110.495 126.176 117.291 122.039 117.507C115.362 117.856 105.956 119.333 104.316 119.597ZM102.033 138.885C101.954 138.885 101.876 138.858 101.816 138.809C101.735 138.744 101.694 138.646 101.704 138.546L103.682 119.302C103.696 119.163 103.807 119.05 103.954 119.027C104.06 119.009 114.662 117.271 122.002 116.888C128.996 116.524 141.083 93.2516 141.341 90.276C141.345 90.2404 141.354 90.2059 141.37 90.1731C143.511 85.7684 145.097 82.3831 146.372 79.6624C149.654 72.6589 150.339 71.2029 151.533 71.5463C152.385 71.7905 152.081 73.1931 151.618 75.3154C151.089 77.745 150.364 81.0742 151.804 82.0904C151.855 82.1259 151.91 82.161 151.97 82.1993C152.189 82.3378 152.486 82.5275 152.815 82.8806C153.89 84.0358 154.308 85.8606 153.854 87.4211C153.36 89.1187 152.821 89.7688 150.248 91.7714C149.458 92.3859 148.909 93.2366 148.707 94.1659C147.286 100.636 142.069 122.162 134.5 127.485C125.741 133.646 102.344 138.826 102.108 138.877C102.084 138.883 102.059 138.885 102.033 138.885Z" fill="black"/>
    <path d="M103.114 117.768C89.5165 117.98 84.7719 116.629 72.8955 113.176C64.6131 110.769 59.2176 110.318 53.817 110.953C47.8206 111.658 40.6905 118.815 45.1444 144.395C46.0163 149.407 52.5381 170.313 62.3416 175.11C66.6747 177.23 87.8895 181.62 101.664 180.799C95.1865 172.959 89.6633 159.885 90.8603 150.383C91.4198 145.947 104.105 141.959 104.105 141.959C104.105 141.959 113.187 131.161 109.076 121.526C108.016 119.04 105.929 117.724 103.114 117.768Z" fill="#5479F7"/>
    <path d="M81.4351 87.645C81.4351 87.645 81.8759 89.6746 82.0636 90.3134C82.2408 90.9198 82.5562 92.9305 84.3173 95.0183C84.4859 95.2172 84.4664 95.5094 84.2799 95.6938L82.8451 97.1158C82.7461 97.2134 82.6943 97.3455 82.7035 97.4818C82.7588 98.3249 82.9545 101.418 82.8917 102.001C82.8186 102.678 82.3047 103.306 82.0382 103.47C81.3361 103.9 78.1443 103.728 78.1443 103.728C78.1443 103.728 77.3011 103.863 75.9579 108.3C75.0123 111.423 79.381 116.442 79.381 116.442C79.381 116.442 68.281 118.596 59.1762 114.248C58.6128 113.98 58.6376 113.184 59.1676 112.856C61.2613 111.558 66.1446 107.069 68.19 102.655C68.3121 102.392 68.5382 102.186 68.8254 102.091C69.9932 101.705 72.8057 102.365 72.6147 97.3444C72.61 97.2161 72.5698 97.0889 72.499 96.9794C71.905 96.0673 69.2536 91.2088 74.3648 92.151C77.7385 92.7726 78.9091 90.8347 79.2821 89.7646C79.4041 89.4142 79.6475 88.8876 79.9928 88.7134L81.4351 87.645Z" fill="white"/>
    <path d="M73.1855 92.3383C72.5283 92.3383 72.0771 92.4995 71.8382 92.8208C71.116 93.79 72.3073 96.0897 72.7809 96.8185C72.8816 96.9732 72.9381 97.1516 72.9455 97.3333C73.1136 101.761 70.9174 102.071 69.6052 102.256C69.3497 102.292 69.108 102.326 68.9359 102.383C68.7419 102.447 68.5802 102.592 68.4933 102.779C66.3737 107.353 61.4127 111.836 59.35 113.114C59.182 113.218 59.0812 113.414 59.0933 113.612C59.0997 113.708 59.1371 113.883 59.3264 113.974C67.1069 117.688 76.4787 116.578 78.783 116.227C77.7488 114.94 74.8096 110.959 75.6395 108.216C76.9034 104.041 77.7736 103.474 78.089 103.424C78.1137 103.42 78.1385 103.419 78.1632 103.42C79.4437 103.488 81.4356 103.469 81.8575 103.211C82.0261 103.108 82.498 102.569 82.5625 101.97C82.6097 101.529 82.4957 99.372 82.3731 97.5009C82.3588 97.281 82.4434 97.0632 82.6045 96.9031L84.0393 95.4805C84.1152 95.4067 84.1233 95.287 84.0583 95.2105C82.4779 93.3378 82.0336 91.547 81.8201 90.6861C81.7907 90.5691 81.7665 90.471 81.7447 90.3961C81.6123 89.946 81.3625 88.8458 81.2198 88.2L80.1982 88.9568C80.1827 88.9681 80.1666 88.9778 80.1493 88.987C79.9669 89.0786 79.7493 89.422 79.5963 89.8608C79.2446 90.8694 78.0245 93.1405 74.3003 92.4548C73.8796 92.3782 73.5078 92.3383 73.1855 92.3383ZM72.7654 117.274C68.7897 117.274 63.6382 116.728 59.026 114.525C58.6778 114.359 58.4562 114.031 58.4332 113.647C58.4079 113.227 58.6191 112.825 58.9851 112.598C61.118 111.277 65.9167 106.783 67.8867 102.532C68.0467 102.188 68.3488 101.92 68.716 101.799C68.9474 101.722 69.219 101.684 69.5068 101.643C70.8098 101.46 72.4316 101.231 72.2843 97.3559C72.2814 97.2799 72.2572 97.2039 72.2163 97.1403C72.1323 97.012 70.1773 93.9674 71.2961 92.4656C71.8152 91.768 72.869 91.5599 74.4281 91.8473C77.5186 92.4165 78.5989 90.7265 78.9678 89.6684C79.1168 89.2403 79.3827 88.6873 79.808 88.4555L81.2302 87.4021C81.3199 87.3353 81.4402 87.3175 81.5484 87.3542C81.6566 87.3914 81.736 87.4776 81.7591 87.5833C81.7637 87.6043 82.1993 89.6101 82.3823 90.2328C82.4059 90.3136 82.4324 90.4198 82.4641 90.546C82.6667 91.3626 83.0885 93.0628 84.5768 94.8256C84.8456 95.1436 84.8208 95.6088 84.5204 95.9064L83.0851 97.329C83.0488 97.3651 83.0304 97.4131 83.0333 97.4632C83.1104 98.6421 83.2836 101.446 83.2209 102.032C83.1392 102.789 82.5867 103.504 82.2195 103.73C81.5001 104.17 78.9396 104.079 78.2196 104.043C78.0516 104.17 77.3356 104.885 76.2761 108.386C75.3886 111.316 79.5945 116.197 79.6371 116.246C79.7096 116.33 79.7309 116.444 79.6924 116.545C79.6538 116.647 79.5611 116.723 79.4478 116.745C79.3925 116.755 76.6363 117.274 72.7654 117.274Z" fill="black"/>
    <path d="M73.7921 97.7907C73.2689 97.7907 72.4488 97.5951 71.8514 96.5342C71.7657 96.3822 71.8278 96.1951 71.9895 96.1159C72.1513 96.0361 72.351 96.0943 72.4362 96.2447C72.7694 96.8371 73.2039 97.1487 73.7259 97.1703C74.2657 97.1945 74.7244 96.898 74.805 96.7962C74.8695 96.6474 75.0484 96.5676 75.2136 96.6194C75.3874 96.6738 75.4818 96.8485 75.4243 97.0102C75.3126 97.3304 74.6605 97.7287 73.9561 97.7837C73.9055 97.7886 73.8508 97.7907 73.7921 97.7907Z" fill="black"/>
    <path d="M84.1549 94.9836C83.9834 94.9836 83.8389 94.8601 83.8257 94.6973C83.8113 94.527 83.9471 94.3782 84.1296 94.3653C84.7811 94.3184 85.2495 94.0844 85.5626 93.6521C86.3862 92.5109 85.8959 90.3616 85.6841 89.5999L74.6191 92.0063C74.4407 92.0446 74.264 91.9422 74.2226 91.7756C74.1811 91.6085 74.2916 91.4425 74.47 91.4042L85.8429 88.9288C86.0115 88.8927 86.1813 88.9833 86.2331 89.1374C86.2769 89.269 87.295 92.3583 86.1105 93.9987C85.6829 94.5895 85.0337 94.921 84.1802 94.983L84.1549 94.9836Z" fill="black"/>
    <path d="M75.2994 99.2308C75.2303 98.7796 74.7952 98.4702 74.3285 98.5375C73.8617 98.606 73.5394 99.0259 73.6091 99.476C73.6787 99.9272 74.1132 100.237 74.5805 100.169C75.0473 100.101 75.3696 99.6809 75.2994 99.2308Z" fill="#5479F7"/>
    <path d="M72.1439 92.4496C73.581 91.3607 75.6862 92.8733 76.877 92.4496C79.1175 91.6523 78.6968 90.0653 79.6251 89.2308C81.5893 87.4622 83.0281 87.1646 83.164 86.5549C84.4324 80.8689 81.9134 77.5639 80.6628 76.4232C76.0782 72.2455 68.4554 71.5172 62.2231 76.3257C59.9285 78.097 58.3602 83.7103 57.2039 84.5604C54.1238 86.8277 50.9549 83.7917 44.4274 86.4789C37.3865 89.3775 41.1832 94.6409 39.3288 98.528C37.7709 101.794 33.4954 100.906 30.8215 102.898C26.6363 106.014 26.3324 112.563 27.9807 118.344C29.4138 123.371 37.1367 132.007 46.9769 128.146C59.7978 123.117 53.1862 115.481 60.2709 112.666C70.1756 108.731 70.3868 106.129 72.1439 100.858C72.5404 99.6676 72.9174 97.554 72.9174 97.554C72.9174 97.554 69.7106 94.2943 72.1439 92.4496Z" fill="black"/>
    <path d="M191.567 162.919H174.352C174.352 162.919 171.991 176.452 182.265 177.533C192.541 178.613 191.567 162.919 191.567 162.919Z" fill="white"/>
    <path d="M174.64 163.229C174.457 164.565 173.813 170.729 176.802 174.419C178.11 176.035 179.96 176.978 182.303 177.225C184.42 177.447 186.197 176.936 187.585 175.705C191.323 172.387 191.297 164.809 191.249 163.229H174.64ZM183.252 177.895C182.92 177.895 182.578 177.877 182.228 177.84C179.698 177.574 177.695 176.548 176.273 174.792C172.753 170.442 173.971 163.176 174.025 162.869C174.051 162.719 174.189 162.61 174.351 162.61H191.567C191.742 162.61 191.887 162.738 191.897 162.901C191.921 163.282 192.425 172.263 188.039 176.154C186.736 177.312 185.128 177.895 183.252 177.895Z" fill="black"/>
    <path d="M186.405 159.609C187.635 159.643 190.257 159.681 192.725 158.097C193.638 157.51 196.145 155.899 195.911 153.782C195.71 151.966 193.551 150.294 190.623 149.993C194.098 150.382 196.894 147.927 196.898 145.39C196.902 143.446 195.267 141.516 192.85 140.878C196.596 138.21 198.563 133.91 197.941 129.642C197.336 125.491 194.287 121.405 189.684 120.143C189.105 119.985 184.449 119.706 180.847 122.599C177.824 125.027 177.445 127.782 177.422 130.351C177.381 134.92 179.325 138.392 180.502 140.134C180.256 140.118 177.77 139.348 175.448 141.293C173.08 143.276 172.964 147.833 174.117 149.637C175.325 151.524 178.235 151.126 178.753 151.263C176.576 153.075 176.652 154.585 176.676 154.869C176.923 157.818 182.592 159.505 186.405 159.609Z" fill="#5479F7"/>
    <path d="M185.16 161.72C184.997 161.72 184.856 161.606 184.833 161.451C182.621 146.054 187.783 128.703 187.836 128.53C187.885 128.365 188.069 128.27 188.243 128.317C188.419 128.362 188.521 128.533 188.473 128.698C188.419 128.87 183.295 146.101 185.488 161.369C185.513 161.538 185.386 161.694 185.205 161.716C185.189 161.719 185.175 161.72 185.16 161.72Z" fill="#CADDFF"/>
    <path d="M182.682 160.316C183.073 159.413 184.765 155.25 182.57 151.741C182.118 151.02 180.608 148.605 178.414 148.777C176.78 148.904 175.749 150.391 175.521 150.736C176.18 148.473 174.998 146.181 173.025 145.389C170.693 144.453 167.595 145.748 166.736 148.459C166.159 148.305 164.602 147.971 163.03 148.67C160.961 149.591 159.715 151.924 159.998 154.493C160.859 157.249 163.53 158.935 166.063 158.622C168.812 158.28 170.125 155.736 170.217 155.552C169.788 156.187 169.158 157.368 169.543 158.515C170.191 160.444 173.41 161.401 175.719 160.844C177.864 160.328 178.485 158.687 180.211 158.833C181.349 158.93 182.192 159.737 182.682 160.316Z" fill="#99B9FF"/>
    <path d="M182.854 161.545C182.697 161.545 182.558 161.439 182.529 161.288C182.482 161.039 181.318 155.174 175.521 153.096C171.359 151.604 167.617 153.098 166.57 153.592C166.407 153.669 166.208 153.607 166.126 153.455C166.043 153.301 166.109 153.115 166.273 153.038C167.381 152.516 171.341 150.934 175.758 152.518C181.901 154.72 183.131 160.919 183.181 161.181C183.211 161.349 183.092 161.51 182.912 161.54C182.893 161.542 182.873 161.545 182.854 161.545Z" fill="white"/>
    <path d="M112.872 166.624C112.731 166.624 112.6 166.539 112.556 166.406L112.111 165.064C112.057 164.901 112.154 164.727 112.327 164.677C112.502 164.626 112.688 164.717 112.742 164.88L113.188 166.222C113.242 166.385 113.145 166.559 112.971 166.61C112.939 166.62 112.905 166.624 112.872 166.624Z" fill="black"/>
    <path d="M111.311 161.926C111.17 161.926 111.04 161.841 110.995 161.709L110.549 160.367C110.495 160.203 110.592 160.03 110.767 159.979C110.942 159.928 111.126 160.02 111.18 160.183L111.627 161.525C111.681 161.688 111.584 161.861 111.409 161.912C111.376 161.922 111.343 161.926 111.311 161.926Z" fill="black"/>
    <path d="M113.622 163.091C113.481 163.091 113.349 163.007 113.306 162.875C113.252 162.712 113.349 162.538 113.524 162.487L114.925 162.077C115.1 162.026 115.285 162.117 115.34 162.281C115.394 162.443 115.297 162.617 115.123 162.669L113.721 163.078C113.688 163.088 113.654 163.091 113.622 163.091Z" fill="black"/>
    <path d="M108.714 164.526C108.573 164.526 108.442 164.441 108.398 164.309C108.344 164.145 108.441 163.972 108.615 163.92L110.018 163.511C110.192 163.46 110.377 163.551 110.431 163.714C110.486 163.877 110.389 164.052 110.214 164.102L108.812 164.512C108.779 164.521 108.746 164.526 108.714 164.526Z" fill="black"/>
    <path d="M131.554 159.176C131.425 159.176 131.296 159.193 131.169 159.228C130.812 159.327 130.517 159.553 130.338 159.863C129.972 160.498 130.214 161.293 130.877 161.634C131.193 161.795 131.558 161.832 131.906 161.736C132.263 161.637 132.559 161.412 132.737 161.1C133.103 160.465 132.861 159.672 132.198 159.331C131.998 159.227 131.777 159.176 131.554 159.176ZM131.52 162.408C131.187 162.408 130.858 162.33 130.56 162.177C129.578 161.673 129.218 160.503 129.756 159.57C130.019 159.112 130.454 158.78 130.982 158.634C131.499 158.491 132.043 158.545 132.516 158.787C133.497 159.29 133.857 160.46 133.319 161.394C133.056 161.852 132.621 162.184 132.093 162.33C131.905 162.382 131.711 162.408 131.52 162.408Z" fill="black"/>
    <path d="M146.276 148.666C146.972 149.025 147.227 149.853 146.845 150.518C146.462 151.182 145.587 151.432 144.89 151.074C144.194 150.716 143.94 149.887 144.323 149.223C144.706 148.558 145.58 148.309 146.276 148.666Z" fill="#99B9FF"/>
    <path d="M111.586 176.365C111.417 176.365 111.271 176.244 111.255 176.083C111.237 175.911 111.37 175.758 111.554 175.74C112.836 175.621 114.134 175.478 115.409 175.315C115.592 175.292 115.761 175.413 115.786 175.584C115.811 175.755 115.683 175.912 115.5 175.935C114.216 176.099 112.911 176.243 111.62 176.363C111.609 176.364 111.598 176.365 111.586 176.365Z" fill="black"/>
    <path d="M115.454 175.936C115.291 175.936 115.149 175.824 115.126 175.667C115.102 175.498 115.229 175.343 115.41 175.319C131.333 173.286 145.476 168.037 156.31 160.139C156.454 160.035 156.662 160.058 156.774 160.194C156.886 160.328 156.86 160.523 156.716 160.628C145.791 168.593 131.538 173.885 115.499 175.933C115.484 175.935 115.469 175.936 115.454 175.936Z" fill="black"/>
    <path d="M117.962 171.517C117.8 171.517 117.659 171.406 117.635 171.252C117.609 171.083 117.734 170.926 117.915 170.902C128.412 169.474 137.918 166.522 146.168 162.126C146.326 162.042 146.528 162.093 146.619 162.242C146.709 162.391 146.654 162.58 146.495 162.664C138.174 167.098 128.589 170.075 118.01 171.515C117.994 171.516 117.978 171.517 117.962 171.517Z" fill="black"/>
    <path d="M108.064 13.0962C107.891 13.0962 107.745 12.9706 107.734 12.8067C107.722 12.6358 107.86 12.4892 108.042 12.4773C108.86 12.4277 109.757 12.4024 110.708 12.4019C110.89 12.4019 111.039 12.5404 111.039 12.7113C111.039 12.8827 110.891 13.0212 110.708 13.0212C109.771 13.0212 108.889 13.0466 108.085 13.0962H108.064ZM115.997 13.2315L115.97 13.2309C115.073 13.1646 114.188 13.1129 113.34 13.0773C113.158 13.0703 113.016 12.9258 113.024 12.7544C113.032 12.5841 113.187 12.4525 113.369 12.459C114.224 12.4946 115.117 12.5458 116.023 12.6142C116.205 12.6272 116.34 12.776 116.326 12.9474C116.312 13.1091 116.167 13.2315 115.997 13.2315ZM121.259 13.7716C121.244 13.7716 121.23 13.7705 121.215 13.7689C120.334 13.6557 119.454 13.5528 118.595 13.4649C118.415 13.446 118.284 13.2929 118.304 13.1237C118.324 12.9533 118.487 12.8304 118.668 12.8487C119.532 12.9382 120.418 13.0406 121.304 13.1555C121.485 13.1786 121.612 13.3344 121.587 13.5037C121.564 13.6595 121.422 13.7716 121.259 13.7716ZM126.483 14.5764C126.462 14.5764 126.441 14.5743 126.42 14.571C125.563 14.4174 124.69 14.2713 123.823 14.1382C123.643 14.1101 123.521 13.9511 123.551 13.7819C123.58 13.6137 123.75 13.4983 123.93 13.5263C124.802 13.6616 125.682 13.8083 126.546 13.9624C126.724 13.9953 126.842 14.157 126.807 14.3258C126.777 14.4735 126.638 14.5764 126.483 14.5764ZM131.654 15.6389C131.627 15.6389 131.601 15.6368 131.574 15.6308C130.73 15.4335 129.865 15.2443 129.005 15.0675C128.826 15.0309 128.714 14.8664 128.753 14.6993C128.791 14.5322 128.967 14.4244 129.147 14.4632C130.013 14.6411 130.884 14.8319 131.734 15.0292C131.911 15.0702 132.019 15.2389 131.975 15.4044C131.938 15.5457 131.802 15.6389 131.654 15.6389ZM136.748 16.9866C136.715 16.9866 136.681 16.9823 136.648 16.9726C135.831 16.7284 134.982 16.4896 134.123 16.2637C133.947 16.2168 133.844 16.0454 133.894 15.881C133.943 15.716 134.126 15.6206 134.302 15.6675C135.168 15.8955 136.024 16.1365 136.849 16.3823C137.023 16.4346 137.119 16.6087 137.063 16.7715C137.019 16.9036 136.888 16.9866 136.748 16.9866ZM141.72 18.6862C141.677 18.6862 141.634 18.6782 141.592 18.6614C140.81 18.3558 139.985 18.055 139.14 17.7677C138.969 17.7089 138.88 17.5321 138.942 17.3715C139.005 17.2103 139.194 17.1273 139.367 17.186C140.221 17.4761 141.056 17.7801 141.847 18.0911C142.016 18.1563 142.096 18.3375 142.025 18.496C141.972 18.6146 141.849 18.6862 141.72 18.6862ZM146.466 20.8727C146.409 20.8727 146.351 20.8587 146.298 20.8296C145.583 20.4366 144.806 20.0485 143.987 19.6738C143.823 19.5989 143.754 19.4129 143.834 19.2593C143.915 19.1062 144.113 19.0426 144.277 19.1175C145.11 19.4981 145.903 19.8948 146.633 20.2953C146.791 20.3821 146.844 20.5713 146.751 20.7196C146.69 20.8172 146.579 20.8727 146.466 20.8727Z" fill="white"/>
    <path d="M74.6376 145.715C74.6261 145.714 74.6146 145.713 74.6036 145.711L64.3133 144.937C54.8823 144.228 45.7856 141.281 37.8612 136.355C37.7991 136.317 37.7375 136.279 37.6759 136.241C36.4334 135.476 34.9146 135.237 33.4804 135.58L32.083 135.915C31.2019 136.127 30.3869 136.544 29.7257 137.137C29.5726 137.275 29.473 137.379 29.473 137.416L30.8002 144.713C36.6952 156.59 45.682 166.807 59.3765 173.506C62.204 174.891 70.5623 178.272 82.1234 179.637C82.1044 176.998 82.1453 173.154 82.1453 173.149V154.459C82.1453 150.212 79.0035 146.555 74.6376 145.715Z" fill="black"/>
    <path d="M60.482 177.738C44.8526 174.766 38.2059 171.193 33.4187 168.513C30.3639 166.803 28.4894 163.677 28.4894 160.3V139.522C28.4894 137.176 31.1437 135.704 33.2823 136.863C34.0708 137.289 34.8241 137.735 35.5527 138.189C43.4368 143.103 52.499 146.027 61.8886 146.734L72.2595 147.513C76.6346 148.346 79.7838 152.007 79.7838 156.26C79.7838 156.26 79.7027 179.269 79.389 179.469C77.9606 180.376 60.482 177.738 60.482 177.738Z" fill="white"/>
    <path d="M71.848 177.784C71.8221 177.784 71.7951 177.781 71.7686 177.774C68.7529 177.076 65.9012 176.318 63.5243 175.584C63.3505 175.531 63.2561 175.356 63.3136 175.193C63.3712 175.031 63.5582 174.943 63.7315 174.996C66.0928 175.727 68.9273 176.479 71.9275 177.174C72.1047 177.215 72.2129 177.383 72.1692 177.549C72.1318 177.689 71.9971 177.784 71.848 177.784Z" fill="black"/>
    <path d="M63.6278 175.599C63.5933 175.599 63.5582 175.594 63.5242 175.584C61.3574 174.914 59.6613 174.291 58.619 173.781C56.9276 172.953 55.2689 172.052 53.6885 171.101C53.5349 171.009 53.49 170.817 53.589 170.673C53.6874 170.53 53.8923 170.488 54.0454 170.58C55.6102 171.521 57.2516 172.414 58.9258 173.232C59.922 173.72 61.6284 174.346 63.7314 174.995C63.9046 175.05 63.999 175.224 63.9415 175.386C63.896 175.517 63.7665 175.599 63.6278 175.599Z" fill="black"/>
    <path d="M53.867 171.15C53.8054 171.15 53.7433 171.134 53.6886 171.101C43.5364 164.993 35.5476 156.192 29.9432 144.941C29.8661 144.786 29.9374 144.601 30.1032 144.529C30.2689 144.457 30.4652 144.523 30.5429 144.679C36.0932 155.823 44.0008 164.537 54.0454 170.58C54.1996 170.672 54.2445 170.864 54.145 171.008C54.0822 171.1 53.9758 171.15 53.867 171.15Z" fill="black"/>
</svg>
