<svg width="32" height="30" viewBox="0 0 32 30" fill="none" xmlns="http://www.w3.org/2000/svg">
    <path d="M0 7C0 5.93913 0.421427 4.92172 1.17157 4.17157C1.92172 3.42143 2.93913 3 4 3H28C29.0609 3 30.0783 3.42143 30.8284 4.17157C31.5786 4.92172 32 5.93913 32 7V23C32 24.0609 31.5786 25.0783 30.8284 25.8284C30.0783 26.5786 29.0609 27 28 27H4C2.93913 27 1.92172 26.5786 1.17157 25.8284C0.421427 25.0783 0 24.0609 0 23V7ZM4 5C3.46957 5 2.96086 5.21071 2.58579 5.58579C2.21071 5.96086 2 6.46957 2 7V7.434L16 15.834L30 7.434V7C30 6.46957 29.7893 5.96086 29.4142 5.58579C29.0391 5.21071 28.5304 5 28 5H4ZM30 9.766L20.584 15.416L30 21.21V9.766ZM29.932 23.518L18.652 16.576L16 18.166L13.348 16.576L2.068 23.516C2.18165 23.9416 2.43263 24.3178 2.78198 24.5861C3.13133 24.8544 3.55949 24.9999 4 25H28C28.4402 25.0001 28.8682 24.8548 29.2175 24.5869C29.5668 24.3189 29.818 23.9432 29.932 23.518ZM2 21.21L11.416 15.416L2 9.766V21.21Z" fill="#3691D2"/>
</svg>
